DavidHadashUpright-Medium_draw_HB.ufo
<glyph name="exclam" format="1">
  <advance width="732"/>
  <unicode hex="0021"/>
  <outline>
    <contour>
      <point x="339" y="443" type="curve" smooth="yes"/>
      <point x="342" y="421"/>
      <point x="349" y="405"/>
      <point x="359" y="405" type="curve" smooth="yes"/>
      <point x="369" y="405"/>
      <point x="383" y="414"/>
      <point x="398" y="434" type="curve" smooth="yes"/>
      <point x="423" y="468"/>
      <point x="436" y="489"/>
      <point x="448" y="513" type="curve" smooth="yes"/>
      <point x="466" y="545"/>
      <point x="473" y="561"/>
      <point x="475" y="595" type="curve" smooth="yes"/>
      <point x="480" y="667"/>
      <point x="480" y="795"/>
      <point x="480" y="874" type="curve" smooth="yes"/>
      <point x="480" y="1055"/>
      <point x="475" y="1222"/>
      <point x="472" y="1264" type="curve" smooth="yes"/>
      <point x="470" y="1274"/>
      <point x="464" y="1291"/>
      <point x="448" y="1291" type="curve" smooth="yes"/>
      <point x="434" y="1291"/>
      <point x="419" y="1278"/>
      <point x="402" y="1260" type="curve" smooth="yes"/>
      <point x="366" y="1224"/>
      <point x="326" y="1183"/>
      <point x="292" y="1144" type="curve" smooth="yes"/>
      <point x="282" y="1131"/>
      <point x="272" y="1111"/>
      <point x="272" y="1089" type="curve" smooth="yes"/>
      <point x="272" y="959"/>
      <point x="308" y="636"/>
    </contour>
    <contour>
      <point x="244" y="97" type="curve" smooth="yes"/>
      <point x="279" y="46"/>
      <point x="333" y="2"/>
      <point x="395" y="-31" type="curve" smooth="yes"/>
      <point x="400" y="-34"/>
      <point x="409" y="-36"/>
      <point x="417" y="-36" type="curve" smooth="yes"/>
      <point x="424" y="-36"/>
      <point x="434" y="-29"/>
      <point x="439" y="-24" type="curve" smooth="yes"/>
      <point x="477" y="14"/>
      <point x="511" y="52"/>
      <point x="550" y="106" type="curve" smooth="yes"/>
      <point x="554" y="111"/>
      <point x="559" y="125"/>
      <point x="559" y="137" type="curve" smooth="yes"/>
      <point x="559" y="147"/>
      <point x="554" y="154"/>
      <point x="545" y="161" type="curve"/>
      <point x="500" y="188"/>
      <point x="448" y="228"/>
      <point x="410" y="269" type="curve" smooth="yes"/>
      <point x="400" y="279"/>
      <point x="395" y="284"/>
      <point x="387" y="284" type="curve" smooth="yes"/>
      <point x="376" y="284"/>
      <point x="366" y="276"/>
      <point x="357" y="267" type="curve" smooth="yes"/>
      <point x="340" y="251"/>
      <point x="263" y="169"/>
      <point x="244" y="145" type="curve" smooth="yes"/>
      <point x="236" y="137"/>
      <point x="235" y="125"/>
      <point x="235" y="118" type="curve" smooth="yes"/>
      <point x="235" y="109"/>
      <point x="238" y="102"/>
    </contour>
  </outline>
</glyph>
<glyph name="dollar" format="1">
  <advance width="1016"/>
  <unicode hex="0024"/>
  <outline>
    <contour>
      <point x="197" y="228" type="curve" smooth="yes"/>
      <point x="172" y="200"/>
      <point x="115" y="102"/>
      <point x="89" y="65" type="curve" smooth="yes"/>
      <point x="86" y="58"/>
      <point x="81" y="50"/>
      <point x="81" y="43" type="curve" smooth="yes"/>
      <point x="81" y="36"/>
      <point x="84" y="31"/>
      <point x="93" y="25" type="curve" smooth="yes"/>
      <point x="161" y="-12"/>
      <point x="337" y="-36"/>
      <point x="414" y="-36" type="curve" smooth="yes"/>
      <point x="432" y="-36"/>
      <point x="434" y="-41"/>
      <point x="434" y="-58" type="curve" smooth="yes"/>
      <point x="434" y="-154"/>
      <point x="428" y="-253"/>
      <point x="428" y="-347" type="curve" smooth="yes"/>
      <point x="428" y="-357"/>
      <point x="431" y="-371"/>
      <point x="443" y="-371" type="curve" smooth="yes"/>
      <point x="448" y="-371"/>
      <point x="453" y="-369"/>
      <point x="459" y="-364" type="curve" smooth="yes"/>
      <point x="473" y="-346"/>
      <point x="513" y="-296"/>
      <point x="523" y="-270" type="curve" smooth="yes"/>
      <point x="530" y="-256"/>
      <point x="532" y="-249"/>
      <point x="532" y="-226" type="curve" smooth="yes"/>
      <point x="532" y="-158"/>
      <point x="523" y="-101"/>
      <point x="523" y="-34" type="curve" smooth="yes"/>
      <point x="523" y="-24"/>
      <point x="527" y="-24"/>
      <point x="539" y="-18" type="curve" smooth="yes"/>
      <point x="733" y="79"/>
      <point x="869" y="287"/>
      <point x="869" y="395" type="curve" smooth="yes"/>
      <point x="869" y="515"/>
      <point x="803" y="593"/>
      <point x="697" y="656" type="curve" smooth="yes"/>
      <point x="636" y="692"/>
      <point x="575" y="724"/>
      <point x="529" y="751" type="curve" smooth="yes"/>
      <point x="516" y="758"/>
      <point x="511" y="767"/>
      <point x="511" y="778" type="curve" smooth="yes"/>
      <point x="511" y="1036" type="line" smooth="yes"/>
      <point x="511" y="1045"/>
      <point x="520" y="1052"/>
      <point x="527" y="1052" type="curve" smooth="yes"/>
      <point x="556" y="1052"/>
      <point x="620" y="1031"/>
      <point x="672" y="1012" type="curve" smooth="yes"/>
      <point x="677" y="1011"/>
      <point x="684" y="1009"/>
      <point x="690" y="1009" type="curve" smooth="yes"/>
      <point x="697" y="1009"/>
      <point x="706" y="1012"/>
      <point x="713" y="1019" type="curve" smooth="yes"/>
      <point x="732" y="1038"/>
      <point x="794" y="1138"/>
      <point x="814" y="1172" type="curve" smooth="yes"/>
      <point x="819" y="1181"/>
      <point x="821" y="1188"/>
      <point x="821" y="1192" type="curve" smooth="yes"/>
      <point x="821" y="1197"/>
      <point x="817" y="1206"/>
      <point x="810" y="1209" type="curve" smooth="yes"/>
      <point x="720" y="1242"/>
      <point x="633" y="1264"/>
      <point x="520" y="1264" type="curve" smooth="yes"/>
      <point x="513" y="1264"/>
      <point x="511" y="1265"/>
      <point x="511" y="1269" type="curve" smooth="yes"/>
      <point x="511" y="1305"/>
      <point x="509" y="1344"/>
      <point x="509" y="1371" type="curve" smooth="yes"/>
      <point x="509" y="1392"/>
      <point x="508" y="1399"/>
      <point x="494" y="1399" type="curve" smooth="yes"/>
      <point x="491" y="1399"/>
      <point x="489" y="1397"/>
      <point x="486" y="1394" type="curve" smooth="yes"/>
      <point x="462" y="1369"/>
      <point x="445" y="1348"/>
      <point x="428" y="1327" type="curve" smooth="yes"/>
      <point x="419" y="1315"/>
      <point x="419" y="1303"/>
      <point x="419" y="1292" type="curve" smooth="yes"/>
      <point x="419" y="1257" type="line" smooth="yes"/>
      <point x="419" y="1245"/>
      <point x="414" y="1242"/>
      <point x="403" y="1238" type="curve" smooth="yes"/>
      <point x="282" y="1195"/>
      <point x="226" y="1140"/>
      <point x="172" y="1067" type="curve" smooth="yes"/>
      <point x="120" y="997"/>
      <point x="101" y="928"/>
      <point x="101" y="855" type="curve" smooth="yes"/>
      <point x="101" y="769"/>
      <point x="125" y="704"/>
      <point x="176" y="665" type="curve" smooth="yes"/>
      <point x="235" y="619"/>
      <point x="385" y="530"/>
      <point x="428" y="511" type="curve" smooth="yes"/>
      <point x="436" y="508"/>
      <point x="439" y="501"/>
      <point x="439" y="494" type="curve" smooth="yes"/>
      <point x="439" y="197" type="line" smooth="yes"/>
      <point x="439" y="181"/>
      <point x="432" y="178"/>
      <point x="424" y="178" type="curve" smooth="yes"/>
      <point x="378" y="178"/>
      <point x="284" y="214"/>
      <point x="235" y="229" type="curve" smooth="yes"/>
      <point x="224" y="233"/>
      <point x="217" y="235"/>
      <point x="210" y="235" type="curve" smooth="yes"/>
      <point x="207" y="235"/>
      <point x="200" y="231"/>
    </contour>
    <contour>
      <point x="426" y="799" type="curve"/>
      <point x="424" y="799"/>
      <point x="410" y="807"/>
      <point x="409" y="807" type="curve" smooth="yes"/>
      <point x="349" y="841"/>
      <point x="291" y="872"/>
      <point x="291" y="941" type="curve" smooth="yes"/>
      <point x="291" y="1009"/>
      <point x="339" y="1055"/>
      <point x="412" y="1055" type="curve" smooth="yes"/>
      <point x="421" y="1055"/>
      <point x="424" y="1050"/>
      <point x="424" y="1038" type="curve" smooth="yes"/>
      <point x="424" y="991"/>
      <point x="432" y="843"/>
      <point x="432" y="810" type="curve" smooth="yes"/>
      <point x="432" y="810"/>
      <point x="432" y="799"/>
    </contour>
    <contour>
      <point x="534" y="179" type="curve" smooth="yes"/>
      <point x="527" y="179"/>
      <point x="523" y="183"/>
      <point x="523" y="193" type="curve" smooth="yes"/>
      <point x="523" y="229"/>
      <point x="516" y="419"/>
      <point x="516" y="460" type="curve" smooth="yes"/>
      <point x="516" y="466"/>
      <point x="522" y="468"/>
      <point x="523" y="468" type="curve" smooth="yes"/>
      <point x="552" y="455"/>
      <point x="599" y="423"/>
      <point x="620" y="407" type="curve" smooth="yes"/>
      <point x="641" y="389"/>
      <point x="670" y="351"/>
      <point x="670" y="305" type="curve" smooth="yes"/>
      <point x="670" y="267"/>
      <point x="655" y="229"/>
      <point x="633" y="210" type="curve" smooth="yes"/>
      <point x="607" y="188"/>
      <point x="556" y="179"/>
    </contour>
  </outline>
</glyph>
<glyph name="percent" format="1">
  <advance width="1016"/>
  <unicode hex="0025"/>
  <outline>
    <contour>
      <point x="55" y="939" type="curve" smooth="yes"/>
      <point x="55" y="758"/>
      <point x="142" y="650"/>
      <point x="267" y="650" type="curve" smooth="yes"/>
      <point x="368" y="650"/>
      <point x="445" y="751"/>
      <point x="475" y="799" type="curve" smooth="yes"/>
      <point x="508" y="851"/>
      <point x="541" y="941"/>
      <point x="541" y="1043" type="curve" smooth="yes"/>
      <point x="541" y="1154"/>
      <point x="482" y="1303"/>
      <point x="355" y="1303" type="curve" smooth="yes"/>
      <point x="260" y="1303"/>
      <point x="147" y="1180"/>
      <point x="102" y="1111" type="curve" smooth="yes"/>
      <point x="86" y="1088"/>
      <point x="55" y="1034"/>
    </contour>
    <contour>
      <point x="431" y="586" type="curve" smooth="yes"/>
      <point x="291" y="349"/>
      <point x="176" y="151"/>
      <point x="115" y="36" type="curve" smooth="yes"/>
      <point x="111" y="29"/>
      <point x="109" y="24"/>
      <point x="109" y="18" type="curve" smooth="yes"/>
      <point x="109" y="5"/>
      <point x="113" y="0"/>
      <point x="125" y="0" type="curve" smooth="yes"/>
      <point x="131" y="0"/>
      <point x="142" y="4"/>
      <point x="154" y="12" type="curve" smooth="yes"/>
      <point x="174" y="27"/>
      <point x="208" y="43"/>
      <point x="233" y="67" type="curve" smooth="yes"/>
      <point x="253" y="84"/>
      <point x="277" y="131"/>
      <point x="296" y="165" type="curve" smooth="yes"/>
      <point x="357" y="282"/>
      <point x="500" y="539"/>
      <point x="550" y="624" type="curve" smooth="yes"/>
      <point x="590" y="692"/>
      <point x="893" y="1208"/>
      <point x="910" y="1260" type="curve" smooth="yes"/>
      <point x="914" y="1271"/>
      <point x="918" y="1278"/>
      <point x="918" y="1286" type="curve" smooth="yes"/>
      <point x="918" y="1294"/>
      <point x="914" y="1299"/>
      <point x="907" y="1299" type="curve" smooth="yes"/>
      <point x="900" y="1299"/>
      <point x="884" y="1296"/>
      <point x="867" y="1283" type="curve" smooth="yes"/>
      <point x="799" y="1235" type="line" smooth="yes"/>
      <point x="780" y="1221"/>
      <point x="761" y="1202"/>
      <point x="754" y="1187" type="curve" smooth="yes"/>
      <point x="725" y="1120"/>
      <point x="586" y="848"/>
    </contour>
    <contour>
      <point x="390" y="942" type="curve" smooth="yes"/>
      <point x="390" y="857"/>
      <point x="364" y="819"/>
      <point x="305" y="819" type="curve" smooth="yes"/>
      <point x="233" y="819"/>
      <point x="204" y="905"/>
      <point x="204" y="991" type="curve" smooth="yes"/>
      <point x="204" y="1067"/>
      <point x="219" y="1142"/>
      <point x="272" y="1142" type="curve" smooth="yes"/>
      <point x="346" y="1142"/>
      <point x="390" y="1082"/>
    </contour>
    <contour>
      <point x="493" y="291" type="curve" smooth="yes"/>
      <point x="493" y="91"/>
      <point x="586" y="-2"/>
      <point x="704" y="-2" type="curve" smooth="yes"/>
      <point x="805" y="-2"/>
      <point x="882" y="97"/>
      <point x="912" y="147" type="curve" smooth="yes"/>
      <point x="944" y="200"/>
      <point x="978" y="289"/>
      <point x="978" y="390" type="curve" smooth="yes"/>
      <point x="978" y="503"/>
      <point x="914" y="648"/>
      <point x="792" y="648" type="curve" smooth="yes"/>
      <point x="692" y="648"/>
      <point x="585" y="523"/>
      <point x="539" y="459" type="curve" smooth="yes"/>
      <point x="523" y="436"/>
      <point x="493" y="380"/>
    </contour>
    <contour>
      <point x="828" y="289" type="curve" smooth="yes"/>
      <point x="828" y="202"/>
      <point x="801" y="165"/>
      <point x="742" y="165" type="curve" smooth="yes"/>
      <point x="670" y="165"/>
      <point x="641" y="249"/>
      <point x="641" y="335" type="curve" smooth="yes"/>
      <point x="641" y="414"/>
      <point x="656" y="489"/>
      <point x="708" y="489" type="curve" smooth="yes"/>
      <point x="787" y="489"/>
      <point x="828" y="424"/>
    </contour>
  </outline>
</glyph>
<glyph name="asterisk" format="1">
  <advance width="732"/>
  <unicode hex="002A"/>
  <outline>
    <contour>
      <point x="376" y="1103" type="curve" smooth="yes"/>
      <point x="385" y="1096"/>
      <point x="460" y="1047"/>
      <point x="470" y="1040" type="curve" smooth="yes"/>
      <point x="477" y="1034"/>
      <point x="486" y="1033"/>
      <point x="486" y="1033" type="curve"/>
      <point x="493" y="1033"/>
      <point x="500" y="1041"/>
      <point x="500" y="1052" type="curve" smooth="yes"/>
      <point x="500" y="1072"/>
      <point x="466" y="1142"/>
      <point x="466" y="1159" type="curve" smooth="yes"/>
      <point x="466" y="1173"/>
      <point x="468" y="1180"/>
      <point x="473" y="1183" type="curve" smooth="yes"/>
      <point x="500" y="1202"/>
      <point x="534" y="1228"/>
      <point x="547" y="1238" type="curve" smooth="yes"/>
      <point x="559" y="1249"/>
      <point x="563" y="1257"/>
      <point x="563" y="1260" type="curve" smooth="yes"/>
      <point x="563" y="1265"/>
      <point x="559" y="1272"/>
      <point x="549" y="1272" type="curve" smooth="yes"/>
      <point x="448" y="1272" type="line" smooth="yes"/>
      <point x="436" y="1272"/>
      <point x="423" y="1276"/>
      <point x="419" y="1291" type="curve" smooth="yes"/>
      <point x="412" y="1317"/>
      <point x="390" y="1368"/>
      <point x="382" y="1392" type="curve" smooth="yes"/>
      <point x="376" y="1407"/>
      <point x="371" y="1414"/>
      <point x="364" y="1414" type="curve" smooth="yes"/>
      <point x="357" y="1414"/>
      <point x="351" y="1407"/>
      <point x="347" y="1397" type="curve" smooth="yes"/>
      <point x="340" y="1373"/>
      <point x="317" y="1317"/>
      <point x="310" y="1291" type="curve" smooth="yes"/>
      <point x="306" y="1276"/>
      <point x="294" y="1272"/>
      <point x="282" y="1272" type="curve" smooth="yes"/>
      <point x="176" y="1272" type="line" smooth="yes"/>
      <point x="165" y="1272"/>
      <point x="161" y="1264"/>
      <point x="161" y="1258" type="curve" smooth="yes"/>
      <point x="161" y="1255"/>
      <point x="163" y="1247"/>
      <point x="171" y="1243" type="curve" smooth="yes"/>
      <point x="179" y="1238"/>
      <point x="229" y="1204"/>
      <point x="256" y="1183" type="curve" smooth="yes"/>
      <point x="260" y="1180"/>
      <point x="262" y="1173"/>
      <point x="262" y="1159" type="curve" smooth="yes"/>
      <point x="262" y="1147"/>
      <point x="226" y="1070"/>
      <point x="226" y="1050" type="curve" smooth="yes"/>
      <point x="226" y="1040"/>
      <point x="233" y="1033"/>
      <point x="242" y="1033" type="curve" smooth="yes"/>
      <point x="244" y="1033"/>
      <point x="249" y="1034"/>
      <point x="253" y="1038" type="curve" smooth="yes"/>
      <point x="263" y="1043"/>
      <point x="342" y="1096"/>
      <point x="353" y="1103" type="curve" smooth="yes"/>
      <point x="357" y="1106"/>
      <point x="361" y="1108"/>
      <point x="364" y="1108" type="curve" smooth="yes"/>
      <point x="368" y="1108"/>
      <point x="371" y="1106"/>
    </contour>
  </outline>
</glyph>
<glyph name="comma" format="1">
  <advance width="699"/>
  <unicode hex="002C"/>
  <outline>
    <contour>
      <point x="285" y="27" type="curve" smooth="yes"/>
      <point x="274" y="-65"/>
      <point x="193" y="-285"/>
      <point x="193" y="-310" type="curve" smooth="yes"/>
      <point x="193" y="-321"/>
      <point x="204" y="-330"/>
      <point x="214" y="-330" type="curve" smooth="yes"/>
      <point x="282" y="-330"/>
      <point x="434" y="-67"/>
      <point x="460" y="-5" type="curve" smooth="yes"/>
      <point x="484" y="50"/>
      <point x="506" y="108"/>
      <point x="506" y="174" type="curve" smooth="yes"/>
      <point x="506" y="276"/>
      <point x="460" y="344"/>
      <point x="441" y="344" type="curve" smooth="yes"/>
      <point x="431" y="344"/>
      <point x="419" y="339"/>
      <point x="407" y="326" type="curve" smooth="yes"/>
      <point x="366" y="285"/>
      <point x="308" y="226"/>
      <point x="289" y="200" type="curve" smooth="yes"/>
      <point x="284" y="192"/>
      <point x="277" y="183"/>
      <point x="277" y="172" type="curve" smooth="yes"/>
      <point x="277" y="152"/>
      <point x="287" y="118"/>
      <point x="287" y="75" type="curve" smooth="yes"/>
      <point x="287" y="61"/>
      <point x="287" y="45"/>
    </contour>
  </outline>
</glyph>
<glyph name="zero" format="1">
  <advance width="1018"/>
  <unicode hex="0030"/>
  <outline>
    <contour>
      <point x="339" y="11" type="curve" smooth="yes"/>
      <point x="393" y="-24"/>
      <point x="459" y="-29"/>
      <point x="501" y="-29" type="curve" smooth="yes"/>
      <point x="534" y="-29"/>
      <point x="575" y="-16"/>
      <point x="606" y="-2" type="curve" smooth="yes"/>
      <point x="711" y="48"/>
      <point x="794" y="171"/>
      <point x="831" y="260" type="curve" smooth="yes"/>
      <point x="889" y="396"/>
      <point x="907" y="520"/>
      <point x="907" y="631" type="curve" smooth="yes"/>
      <point x="907" y="799"/>
      <point x="884" y="995"/>
      <point x="797" y="1113" type="curve" smooth="yes"/>
      <point x="727" y="1209"/>
      <point x="626" y="1276"/>
      <point x="511" y="1276" type="curve" smooth="yes"/>
      <point x="407" y="1276"/>
      <point x="319" y="1221"/>
      <point x="256" y="1138" type="curve" smooth="yes"/>
      <point x="217" y="1088"/>
      <point x="185" y="1031"/>
      <point x="163" y="961" type="curve" smooth="yes"/>
      <point x="133" y="864"/>
      <point x="118" y="740"/>
      <point x="118" y="645" type="curve" smooth="yes"/>
      <point x="120" y="403"/>
      <point x="161" y="123"/>
    </contour>
    <contour>
      <point x="556" y="202" type="curve" smooth="yes"/>
      <point x="464" y="202"/>
      <point x="395" y="253"/>
      <point x="364" y="323" type="curve" smooth="yes"/>
      <point x="332" y="398"/>
      <point x="310" y="545"/>
      <point x="310" y="679" type="curve" smooth="yes"/>
      <point x="310" y="765"/>
      <point x="321" y="880"/>
      <point x="342" y="959" type="curve" smooth="yes"/>
      <point x="355" y="1002"/>
      <point x="382" y="1050"/>
      <point x="445" y="1050" type="curve" smooth="yes"/>
      <point x="534" y="1050"/>
      <point x="600" y="993"/>
      <point x="629" y="930" type="curve" smooth="yes"/>
      <point x="684" y="805"/>
      <point x="701" y="672"/>
      <point x="701" y="545" type="curve" smooth="yes"/>
      <point x="701" y="506"/>
      <point x="699" y="468"/>
      <point x="696" y="431" type="curve" smooth="yes"/>
      <point x="690" y="359"/>
      <point x="676" y="277"/>
      <point x="650" y="240" type="curve" smooth="yes"/>
      <point x="631" y="212"/>
      <point x="592" y="202"/>
    </contour>
  </outline>
</glyph>
<glyph name="two" format="1">
  <advance width="1018"/>
  <unicode hex="0032"/>
  <outline>
    <contour>
      <point x="154" y="43" type="curve" smooth="yes"/>
      <point x="152" y="36"/>
      <point x="151" y="29"/>
      <point x="151" y="24" type="curve" smooth="yes"/>
      <point x="151" y="9"/>
      <point x="159" y="2"/>
      <point x="181" y="2" type="curve" smooth="yes"/>
      <point x="754" y="2" type="line" smooth="yes"/>
      <point x="767" y="2"/>
      <point x="776" y="7"/>
      <point x="787" y="18" type="curve" smooth="yes"/>
      <point x="816" y="46"/>
      <point x="879" y="176"/>
      <point x="893" y="200" type="curve" smooth="yes"/>
      <point x="896" y="207"/>
      <point x="901" y="219"/>
      <point x="901" y="222" type="curve" smooth="yes"/>
      <point x="901" y="231"/>
      <point x="894" y="235"/>
      <point x="882" y="235" type="curve" smooth="yes"/>
      <point x="477" y="235" type="line" smooth="yes"/>
      <point x="462" y="235"/>
      <point x="459" y="242"/>
      <point x="459" y="258" type="curve" smooth="yes"/>
      <point x="459" y="301"/>
      <point x="590" y="503"/>
      <point x="676" y="609" type="curve" smooth="yes"/>
      <point x="774" y="730"/>
      <point x="826" y="848"/>
      <point x="826" y="949" type="curve" smooth="yes"/>
      <point x="826" y="1202"/>
      <point x="552" y="1272"/>
      <point x="349" y="1272" type="curve" smooth="yes"/>
      <point x="330" y="1272"/>
      <point x="308" y="1258"/>
      <point x="301" y="1249" type="curve" smooth="yes"/>
      <point x="267" y="1208"/>
      <point x="235" y="1159"/>
      <point x="195" y="1095" type="curve" smooth="yes"/>
      <point x="190" y="1086"/>
      <point x="181" y="1070"/>
      <point x="181" y="1067" type="curve" smooth="yes"/>
      <point x="181" y="1055"/>
      <point x="192" y="1050"/>
      <point x="212" y="1050" type="curve" smooth="yes"/>
      <point x="287" y="1050"/>
      <point x="403" y="1033"/>
      <point x="462" y="1009" type="curve" smooth="yes"/>
      <point x="554" y="975"/>
      <point x="588" y="893"/>
      <point x="588" y="841" type="curve" smooth="yes"/>
      <point x="588" y="692"/>
      <point x="459" y="550"/>
      <point x="375" y="438" type="curve" smooth="yes"/>
      <point x="319" y="364"/>
      <point x="210" y="215"/>
    </contour>
  </outline>
</glyph>
<glyph name="four" format="1">
  <advance width="1016"/>
  <unicode hex="0034"/>
  <outline>
    <contour>
      <point x="541" y="333" type="curve"/>
      <point x="541" y="298"/>
      <point x="547" y="77"/>
      <point x="549" y="-9" type="curve" smooth="yes"/>
      <point x="549" y="-36"/>
      <point x="559" y="-45"/>
      <point x="573" y="-45" type="curve" smooth="yes"/>
      <point x="585" y="-45"/>
      <point x="593" y="-34"/>
      <point x="607" y="-20" type="curve" smooth="yes"/>
      <point x="643" y="16"/>
      <point x="688" y="81"/>
      <point x="706" y="120" type="curve" smooth="yes"/>
      <point x="715" y="138"/>
      <point x="717" y="149"/>
      <point x="717" y="165" type="curve" smooth="yes"/>
      <point x="717" y="339" type="line" smooth="yes"/>
      <point x="717" y="359"/>
      <point x="720" y="364"/>
      <point x="735" y="364" type="curve" smooth="yes"/>
      <point x="817" y="364" type="line" smooth="yes"/>
      <point x="830" y="364"/>
      <point x="844" y="375"/>
      <point x="855" y="396" type="curve" smooth="yes"/>
      <point x="893" y="472"/>
      <point x="930" y="554"/>
      <point x="930" y="573" type="curve" smooth="yes"/>
      <point x="930" y="590"/>
      <point x="923" y="595"/>
      <point x="908" y="595" type="curve" smooth="yes"/>
      <point x="739" y="595" type="line" smooth="yes"/>
      <point x="722" y="595"/>
      <point x="717" y="600"/>
      <point x="717" y="614" type="curve" smooth="yes"/>
      <point x="715" y="647"/>
      <point x="708" y="1074"/>
      <point x="692" y="1242" type="curve" smooth="yes"/>
      <point x="688" y="1271"/>
      <point x="667" y="1286"/>
      <point x="647" y="1286" type="curve" smooth="yes"/>
      <point x="633" y="1286"/>
      <point x="614" y="1283"/>
      <point x="592" y="1271" type="curve" smooth="yes"/>
      <point x="523" y="1235"/>
      <point x="434" y="1173"/>
      <point x="382" y="1120" type="curve" smooth="yes"/>
      <point x="321" y="1057"/>
      <point x="260" y="977"/>
      <point x="207" y="872" type="curve" smooth="yes"/>
      <point x="156" y="778"/>
      <point x="81" y="585"/>
      <point x="81" y="487" type="curve" smooth="yes"/>
      <point x="81" y="409"/>
      <point x="109" y="364"/>
      <point x="183" y="364" type="curve" smooth="yes"/>
      <point x="511" y="364" type="line" smooth="yes"/>
      <point x="534" y="364"/>
      <point x="539" y="361"/>
    </contour>
    <contour>
      <point x="511" y="989" type="curve" smooth="yes"/>
      <point x="523" y="889"/>
      <point x="536" y="706"/>
      <point x="536" y="624" type="curve" smooth="yes"/>
      <point x="536" y="602"/>
      <point x="532" y="595"/>
      <point x="516" y="595" type="curve" smooth="yes"/>
      <point x="303" y="595" type="line" smooth="yes"/>
      <point x="272" y="595"/>
      <point x="255" y="595"/>
      <point x="255" y="640" type="curve" smooth="yes"/>
      <point x="255" y="701"/>
      <point x="296" y="819"/>
      <point x="337" y="884" type="curve" smooth="yes"/>
      <point x="371" y="937"/>
      <point x="426" y="985"/>
      <point x="472" y="1009" type="curve" smooth="yes"/>
      <point x="479" y="1012"/>
      <point x="486" y="1014"/>
      <point x="491" y="1014" type="curve" smooth="yes"/>
      <point x="506" y="1014"/>
      <point x="509" y="1004"/>
    </contour>
  </outline>
</glyph>
<glyph name="five" format="1">
  <advance width="1018"/>
  <unicode hex="0035"/>
  <outline>
    <contour>
      <point x="235" y="222" type="curve" smooth="yes"/>
      <point x="215" y="200"/>
      <point x="171" y="131"/>
      <point x="142" y="84" type="curve" smooth="yes"/>
      <point x="133" y="70"/>
      <point x="129" y="61"/>
      <point x="129" y="50" type="curve" smooth="yes"/>
      <point x="129" y="18"/>
      <point x="317" y="-31"/>
      <point x="414" y="-31" type="curve" smooth="yes"/>
      <point x="543" y="-31"/>
      <point x="679" y="29"/>
      <point x="781" y="200" type="curve" smooth="yes"/>
      <point x="809" y="246"/>
      <point x="864" y="339"/>
      <point x="864" y="445" type="curve" smooth="yes"/>
      <point x="864" y="688"/>
      <point x="626" y="758"/>
      <point x="529" y="758" type="curve" smooth="yes"/>
      <point x="438" y="758" type="line" smooth="yes"/>
      <point x="414" y="758"/>
      <point x="400" y="773"/>
      <point x="400" y="795" type="curve" smooth="yes"/>
      <point x="400" y="821"/>
      <point x="395" y="925"/>
      <point x="395" y="939" type="curve" smooth="yes"/>
      <point x="395" y="961"/>
      <point x="405" y="968"/>
      <point x="426" y="968" type="curve" smooth="yes"/>
      <point x="718" y="968" type="line" smooth="yes"/>
      <point x="758" y="968"/>
      <point x="769" y="975"/>
      <point x="781" y="997" type="curve" smooth="yes"/>
      <point x="801" y="1033"/>
      <point x="833" y="1100"/>
      <point x="851" y="1144" type="curve" smooth="yes"/>
      <point x="858" y="1161"/>
      <point x="862" y="1173"/>
      <point x="862" y="1181" type="curve" smooth="yes"/>
      <point x="862" y="1192"/>
      <point x="853" y="1208"/>
      <point x="823" y="1208" type="curve" smooth="yes"/>
      <point x="428" y="1208" type="line" smooth="yes"/>
      <point x="402" y="1208"/>
      <point x="383" y="1226"/>
      <point x="357" y="1269" type="curve" smooth="yes"/>
      <point x="349" y="1279"/>
      <point x="347" y="1286"/>
      <point x="335" y="1286" type="curve" smooth="yes"/>
      <point x="325" y="1286"/>
      <point x="312" y="1278"/>
      <point x="298" y="1258" type="curve" smooth="yes"/>
      <point x="262" y="1209"/>
      <point x="215" y="1125"/>
      <point x="208" y="1091" type="curve" smooth="yes"/>
      <point x="202" y="1072"/>
      <point x="199" y="1041"/>
      <point x="199" y="989" type="curve" smooth="yes"/>
      <point x="199" y="858"/>
      <point x="200" y="733"/>
      <point x="204" y="626" type="curve" smooth="yes"/>
      <point x="207" y="575"/>
      <point x="229" y="543"/>
      <point x="285" y="543" type="curve" smooth="yes"/>
      <point x="375" y="543" type="line" smooth="yes"/>
      <point x="470" y="543"/>
      <point x="543" y="534"/>
      <point x="585" y="503" type="curve" smooth="yes"/>
      <point x="627" y="472"/>
      <point x="656" y="412"/>
      <point x="656" y="359" type="curve" smooth="yes"/>
      <point x="656" y="262"/>
      <point x="583" y="190"/>
      <point x="484" y="190" type="curve" smooth="yes"/>
      <point x="407" y="190"/>
      <point x="287" y="235"/>
      <point x="260" y="235" type="curve" smooth="yes"/>
      <point x="248" y="235"/>
      <point x="240" y="229"/>
    </contour>
  </outline>
</glyph>
<glyph name="six" format="1">
  <advance width="1016"/>
  <unicode hex="0036"/>
  <outline>
    <contour>
      <point x="215" y="718" type="curve" smooth="yes"/>
      <point x="152" y="602"/>
      <point x="86" y="470"/>
      <point x="86" y="346" type="curve" smooth="yes"/>
      <point x="86" y="217"/>
      <point x="154" y="125"/>
      <point x="217" y="68" type="curve" smooth="yes"/>
      <point x="277" y="12"/>
      <point x="369" y="-31"/>
      <point x="464" y="-31" type="curve" smooth="yes"/>
      <point x="703" y="-31"/>
      <point x="905" y="231"/>
      <point x="905" y="428" type="curve" smooth="yes"/>
      <point x="905" y="606"/>
      <point x="805" y="787"/>
      <point x="599" y="787" type="curve" smooth="yes"/>
      <point x="503" y="787"/>
      <point x="455" y="747"/>
      <point x="448" y="747" type="curve" smooth="yes"/>
      <point x="445" y="747"/>
      <point x="441" y="749"/>
      <point x="441" y="753" type="curve" smooth="yes"/>
      <point x="441" y="756"/>
      <point x="450" y="769"/>
      <point x="466" y="794" type="curve" smooth="yes"/>
      <point x="537" y="908"/>
      <point x="660" y="1081"/>
      <point x="713" y="1154" type="curve" smooth="yes"/>
      <point x="756" y="1213" type="line" smooth="yes"/>
      <point x="769" y="1229"/>
      <point x="780" y="1245"/>
      <point x="780" y="1258" type="curve" smooth="yes"/>
      <point x="780" y="1271"/>
      <point x="776" y="1283"/>
      <point x="756" y="1283" type="curve" smooth="yes"/>
      <point x="739" y="1283"/>
      <point x="636" y="1245"/>
      <point x="579" y="1215" type="curve" smooth="yes"/>
      <point x="543" y="1195"/>
      <point x="523" y="1173"/>
      <point x="501" y="1149" type="curve" smooth="yes"/>
      <point x="423" y="1059"/>
      <point x="301" y="879"/>
    </contour>
    <contour>
      <point x="713" y="376" type="curve" smooth="yes"/>
      <point x="713" y="263"/>
      <point x="640" y="183"/>
      <point x="520" y="183" type="curve" smooth="yes"/>
      <point x="417" y="183"/>
      <point x="292" y="272"/>
      <point x="292" y="402" type="curve" smooth="yes"/>
      <point x="292" y="518"/>
      <point x="378" y="599"/>
      <point x="493" y="599" type="curve" smooth="yes"/>
      <point x="614" y="599"/>
      <point x="713" y="486"/>
    </contour>
  </outline>
</glyph>
<glyph name="eight" format="1">
  <advance width="1018"/>
  <unicode hex="0038"/>
  <outline>
    <contour>
      <point x="104" y="317" type="curve" smooth="yes"/>
      <point x="104" y="228"/>
      <point x="142" y="144"/>
      <point x="204" y="82" type="curve" smooth="yes"/>
      <point x="284" y="7"/>
      <point x="389" y="-32"/>
      <point x="468" y="-32" type="curve" smooth="yes"/>
      <point x="581" y="-32"/>
      <point x="708" y="50"/>
      <point x="780" y="133" type="curve" smooth="yes"/>
      <point x="846" y="208"/>
      <point x="891" y="312"/>
      <point x="891" y="387" type="curve" smooth="yes"/>
      <point x="891" y="475"/>
      <point x="850" y="559"/>
      <point x="785" y="609" type="curve" smooth="yes"/>
      <point x="744" y="641"/>
      <point x="690" y="674"/>
      <point x="658" y="692" type="curve" smooth="yes"/>
      <point x="655" y="694"/>
      <point x="652" y="697"/>
      <point x="652" y="703" type="curve" smooth="yes"/>
      <point x="652" y="704"/>
      <point x="652" y="708"/>
      <point x="655" y="710" type="curve" smooth="yes"/>
      <point x="662" y="718"/>
      <point x="677" y="732"/>
      <point x="694" y="747" type="curve" smooth="yes"/>
      <point x="769" y="828"/>
      <point x="810" y="887"/>
      <point x="810" y="998" type="curve" smooth="yes"/>
      <point x="810" y="1152"/>
      <point x="658" y="1272"/>
      <point x="520" y="1272" type="curve" smooth="yes"/>
      <point x="472" y="1272"/>
      <point x="410" y="1260"/>
      <point x="368" y="1236" type="curve" smooth="yes"/>
      <point x="301" y="1201"/>
      <point x="242" y="1147"/>
      <point x="195" y="1074" type="curve" smooth="yes"/>
      <point x="163" y="1023"/>
      <point x="144" y="949"/>
      <point x="144" y="894" type="curve" smooth="yes"/>
      <point x="144" y="767"/>
      <point x="197" y="701"/>
      <point x="289" y="640" type="curve" smooth="yes"/>
      <point x="291" y="638"/>
      <point x="292" y="636"/>
      <point x="292" y="633" type="curve" smooth="yes"/>
      <point x="292" y="629"/>
      <point x="289" y="624"/>
      <point x="282" y="620" type="curve" smooth="yes"/>
      <point x="181" y="563"/>
      <point x="104" y="441"/>
    </contour>
    <contour>
      <point x="670" y="335" type="curve" smooth="yes"/>
      <point x="670" y="285"/>
      <point x="636" y="188"/>
      <point x="529" y="188" type="curve" smooth="yes"/>
      <point x="414" y="188"/>
      <point x="301" y="265"/>
      <point x="301" y="387" type="curve" smooth="yes"/>
      <point x="301" y="496"/>
      <point x="373" y="547"/>
      <point x="409" y="559" type="curve" smooth="yes"/>
      <point x="412" y="561"/>
      <point x="414" y="561"/>
      <point x="417" y="561" type="curve" smooth="yes"/>
      <point x="421" y="561"/>
      <point x="431" y="561"/>
      <point x="434" y="559" type="curve" smooth="yes"/>
      <point x="506" y="523"/>
      <point x="536" y="503"/>
      <point x="586" y="472" type="curve" smooth="yes"/>
      <point x="634" y="441"/>
      <point x="670" y="403"/>
    </contour>
    <contour>
      <point x="549" y="780" type="curve" smooth="yes"/>
      <point x="545" y="776"/>
      <point x="536" y="771"/>
      <point x="529" y="771" type="curve" smooth="yes"/>
      <point x="518" y="771"/>
      <point x="494" y="780"/>
      <point x="482" y="787" type="curve" smooth="yes"/>
      <point x="423" y="821"/>
      <point x="347" y="867"/>
      <point x="347" y="946" type="curve" smooth="yes"/>
      <point x="347" y="1018"/>
      <point x="382" y="1062"/>
      <point x="460" y="1062" type="curve" smooth="yes"/>
      <point x="529" y="1062"/>
      <point x="622" y="1002"/>
      <point x="622" y="923" type="curve" smooth="yes"/>
      <point x="622" y="850"/>
      <point x="595" y="814"/>
    </contour>
  </outline>
</glyph>
<glyph name="nine" format="1">
  <advance width="1016"/>
  <unicode hex="0039"/>
  <outline>
    <contour>
      <point x="543" y="445" type="curve" smooth="yes"/>
      <point x="543" y="428"/>
      <point x="319" y="106"/>
      <point x="269" y="31" type="curve" smooth="yes"/>
      <point x="258" y="14"/>
      <point x="246" y="-7"/>
      <point x="246" y="-20" type="curve" smooth="yes"/>
      <point x="246" y="-31"/>
      <point x="253" y="-45"/>
      <point x="272" y="-45" type="curve" smooth="yes"/>
      <point x="287" y="-45"/>
      <point x="301" y="-39"/>
      <point x="325" y="-29" type="curve" smooth="yes"/>
      <point x="390" y="2"/>
      <point x="452" y="38"/>
      <point x="498" y="70" type="curve" smooth="yes"/>
      <point x="515" y="81"/>
      <point x="532" y="102"/>
      <point x="549" y="123" type="curve" smooth="yes"/>
      <point x="769" y="438"/>
      <point x="930" y="692"/>
      <point x="930" y="876" type="curve" smooth="yes"/>
      <point x="930" y="973"/>
      <point x="900" y="1075"/>
      <point x="819" y="1152" type="curve" smooth="yes"/>
      <point x="737" y="1231"/>
      <point x="631" y="1274"/>
      <point x="537" y="1274" type="curve" smooth="yes"/>
      <point x="387" y="1274"/>
      <point x="272" y="1175"/>
      <point x="214" y="1098" type="curve" smooth="yes"/>
      <point x="163" y="1034"/>
      <point x="99" y="916"/>
      <point x="99" y="797" type="curve" smooth="yes"/>
      <point x="99" y="566"/>
      <point x="284" y="438"/>
      <point x="428" y="438" type="curve" smooth="yes"/>
      <point x="479" y="438"/>
      <point x="527" y="453"/>
      <point x="532" y="453" type="curve" smooth="yes"/>
      <point x="539" y="453"/>
      <point x="543" y="450"/>
    </contour>
    <contour>
      <point x="473" y="1055" type="curve" smooth="yes"/>
      <point x="609" y="1055"/>
      <point x="711" y="961"/>
      <point x="711" y="837" type="curve" smooth="yes"/>
      <point x="711" y="704"/>
      <point x="627" y="634"/>
      <point x="520" y="634" type="curve" smooth="yes"/>
      <point x="398" y="634"/>
      <point x="296" y="711"/>
      <point x="296" y="864" type="curve" smooth="yes"/>
      <point x="296" y="949"/>
      <point x="342" y="1055"/>
    </contour>
  </outline>
</glyph>
<glyph name="equal" format="1">
  <advance width="975"/>
  <unicode hex="003D"/>
  <outline>
    <contour>
      <point x="137" y="843" type="curve"/>
      <point x="113" y="843"/>
      <point x="108" y="831"/>
      <point x="108" y="814" type="curve" smooth="yes"/>
      <point x="108" y="722" type="line" smooth="yes"/>
      <point x="108" y="706"/>
      <point x="113" y="696"/>
      <point x="137" y="696" type="curve" smooth="yes"/>
      <point x="137" y="696"/>
      <point x="432" y="701"/>
      <point x="530" y="701" type="curve" smooth="yes"/>
      <point x="613" y="701"/>
      <point x="860" y="696"/>
      <point x="860" y="696" type="curve"/>
      <point x="884" y="696"/>
      <point x="889" y="706"/>
      <point x="889" y="722" type="curve" smooth="yes"/>
      <point x="889" y="814" type="line" smooth="yes"/>
      <point x="889" y="838"/>
      <point x="880" y="843"/>
      <point x="864" y="843" type="curve" smooth="yes"/>
      <point x="864" y="843"/>
      <point x="629" y="837"/>
      <point x="527" y="837" type="curve" smooth="yes"/>
      <point x="410" y="837"/>
      <point x="137" y="843"/>
    </contour>
    <contour>
      <point x="137" y="453" type="curve"/>
      <point x="113" y="453"/>
      <point x="108" y="443"/>
      <point x="108" y="424" type="curve" smooth="yes"/>
      <point x="108" y="333" type="line" smooth="yes"/>
      <point x="108" y="317"/>
      <point x="113" y="306"/>
      <point x="137" y="306" type="curve" smooth="yes"/>
      <point x="137" y="306"/>
      <point x="432" y="312"/>
      <point x="530" y="312" type="curve" smooth="yes"/>
      <point x="613" y="312"/>
      <point x="860" y="306"/>
      <point x="860" y="306" type="curve"/>
      <point x="884" y="306"/>
      <point x="889" y="317"/>
      <point x="889" y="333" type="curve" smooth="yes"/>
      <point x="889" y="424" type="line" smooth="yes"/>
      <point x="889" y="450"/>
      <point x="874" y="453"/>
      <point x="864" y="453" type="curve" smooth="yes"/>
      <point x="864" y="453"/>
      <point x="629" y="448"/>
      <point x="527" y="448" type="curve" smooth="yes"/>
      <point x="410" y="448"/>
      <point x="137" y="453"/>
    </contour>
  </outline>
</glyph>
<glyph name="greater" format="1">
  <advance width="975"/>
  <unicode hex="003E"/>
  <outline>
    <contour>
      <point x="501" y="330" type="curve" smooth="yes"/>
      <point x="556" y="357"/>
      <point x="688" y="419"/>
      <point x="855" y="503" type="curve" smooth="yes"/>
      <point x="869" y="511"/>
      <point x="879" y="516"/>
      <point x="879" y="537" type="curve" smooth="yes"/>
      <point x="879" y="624" type="line" smooth="yes"/>
      <point x="879" y="643"/>
      <point x="869" y="645"/>
      <point x="851" y="655" type="curve" smooth="yes"/>
      <point x="624" y="767"/>
      <point x="303" y="932"/>
      <point x="207" y="985" type="curve" smooth="yes"/>
      <point x="200" y="989"/>
      <point x="193" y="991"/>
      <point x="188" y="991" type="curve" smooth="yes"/>
      <point x="186" y="991"/>
      <point x="179" y="987"/>
      <point x="172" y="977" type="curve" smooth="yes"/>
      <point x="125" y="898" type="line" smooth="yes"/>
      <point x="120" y="887"/>
      <point x="118" y="882"/>
      <point x="118" y="874" type="curve" smooth="yes"/>
      <point x="118" y="865"/>
      <point x="123" y="860"/>
      <point x="137" y="853" type="curve"/>
      <point x="137" y="853"/>
      <point x="361" y="746"/>
      <point x="434" y="708" type="curve" smooth="yes"/>
      <point x="681" y="579" type="line"/>
      <point x="617" y="543"/>
      <point x="543" y="506"/>
      <point x="470" y="468" type="curve" smooth="yes"/>
      <point x="335" y="400"/>
      <point x="202" y="335"/>
      <point x="137" y="305" type="curve" smooth="yes"/>
      <point x="122" y="298"/>
      <point x="118" y="291"/>
      <point x="118" y="284" type="curve" smooth="yes"/>
      <point x="118" y="277"/>
      <point x="122" y="270"/>
      <point x="125" y="263" type="curve" smooth="yes"/>
      <point x="165" y="181" type="line" smooth="yes"/>
      <point x="172" y="166"/>
      <point x="174" y="165"/>
      <point x="183" y="165" type="curve" smooth="yes"/>
      <point x="188" y="165"/>
      <point x="199" y="169"/>
      <point x="207" y="172" type="curve"/>
      <point x="207" y="172"/>
      <point x="412" y="285"/>
    </contour>
  </outline>
</glyph>
<glyph name="question" format="1">
  <advance width="732"/>
  <unicode hex="003F"/>
  <outline>
    <contour>
      <point x="236" y="545" type="curve" smooth="yes"/>
      <point x="236" y="503"/>
      <point x="270" y="441"/>
      <point x="310" y="407" type="curve" smooth="yes"/>
      <point x="325" y="395"/>
      <point x="337" y="387"/>
      <point x="349" y="387" type="curve" smooth="yes"/>
      <point x="357" y="387"/>
      <point x="366" y="390"/>
      <point x="378" y="405" type="curve" smooth="yes"/>
      <point x="402" y="432"/>
      <point x="424" y="455"/>
      <point x="446" y="489" type="curve" smooth="yes"/>
      <point x="455" y="503"/>
      <point x="466" y="516"/>
      <point x="466" y="530" type="curve" smooth="yes"/>
      <point x="466" y="541"/>
      <point x="459" y="547"/>
      <point x="450" y="556" type="curve" smooth="yes"/>
      <point x="424" y="585"/>
      <point x="414" y="607"/>
      <point x="414" y="631" type="curve" smooth="yes"/>
      <point x="414" y="732"/>
      <point x="607" y="828"/>
      <point x="607" y="1031" type="curve" smooth="yes"/>
      <point x="607" y="1180"/>
      <point x="419" y="1292"/>
      <point x="299" y="1292" type="curve" smooth="yes"/>
      <point x="274" y="1292"/>
      <point x="260" y="1289"/>
      <point x="238" y="1262" type="curve" smooth="yes"/>
      <point x="200" y="1217"/>
      <point x="163" y="1172"/>
      <point x="137" y="1136" type="curve" smooth="yes"/>
      <point x="125" y="1122"/>
      <point x="118" y="1110"/>
      <point x="118" y="1104" type="curve" smooth="yes"/>
      <point x="118" y="1095"/>
      <point x="122" y="1089"/>
      <point x="133" y="1086" type="curve" smooth="yes"/>
      <point x="226" y="1061"/>
      <point x="396" y="1040"/>
      <point x="396" y="907" type="curve" smooth="yes"/>
      <point x="396" y="761"/>
      <point x="236" y="686"/>
    </contour>
    <contour>
      <point x="224" y="97" type="curve" smooth="yes"/>
      <point x="258" y="50"/>
      <point x="321" y="-4"/>
      <point x="369" y="-32" type="curve" smooth="yes"/>
      <point x="375" y="-36"/>
      <point x="382" y="-38"/>
      <point x="389" y="-38" type="curve" smooth="yes"/>
      <point x="396" y="-38"/>
      <point x="403" y="-34"/>
      <point x="409" y="-29" type="curve" smooth="yes"/>
      <point x="443" y="5"/>
      <point x="494" y="60"/>
      <point x="523" y="104" type="curve" smooth="yes"/>
      <point x="529" y="113"/>
      <point x="534" y="123"/>
      <point x="534" y="133" type="curve" smooth="yes"/>
      <point x="534" y="144"/>
      <point x="527" y="152"/>
      <point x="518" y="159" type="curve" smooth="yes"/>
      <point x="482" y="183"/>
      <point x="419" y="240"/>
      <point x="383" y="270" type="curve" smooth="yes"/>
      <point x="375" y="277"/>
      <point x="369" y="284"/>
      <point x="361" y="284" type="curve" smooth="yes"/>
      <point x="351" y="284"/>
      <point x="342" y="277"/>
      <point x="335" y="269" type="curve" smooth="yes"/>
      <point x="315" y="246"/>
      <point x="251" y="174"/>
      <point x="222" y="144" type="curve" smooth="yes"/>
      <point x="215" y="137"/>
      <point x="214" y="127"/>
      <point x="214" y="120" type="curve" smooth="yes"/>
      <point x="214" y="113"/>
      <point x="219" y="104"/>
    </contour>
  </outline>
</glyph>
<glyph name="bracketleft" format="1">
  <advance width="732"/>
  <unicode hex="005B"/>
  <outline>
    <contour>
      <point x="133" y="-75" type="curve" smooth="yes"/>
      <point x="133" y="-200"/>
      <point x="178" y="-248"/>
      <point x="301" y="-248" type="curve" smooth="yes"/>
      <point x="487" y="-248" type="line" smooth="yes"/>
      <point x="523" y="-248"/>
      <point x="547" y="-238"/>
      <point x="571" y="-219" type="curve" smooth="yes"/>
      <point x="592" y="-204"/>
      <point x="609" y="-190"/>
      <point x="633" y="-166" type="curve" smooth="yes"/>
      <point x="645" y="-154"/>
      <point x="655" y="-147"/>
      <point x="655" y="-138" type="curve" smooth="yes"/>
      <point x="655" y="-127"/>
      <point x="643" y="-123"/>
      <point x="624" y="-123" type="curve" smooth="yes"/>
      <point x="349" y="-123" type="line" smooth="yes"/>
      <point x="323" y="-123"/>
      <point x="303" y="-108"/>
      <point x="303" y="-70" type="curve" smooth="yes"/>
      <point x="301" y="22"/>
      <point x="299" y="373"/>
      <point x="299" y="541" type="curve" smooth="yes"/>
      <point x="299" y="617"/>
      <point x="298" y="790"/>
      <point x="298" y="921" type="curve" smooth="yes"/>
      <point x="298" y="1082"/>
      <point x="299" y="1118"/>
      <point x="347" y="1118" type="curve" smooth="yes"/>
      <point x="516" y="1118" type="line" smooth="yes"/>
      <point x="532" y="1118"/>
      <point x="552" y="1127"/>
      <point x="577" y="1147" type="curve" smooth="yes"/>
      <point x="595" y="1161"/>
      <point x="619" y="1183"/>
      <point x="634" y="1199" type="curve" smooth="yes"/>
      <point x="648" y="1213"/>
      <point x="655" y="1221"/>
      <point x="655" y="1229" type="curve" smooth="yes"/>
      <point x="655" y="1240"/>
      <point x="643" y="1242"/>
      <point x="629" y="1242" type="curve" smooth="yes"/>
      <point x="244" y="1242" type="line" smooth="yes"/>
      <point x="165" y="1242"/>
      <point x="129" y="1165"/>
      <point x="129" y="1095" type="curve" smooth="yes"/>
      <point x="129" y="1000"/>
      <point x="142" y="763"/>
      <point x="142" y="559" type="curve" smooth="yes"/>
      <point x="142" y="277"/>
      <point x="133" y="81"/>
    </contour>
  </outline>
</glyph>
<glyph name="asciicircum" format="1">
  <advance width="975"/>
  <unicode hex="005E"/>
  <outline>
    <contour>
      <point x="575" y="1229" type="curve" smooth="yes"/>
      <point x="566" y="1245"/>
      <point x="561" y="1253"/>
      <point x="545" y="1253" type="curve" smooth="yes"/>
      <point x="459" y="1253" type="line" smooth="yes"/>
      <point x="438" y="1253"/>
      <point x="431" y="1243"/>
      <point x="423" y="1229" type="curve" smooth="yes"/>
      <point x="349" y="1081"/>
      <point x="149" y="669"/>
      <point x="82" y="568" type="curve" smooth="yes"/>
      <point x="79" y="563"/>
      <point x="77" y="554"/>
      <point x="77" y="549" type="curve" smooth="yes"/>
      <point x="77" y="541"/>
      <point x="81" y="534"/>
      <point x="91" y="529" type="curve" smooth="yes"/>
      <point x="179" y="484" type="line" smooth="yes"/>
      <point x="185" y="480"/>
      <point x="188" y="479"/>
      <point x="193" y="479" type="curve" smooth="yes"/>
      <point x="200" y="479"/>
      <point x="210" y="486"/>
      <point x="217" y="496" type="curve"/>
      <point x="217" y="496"/>
      <point x="317" y="711"/>
      <point x="364" y="799" type="curve" smooth="yes"/>
      <point x="498" y="1055" type="line"/>
      <point x="624" y="816" type="line" smooth="yes"/>
      <point x="663" y="739"/>
      <point x="767" y="523"/>
      <point x="780" y="498" type="curve" smooth="yes"/>
      <point x="785" y="486"/>
      <point x="790" y="475"/>
      <point x="805" y="475" type="curve" smooth="yes"/>
      <point x="810" y="475"/>
      <point x="816" y="479"/>
      <point x="821" y="480" type="curve" smooth="yes"/>
      <point x="901" y="525" type="line" smooth="yes"/>
      <point x="916" y="532"/>
      <point x="920" y="537"/>
      <point x="920" y="547" type="curve" smooth="yes"/>
      <point x="920" y="552"/>
      <point x="918" y="559"/>
      <point x="914" y="566" type="curve"/>
      <point x="912" y="566"/>
      <point x="758" y="858"/>
      <point x="730" y="912" type="curve" smooth="yes"/>
      <point x="670" y="1023"/>
      <point x="604" y="1175"/>
    </contour>
  </outline>
</glyph>
<glyph name="braceleft" format="1">
  <advance width="732"/>
  <unicode hex="007B"/>
  <outline>
    <contour>
      <point x="249" y="506" type="curve" smooth="yes"/>
      <point x="249" y="516"/>
      <point x="260" y="523"/>
      <point x="260" y="523" type="curve"/>
      <point x="330" y="577"/>
      <point x="373" y="611"/>
      <point x="373" y="713" type="curve" smooth="yes"/>
      <point x="373" y="1004" type="line" smooth="yes"/>
      <point x="373" y="1065"/>
      <point x="383" y="1111"/>
      <point x="477" y="1142" type="curve" smooth="yes"/>
      <point x="493" y="1147"/>
      <point x="529" y="1158"/>
      <point x="547" y="1166" type="curve" smooth="yes"/>
      <point x="557" y="1172"/>
      <point x="577" y="1192"/>
      <point x="585" y="1201" type="curve" smooth="yes"/>
      <point x="602" y="1224"/>
      <point x="611" y="1235"/>
      <point x="626" y="1260" type="curve" smooth="yes"/>
      <point x="627" y="1264"/>
      <point x="634" y="1274"/>
      <point x="634" y="1279" type="curve" smooth="yes"/>
      <point x="634" y="1286"/>
      <point x="629" y="1291"/>
      <point x="620" y="1291" type="curve" smooth="yes"/>
      <point x="617" y="1291"/>
      <point x="588" y="1285"/>
      <point x="570" y="1283" type="curve" smooth="yes"/>
      <point x="536" y="1279"/>
      <point x="421" y="1257"/>
      <point x="387" y="1242" type="curve" smooth="yes"/>
      <point x="238" y="1183"/>
      <point x="195" y="1098"/>
      <point x="195" y="930" type="curve" smooth="yes"/>
      <point x="195" y="672" type="line" smooth="yes"/>
      <point x="195" y="613"/>
      <point x="195" y="571"/>
      <point x="116" y="536" type="curve" smooth="yes"/>
      <point x="102" y="529"/>
      <point x="97" y="516"/>
      <point x="97" y="506" type="curve" smooth="yes"/>
      <point x="97" y="493"/>
      <point x="102" y="484"/>
      <point x="116" y="477" type="curve" smooth="yes"/>
      <point x="195" y="441"/>
      <point x="195" y="398"/>
      <point x="195" y="339" type="curve" smooth="yes"/>
      <point x="195" y="55" type="line" smooth="yes"/>
      <point x="195" y="-113"/>
      <point x="240" y="-195"/>
      <point x="387" y="-256" type="curve" smooth="yes"/>
      <point x="417" y="-269"/>
      <point x="484" y="-279"/>
      <point x="496" y="-279" type="curve" smooth="yes"/>
      <point x="506" y="-279"/>
      <point x="515" y="-277"/>
      <point x="525" y="-274" type="curve" smooth="yes"/>
      <point x="566" y="-260"/>
      <point x="600" y="-246"/>
      <point x="617" y="-236" type="curve" smooth="yes"/>
      <point x="629" y="-229"/>
      <point x="633" y="-226"/>
      <point x="633" y="-221" type="curve" smooth="yes"/>
      <point x="633" y="-214"/>
      <point x="626" y="-207"/>
      <point x="611" y="-200" type="curve" smooth="yes"/>
      <point x="462" y="-140" type="line" smooth="yes"/>
      <point x="385" y="-108"/>
      <point x="373" y="-53"/>
      <point x="373" y="4" type="curve" smooth="yes"/>
      <point x="373" y="298" type="line" smooth="yes"/>
      <point x="373" y="400"/>
      <point x="330" y="434"/>
      <point x="260" y="487" type="curve"/>
      <point x="260" y="487"/>
      <point x="249" y="493"/>
    </contour>
  </outline>
</glyph>
<glyph name="verticalbar" format="1">
  <advance width="585"/>
  <unicode hex="007C"/>
  <outline>
    <contour>
      <point x="325" y="-53" type="line" smooth="yes"/>
      <point x="342" y="-53"/>
      <point x="353" y="-41"/>
      <point x="353" y="-25" type="curve" smooth="yes"/>
      <point x="357" y="229"/>
      <point x="359" y="368"/>
      <point x="359" y="520" type="curve" smooth="yes"/>
      <point x="359" y="672"/>
      <point x="355" y="819"/>
      <point x="353" y="1014" type="curve" smooth="yes"/>
      <point x="353" y="1031"/>
      <point x="342" y="1043"/>
      <point x="325" y="1043" type="curve" smooth="yes"/>
      <point x="258" y="1043" type="line" smooth="yes"/>
      <point x="240" y="1043"/>
      <point x="229" y="1031"/>
      <point x="229" y="1012" type="curve" smooth="yes"/>
      <point x="226" y="821"/>
      <point x="224" y="672"/>
      <point x="224" y="520" type="curve" smooth="yes"/>
      <point x="224" y="368"/>
      <point x="228" y="208"/>
      <point x="229" y="-24" type="curve" smooth="yes"/>
      <point x="229" y="-41"/>
      <point x="240" y="-53"/>
      <point x="258" y="-53" type="curve" smooth="yes"/>
    </contour>
  </outline>
</glyph>
<glyph name="braceright" format="1">
  <advance width="732"/>
  <unicode hex="007D"/>
  <outline>
    <contour>
      <point x="486" y="506" type="curve" smooth="yes"/>
      <point x="486" y="494"/>
      <point x="475" y="487"/>
      <point x="475" y="487" type="curve"/>
      <point x="405" y="434"/>
      <point x="362" y="400"/>
      <point x="362" y="298" type="curve" smooth="yes"/>
      <point x="362" y="7" type="line" smooth="yes"/>
      <point x="362" y="-53"/>
      <point x="351" y="-101"/>
      <point x="258" y="-131" type="curve" smooth="yes"/>
      <point x="242" y="-137"/>
      <point x="207" y="-147"/>
      <point x="188" y="-156" type="curve" smooth="yes"/>
      <point x="178" y="-161"/>
      <point x="158" y="-181"/>
      <point x="151" y="-190" type="curve" smooth="yes"/>
      <point x="133" y="-214"/>
      <point x="123" y="-224"/>
      <point x="109" y="-249" type="curve" smooth="yes"/>
      <point x="108" y="-253"/>
      <point x="101" y="-263"/>
      <point x="101" y="-269" type="curve" smooth="yes"/>
      <point x="101" y="-276"/>
      <point x="106" y="-279"/>
      <point x="115" y="-279" type="curve" smooth="yes"/>
      <point x="118" y="-279"/>
      <point x="147" y="-274"/>
      <point x="165" y="-272" type="curve" smooth="yes"/>
      <point x="199" y="-269"/>
      <point x="313" y="-246"/>
      <point x="347" y="-231" type="curve" smooth="yes"/>
      <point x="496" y="-172"/>
      <point x="539" y="-88"/>
      <point x="539" y="81" type="curve" smooth="yes"/>
      <point x="539" y="339" type="line" smooth="yes"/>
      <point x="539" y="398"/>
      <point x="539" y="439"/>
      <point x="619" y="475" type="curve" smooth="yes"/>
      <point x="633" y="482"/>
      <point x="638" y="494"/>
      <point x="638" y="506" type="curve" smooth="yes"/>
      <point x="638" y="518"/>
      <point x="633" y="527"/>
      <point x="619" y="534" type="curve" smooth="yes"/>
      <point x="539" y="570"/>
      <point x="539" y="613"/>
      <point x="539" y="672" type="curve" smooth="yes"/>
      <point x="539" y="956" type="line" smooth="yes"/>
      <point x="539" y="1124"/>
      <point x="494" y="1206"/>
      <point x="347" y="1267" type="curve" smooth="yes"/>
      <point x="317" y="1279"/>
      <point x="251" y="1291"/>
      <point x="238" y="1291" type="curve" smooth="yes"/>
      <point x="229" y="1291"/>
      <point x="221" y="1289"/>
      <point x="210" y="1285" type="curve" smooth="yes"/>
      <point x="169" y="1271"/>
      <point x="135" y="1257"/>
      <point x="118" y="1247" type="curve" smooth="yes"/>
      <point x="106" y="1240"/>
      <point x="102" y="1236"/>
      <point x="102" y="1231" type="curve" smooth="yes"/>
      <point x="102" y="1224"/>
      <point x="109" y="1217"/>
      <point x="123" y="1211" type="curve" smooth="yes"/>
      <point x="272" y="1151" type="line" smooth="yes"/>
      <point x="349" y="1118"/>
      <point x="362" y="1065"/>
      <point x="362" y="1007" type="curve" smooth="yes"/>
      <point x="362" y="713" type="line" smooth="yes"/>
      <point x="362" y="611"/>
      <point x="405" y="577"/>
      <point x="475" y="523" type="curve"/>
      <point x="475" y="523"/>
      <point x="486" y="518"/>
    </contour>
  </outline>
</glyph>
<glyph name="sterling" format="1">
  <advance width="1018"/>
  <unicode hex="00A3"/>
  <outline>
    <contour>
      <point x="844" y="1332" type="curve" smooth="yes"/>
      <point x="792" y="1366"/>
      <point x="724" y="1396"/>
      <point x="631" y="1396" type="curve" smooth="yes"/>
      <point x="545" y="1396"/>
      <point x="468" y="1364"/>
      <point x="400" y="1310" type="curve" smooth="yes"/>
      <point x="321" y="1247"/>
      <point x="251" y="1166"/>
      <point x="217" y="1100" type="curve" smooth="yes"/>
      <point x="195" y="1061"/>
      <point x="176" y="1016"/>
      <point x="176" y="954" type="curve" smooth="yes"/>
      <point x="176" y="932"/>
      <point x="179" y="901"/>
      <point x="204" y="810" type="curve"/>
      <point x="204" y="809"/>
      <point x="208" y="799"/>
      <point x="208" y="794" type="curve" smooth="yes"/>
      <point x="208" y="776"/>
      <point x="104" y="670"/>
      <point x="104" y="634" type="curve" smooth="yes"/>
      <point x="104" y="624"/>
      <point x="111" y="619"/>
      <point x="122" y="619" type="curve" smooth="yes"/>
      <point x="236" y="619" type="line" smooth="yes"/>
      <point x="260" y="619"/>
      <point x="282" y="484"/>
      <point x="289" y="438" type="curve" smooth="yes"/>
      <point x="294" y="405"/>
      <point x="298" y="375"/>
      <point x="298" y="353" type="curve" smooth="yes"/>
      <point x="298" y="269"/>
      <point x="219" y="248"/>
      <point x="179" y="204" type="curve" smooth="yes"/>
      <point x="133" y="154"/>
      <point x="88" y="32"/>
      <point x="88" y="27" type="curve" smooth="yes"/>
      <point x="88" y="11"/>
      <point x="97" y="4"/>
      <point x="109" y="4" type="curve" smooth="yes"/>
      <point x="149" y="4"/>
      <point x="212" y="12"/>
      <point x="255" y="12" type="curve" smooth="yes"/>
      <point x="364" y="12"/>
      <point x="516" y="-29"/>
      <point x="629" y="-29" type="curve" smooth="yes"/>
      <point x="737" y="-29"/>
      <point x="812" y="7"/>
      <point x="830" y="32" type="curve" smooth="yes"/>
      <point x="867" y="84"/>
      <point x="918" y="163"/>
      <point x="951" y="231" type="curve" smooth="yes"/>
      <point x="957" y="242"/>
      <point x="957" y="249"/>
      <point x="957" y="256" type="curve" smooth="yes"/>
      <point x="957" y="263"/>
      <point x="954" y="267"/>
      <point x="944" y="267" type="curve" smooth="yes"/>
      <point x="934" y="267"/>
      <point x="865" y="210"/>
      <point x="720" y="210" type="curve" smooth="yes"/>
      <point x="670" y="210"/>
      <point x="432" y="244"/>
      <point x="432" y="246" type="curve" smooth="yes"/>
      <point x="432" y="270"/>
      <point x="506" y="385"/>
      <point x="506" y="466" type="curve" smooth="yes"/>
      <point x="506" y="511"/>
      <point x="480" y="607"/>
      <point x="480" y="611" type="curve" smooth="yes"/>
      <point x="480" y="617"/>
      <point x="484" y="620"/>
      <point x="489" y="620" type="curve" smooth="yes"/>
      <point x="611" y="626" type="line" smooth="yes"/>
      <point x="647" y="627"/>
      <point x="681" y="640"/>
      <point x="710" y="663" type="curve" smooth="yes"/>
      <point x="747" y="694"/>
      <point x="774" y="722"/>
      <point x="810" y="763" type="curve" smooth="yes"/>
      <point x="816" y="771"/>
      <point x="823" y="781"/>
      <point x="823" y="788" type="curve" smooth="yes"/>
      <point x="823" y="801"/>
      <point x="810" y="809"/>
      <point x="794" y="809" type="curve" smooth="yes"/>
      <point x="450" y="809" type="line"/>
      <point x="448" y="809"/>
      <point x="438" y="809"/>
      <point x="436" y="817" type="curve"/>
      <point x="436" y="817"/>
      <point x="383" y="998"/>
      <point x="383" y="1067" type="curve" smooth="yes"/>
      <point x="383" y="1134"/>
      <point x="426" y="1187"/>
      <point x="501" y="1187" type="curve" smooth="yes"/>
      <point x="559" y="1187"/>
      <point x="611" y="1170"/>
      <point x="701" y="1125" type="curve" smooth="yes"/>
      <point x="711" y="1120"/>
      <point x="720" y="1118"/>
      <point x="727" y="1118" type="curve" smooth="yes"/>
      <point x="737" y="1118"/>
      <point x="744" y="1124"/>
      <point x="754" y="1138" type="curve" smooth="yes"/>
      <point x="788" y="1185"/>
      <point x="843" y="1264"/>
      <point x="850" y="1276" type="curve" smooth="yes"/>
      <point x="857" y="1289"/>
      <point x="858" y="1298"/>
      <point x="858" y="1305" type="curve" smooth="yes"/>
      <point x="858" y="1313"/>
      <point x="857" y="1322"/>
    </contour>
  </outline>
</glyph>
<glyph name="currency" format="1">
  <advance width="1147"/>
  <unicode hex="00A4"/>
  <outline>
    <contour>
      <point x="537" y="142" type="curve" smooth="yes"/>
      <point x="619" y="142"/>
      <point x="699" y="163"/>
      <point x="763" y="214" type="curve"/>
      <point x="819" y="156"/>
      <point x="879" y="95"/>
      <point x="879" y="95" type="curve"/>
      <point x="886" y="86"/>
      <point x="893" y="82"/>
      <point x="907" y="97" type="curve" smooth="yes"/>
      <point x="970" y="159" type="line" smooth="yes"/>
      <point x="978" y="169"/>
      <point x="982" y="178"/>
      <point x="970" y="190" type="curve"/>
      <point x="970" y="190"/>
      <point x="907" y="249"/>
      <point x="851" y="303" type="curve"/>
      <point x="896" y="364"/>
      <point x="921" y="438"/>
      <point x="921" y="509" type="curve" smooth="yes"/>
      <point x="921" y="583"/>
      <point x="905" y="645"/>
      <point x="874" y="697" type="curve"/>
      <point x="970" y="788" type="line" smooth="yes"/>
      <point x="982" y="801"/>
      <point x="978" y="810"/>
      <point x="970" y="819" type="curve" smooth="yes"/>
      <point x="907" y="882" type="line" smooth="yes"/>
      <point x="893" y="896"/>
      <point x="886" y="893"/>
      <point x="879" y="884" type="curve"/>
      <point x="879" y="884"/>
      <point x="835" y="837"/>
      <point x="787" y="788" type="curve"/>
      <point x="740" y="823"/>
      <point x="684" y="843"/>
      <point x="626" y="843" type="curve" smooth="yes"/>
      <point x="532" y="843"/>
      <point x="448" y="814"/>
      <point x="383" y="765" type="curve"/>
      <point x="330" y="823"/>
      <point x="269" y="884"/>
      <point x="269" y="884" type="curve"/>
      <point x="262" y="893"/>
      <point x="255" y="896"/>
      <point x="240" y="882" type="curve" smooth="yes"/>
      <point x="178" y="819" type="line" smooth="yes"/>
      <point x="169" y="810"/>
      <point x="165" y="801"/>
      <point x="178" y="788" type="curve"/>
      <point x="178" y="788"/>
      <point x="242" y="727"/>
      <point x="299" y="672" type="curve"/>
      <point x="260" y="611"/>
      <point x="236" y="536"/>
      <point x="236" y="457" type="curve" smooth="yes"/>
      <point x="236" y="398"/>
      <point x="255" y="340"/>
      <point x="284" y="292" type="curve"/>
      <point x="233" y="242"/>
      <point x="178" y="190"/>
      <point x="178" y="190" type="curve"/>
      <point x="165" y="178"/>
      <point x="169" y="169"/>
      <point x="178" y="159" type="curve" smooth="yes"/>
      <point x="240" y="97" type="line" smooth="yes"/>
      <point x="255" y="82"/>
      <point x="262" y="86"/>
      <point x="269" y="95" type="curve"/>
      <point x="269" y="95"/>
      <point x="319" y="147"/>
      <point x="371" y="199" type="curve"/>
      <point x="419" y="166"/>
      <point x="477" y="142"/>
    </contour>
    <contour>
      <point x="380" y="506" type="curve" smooth="yes"/>
      <point x="380" y="607"/>
      <point x="439" y="715"/>
      <point x="545" y="715" type="curve" smooth="yes"/>
      <point x="692" y="715"/>
      <point x="771" y="600"/>
      <point x="771" y="470" type="curve" smooth="yes"/>
      <point x="771" y="371"/>
      <point x="710" y="279"/>
      <point x="611" y="279" type="curve" smooth="yes"/>
      <point x="455" y="279"/>
      <point x="380" y="366"/>
    </contour>
  </outline>
</glyph>
<glyph name="section" format="1">
  <advance width="867"/>
  <unicode hex="00A7"/>
  <outline>
    <contour>
      <point x="188" y="-93" type="curve"/>
      <point x="186" y="-89"/>
      <point x="181" y="-88"/>
      <point x="179" y="-88" type="curve" smooth="yes"/>
      <point x="174" y="-88"/>
      <point x="171" y="-93"/>
      <point x="166" y="-101" type="curve" smooth="yes"/>
      <point x="149" y="-135"/>
      <point x="118" y="-200"/>
      <point x="111" y="-219" type="curve" smooth="yes"/>
      <point x="108" y="-228"/>
      <point x="106" y="-233"/>
      <point x="106" y="-238" type="curve" smooth="yes"/>
      <point x="106" y="-244"/>
      <point x="108" y="-248"/>
      <point x="115" y="-253" type="curve" smooth="yes"/>
      <point x="169" y="-292"/>
      <point x="274" y="-317"/>
      <point x="347" y="-317" type="curve" smooth="yes"/>
      <point x="472" y="-317"/>
      <point x="599" y="-210"/>
      <point x="674" y="-116" type="curve" smooth="yes"/>
      <point x="711" y="-72"/>
      <point x="733" y="-5"/>
      <point x="733" y="48" type="curve" smooth="yes"/>
      <point x="733" y="129"/>
      <point x="692" y="183"/>
      <point x="611" y="228" type="curve"/>
      <point x="670" y="267"/>
      <point x="704" y="308"/>
      <point x="739" y="353" type="curve"/>
      <point x="778" y="396"/>
      <point x="795" y="464"/>
      <point x="795" y="515" type="curve" smooth="yes"/>
      <point x="795" y="617"/>
      <point x="720" y="674"/>
      <point x="634" y="706" type="curve" smooth="yes"/>
      <point x="559" y="735"/>
      <point x="482" y="763"/>
      <point x="409" y="794" type="curve" smooth="yes"/>
      <point x="362" y="812"/>
      <point x="312" y="837"/>
      <point x="312" y="894" type="curve" smooth="yes"/>
      <point x="312" y="1002"/>
      <point x="357" y="1059"/>
      <point x="466" y="1059" type="curve" smooth="yes"/>
      <point x="554" y="1059"/>
      <point x="613" y="1029"/>
      <point x="683" y="982" type="curve" smooth="yes"/>
      <point x="688" y="978"/>
      <point x="696" y="973"/>
      <point x="699" y="973" type="curve" smooth="yes"/>
      <point x="706" y="973"/>
      <point x="710" y="980"/>
      <point x="713" y="989" type="curve" smooth="yes"/>
      <point x="725" y="1019"/>
      <point x="742" y="1081"/>
      <point x="751" y="1110" type="curve" smooth="yes"/>
      <point x="754" y="1124"/>
      <point x="754" y="1127"/>
      <point x="754" y="1129" type="curve" smooth="yes"/>
      <point x="754" y="1134"/>
      <point x="751" y="1138"/>
      <point x="742" y="1142" type="curve"/>
      <point x="722" y="1154"/>
      <point x="622" y="1180"/>
      <point x="575" y="1180" type="curve" smooth="yes"/>
      <point x="532" y="1180"/>
      <point x="491" y="1172"/>
      <point x="453" y="1159" type="curve"/>
      <point x="319" y="1098"/>
      <point x="174" y="980"/>
      <point x="174" y="821" type="curve" smooth="yes"/>
      <point x="174" y="749"/>
      <point x="200" y="686"/>
      <point x="272" y="655" type="curve" smooth="yes"/>
      <point x="296" y="645" type="line"/>
      <point x="190" y="575"/>
      <point x="111" y="480"/>
      <point x="111" y="355" type="curve" smooth="yes"/>
      <point x="111" y="284"/>
      <point x="149" y="217"/>
      <point x="219" y="183" type="curve"/>
      <point x="312" y="151"/>
      <point x="407" y="120"/>
      <point x="491" y="81" type="curve" smooth="yes"/>
      <point x="552" y="52"/>
      <point x="586" y="14"/>
      <point x="586" y="-50" type="curve" smooth="yes"/>
      <point x="586" y="-93"/>
      <point x="577" y="-133"/>
      <point x="536" y="-158" type="curve"/>
      <point x="520" y="-171"/>
      <point x="479" y="-185"/>
      <point x="455" y="-185" type="curve" smooth="yes"/>
      <point x="364" y="-185"/>
      <point x="253" y="-156"/>
    </contour>
    <contour>
      <point x="561" y="545" type="line"/>
      <point x="617" y="509"/>
      <point x="650" y="475"/>
      <point x="650" y="416" type="curve" smooth="yes"/>
      <point x="650" y="373"/>
      <point x="636" y="333"/>
      <point x="599" y="308" type="curve"/>
      <point x="568" y="296"/>
      <point x="529" y="284"/>
      <point x="494" y="284" type="curve" smooth="yes"/>
      <point x="457" y="284"/>
      <point x="417" y="294"/>
      <point x="332" y="330" type="curve" smooth="yes"/>
      <point x="287" y="347"/>
      <point x="255" y="373"/>
      <point x="255" y="428" type="curve" smooth="yes"/>
      <point x="255" y="529"/>
      <point x="301" y="590"/>
      <point x="405" y="590" type="curve" smooth="yes"/>
      <point x="428" y="590"/>
      <point x="455" y="588"/>
      <point x="480" y="583" type="curve"/>
    </contour>
  </outline>
</glyph>
<glyph name="guillemotleft" format="1">
  <advance width="724"/>
  <unicode hex="00AB"/>
  <outline>
    <contour>
      <point x="152" y="650" type="curve" smooth="yes"/>
      <point x="125" y="614"/>
      <point x="72" y="539"/>
      <point x="50" y="494" type="curve" smooth="yes"/>
      <point x="46" y="487"/>
      <point x="43" y="477"/>
      <point x="43" y="468" type="curve" smooth="yes"/>
      <point x="43" y="457"/>
      <point x="46" y="446"/>
      <point x="60" y="426" type="curve" smooth="yes"/>
      <point x="86" y="382"/>
      <point x="166" y="294"/>
      <point x="215" y="253" type="curve" smooth="yes"/>
      <point x="224" y="246"/>
      <point x="229" y="244"/>
      <point x="233" y="244" type="curve" smooth="yes"/>
      <point x="238" y="244"/>
      <point x="246" y="248"/>
      <point x="253" y="256" type="curve" smooth="yes"/>
      <point x="287" y="298"/>
      <point x="305" y="326"/>
      <point x="328" y="364" type="curve" smooth="yes"/>
      <point x="339" y="382"/>
      <point x="337" y="387"/>
      <point x="339" y="390" type="curve"/>
      <point x="339" y="402"/>
      <point x="335" y="407"/>
      <point x="332" y="410" type="curve" smooth="yes"/>
      <point x="249" y="500" type="line" smooth="yes"/>
      <point x="244" y="506"/>
      <point x="240" y="516"/>
      <point x="240" y="522" type="curve" smooth="yes"/>
      <point x="240" y="527"/>
      <point x="242" y="534"/>
      <point x="246" y="543" type="curve" smooth="yes"/>
      <point x="319" y="701" type="line" smooth="yes"/>
      <point x="323" y="708"/>
      <point x="326" y="718"/>
      <point x="326" y="724" type="curve" smooth="yes"/>
      <point x="326" y="732"/>
      <point x="321" y="737"/>
      <point x="312" y="737" type="curve" smooth="yes"/>
      <point x="308" y="737"/>
      <point x="303" y="737"/>
      <point x="296" y="733" type="curve" smooth="yes"/>
      <point x="282" y="727"/>
      <point x="214" y="696"/>
      <point x="204" y="690" type="curve" smooth="yes"/>
      <point x="192" y="683"/>
      <point x="169" y="672"/>
    </contour>
    <contour>
      <point x="491" y="650" type="curve" smooth="yes"/>
      <point x="464" y="614"/>
      <point x="410" y="539"/>
      <point x="389" y="494" type="curve" smooth="yes"/>
      <point x="385" y="487"/>
      <point x="382" y="477"/>
      <point x="382" y="468" type="curve" smooth="yes"/>
      <point x="382" y="457"/>
      <point x="385" y="446"/>
      <point x="398" y="426" type="curve" smooth="yes"/>
      <point x="424" y="382"/>
      <point x="506" y="294"/>
      <point x="554" y="253" type="curve" smooth="yes"/>
      <point x="563" y="246"/>
      <point x="568" y="244"/>
      <point x="571" y="244" type="curve" smooth="yes"/>
      <point x="577" y="244"/>
      <point x="585" y="248"/>
      <point x="592" y="256" type="curve" smooth="yes"/>
      <point x="626" y="298"/>
      <point x="643" y="326"/>
      <point x="667" y="364" type="curve" smooth="yes"/>
      <point x="677" y="382"/>
      <point x="676" y="387"/>
      <point x="677" y="390" type="curve"/>
      <point x="677" y="402"/>
      <point x="674" y="407"/>
      <point x="670" y="410" type="curve" smooth="yes"/>
      <point x="588" y="500" type="line" smooth="yes"/>
      <point x="583" y="506"/>
      <point x="579" y="516"/>
      <point x="579" y="522" type="curve" smooth="yes"/>
      <point x="579" y="527"/>
      <point x="581" y="534"/>
      <point x="585" y="543" type="curve" smooth="yes"/>
      <point x="658" y="701" type="line" smooth="yes"/>
      <point x="662" y="708"/>
      <point x="665" y="718"/>
      <point x="665" y="724" type="curve" smooth="yes"/>
      <point x="665" y="732"/>
      <point x="660" y="737"/>
      <point x="650" y="737" type="curve" smooth="yes"/>
      <point x="647" y="737"/>
      <point x="641" y="737"/>
      <point x="634" y="733" type="curve" smooth="yes"/>
      <point x="620" y="727"/>
      <point x="552" y="696"/>
      <point x="543" y="690" type="curve" smooth="yes"/>
      <point x="530" y="683"/>
      <point x="508" y="672"/>
    </contour>
  </outline>
</glyph>
<glyph name="degree" format="1">
  <advance width="539"/>
  <unicode hex="00B0"/>
  <outline>
    <contour>
      <point x="0" y="1005" type="curve"/>
      <point x="4" y="1088"/>
      <point x="43" y="1129"/>
      <point x="55" y="1149" type="curve" smooth="yes"/>
      <point x="82" y="1192"/>
      <point x="138" y="1235"/>
      <point x="200" y="1272" type="curve"/>
      <point x="222" y="1283"/>
      <point x="251" y="1291"/>
      <point x="277" y="1291" type="curve" smooth="yes"/>
      <point x="400" y="1289"/>
      <point x="468" y="1180"/>
      <point x="468" y="1089" type="curve" smooth="yes"/>
      <point x="468" y="1007"/>
      <point x="441" y="932"/>
      <point x="393" y="874" type="curve" smooth="yes"/>
      <point x="351" y="824"/>
      <point x="291" y="765"/>
      <point x="200" y="765" type="curve" smooth="yes"/>
      <point x="61" y="765"/>
      <point x="0" y="894"/>
    </contour>
    <contour>
      <point x="337" y="1007" type="curve" smooth="yes"/>
      <point x="337" y="1082"/>
      <point x="285" y="1159"/>
      <point x="204" y="1159" type="curve" smooth="yes"/>
      <point x="159" y="1159"/>
      <point x="135" y="1103"/>
      <point x="135" y="1040" type="curve" smooth="yes"/>
      <point x="135" y="971"/>
      <point x="178" y="907"/>
      <point x="233" y="907" type="curve" smooth="yes"/>
      <point x="305" y="907"/>
      <point x="337" y="937"/>
    </contour>
  </outline>
</glyph>
<glyph name="plusminus" format="1">
  <advance width="975"/>
  <unicode hex="00B1"/>
  <outline>
    <contour>
      <point x="151" y="151" type="curve"/>
      <point x="127" y="151"/>
      <point x="122" y="140"/>
      <point x="122" y="122" type="curve" smooth="yes"/>
      <point x="122" y="31" type="line" smooth="yes"/>
      <point x="122" y="14"/>
      <point x="127" y="4"/>
      <point x="151" y="4" type="curve" smooth="yes"/>
      <point x="151" y="4"/>
      <point x="402" y="9"/>
      <point x="500" y="9" type="curve" smooth="yes"/>
      <point x="583" y="9"/>
      <point x="844" y="4"/>
      <point x="844" y="4" type="curve"/>
      <point x="867" y="4"/>
      <point x="872" y="14"/>
      <point x="872" y="31" type="curve" smooth="yes"/>
      <point x="872" y="122" type="line" smooth="yes"/>
      <point x="872" y="147"/>
      <point x="858" y="151"/>
      <point x="848" y="151" type="curve" smooth="yes"/>
      <point x="848" y="151"/>
      <point x="599" y="145"/>
      <point x="496" y="145" type="curve" smooth="yes"/>
      <point x="380" y="145"/>
      <point x="151" y="151"/>
    </contour>
    <contour>
      <point x="423" y="248" type="curve"/>
      <point x="423" y="224"/>
      <point x="434" y="219"/>
      <point x="452" y="219" type="curve" smooth="yes"/>
      <point x="543" y="219" type="line" smooth="yes"/>
      <point x="559" y="219"/>
      <point x="570" y="224"/>
      <point x="570" y="248" type="curve" smooth="yes"/>
      <point x="570" y="248"/>
      <point x="566" y="409"/>
      <point x="564" y="536" type="curve"/>
      <point x="662" y="534"/>
      <point x="844" y="530"/>
      <point x="844" y="530" type="curve"/>
      <point x="867" y="530"/>
      <point x="872" y="541"/>
      <point x="872" y="557" type="curve" smooth="yes"/>
      <point x="872" y="648" type="line" smooth="yes"/>
      <point x="872" y="674"/>
      <point x="864" y="677"/>
      <point x="848" y="677" type="curve" smooth="yes"/>
      <point x="848" y="677"/>
      <point x="676" y="672"/>
      <point x="564" y="672" type="curve"/>
      <point x="564" y="773"/>
      <point x="570" y="949"/>
      <point x="570" y="949" type="curve"/>
      <point x="570" y="973"/>
      <point x="559" y="978"/>
      <point x="543" y="978" type="curve" smooth="yes"/>
      <point x="452" y="978" type="line" smooth="yes"/>
      <point x="426" y="978"/>
      <point x="423" y="964"/>
      <point x="423" y="954" type="curve" smooth="yes"/>
      <point x="423" y="954"/>
      <point x="426" y="785"/>
      <point x="428" y="672" type="curve"/>
      <point x="299" y="674"/>
      <point x="151" y="677"/>
      <point x="151" y="677" type="curve"/>
      <point x="127" y="677"/>
      <point x="122" y="667"/>
      <point x="122" y="648" type="curve" smooth="yes"/>
      <point x="122" y="557" type="line" smooth="yes"/>
      <point x="122" y="541"/>
      <point x="127" y="530"/>
      <point x="151" y="530" type="curve" smooth="yes"/>
      <point x="151" y="530"/>
      <point x="303" y="534"/>
      <point x="428" y="536" type="curve"/>
      <point x="426" y="405"/>
      <point x="423" y="248"/>
    </contour>
  </outline>
</glyph>
<glyph name="paragraph" format="1">
  <advance width="1082"/>
  <unicode hex="00B6"/>
  <outline>
    <contour>
      <point x="1002" y="1110" type="curve" smooth="yes"/>
      <point x="1007" y="1115"/>
      <point x="1011" y="1120"/>
      <point x="1011" y="1124" type="curve" smooth="yes"/>
      <point x="1011" y="1127"/>
      <point x="1007" y="1131"/>
      <point x="1004" y="1132" type="curve"/>
      <point x="853" y="1161"/>
      <point x="667" y="1178"/>
      <point x="566" y="1178" type="curve" smooth="yes"/>
      <point x="472" y="1178"/>
      <point x="355" y="1129"/>
      <point x="274" y="1072" type="curve" smooth="yes"/>
      <point x="165" y="993"/>
      <point x="106" y="865"/>
      <point x="106" y="774" type="curve" smooth="yes"/>
      <point x="106" y="609"/>
      <point x="208" y="475"/>
      <point x="366" y="409" type="curve" smooth="yes"/>
      <point x="376" y="405"/>
      <point x="390" y="402"/>
      <point x="400" y="402" type="curve" smooth="yes"/>
      <point x="416" y="402"/>
      <point x="423" y="409"/>
      <point x="434" y="421" type="curve" smooth="yes"/>
      <point x="457" y="448"/>
      <point x="503" y="513"/>
      <point x="539" y="563" type="curve" smooth="yes"/>
      <point x="549" y="575"/>
      <point x="552" y="581"/>
      <point x="552" y="585" type="curve" smooth="yes"/>
      <point x="552" y="597"/>
      <point x="529" y="597"/>
      <point x="509" y="597" type="curve" smooth="yes"/>
      <point x="395" y="597"/>
      <point x="299" y="686"/>
      <point x="299" y="812" type="curve" smooth="yes"/>
      <point x="299" y="959"/>
      <point x="375" y="1052"/>
      <point x="473" y="1052" type="curve" smooth="yes"/>
      <point x="520" y="1052"/>
      <point x="568" y="1047"/>
      <point x="609" y="1041" type="curve" smooth="yes"/>
      <point x="619" y="1040"/>
      <point x="624" y="1033"/>
      <point x="624" y="1027" type="curve" smooth="yes"/>
      <point x="626" y="946"/>
      <point x="626" y="871"/>
      <point x="626" y="776" type="curve" smooth="yes"/>
      <point x="626" y="210" type="line" smooth="yes"/>
      <point x="626" y="79"/>
      <point x="622" y="-39"/>
      <point x="622" y="-135" type="curve" smooth="yes"/>
      <point x="622" y="-221"/>
      <point x="571" y="-346"/>
      <point x="571" y="-355" type="curve" smooth="yes"/>
      <point x="571" y="-364"/>
      <point x="575" y="-371"/>
      <point x="585" y="-371" type="curve" smooth="yes"/>
      <point x="590" y="-371"/>
      <point x="597" y="-369"/>
      <point x="606" y="-362" type="curve" smooth="yes"/>
      <point x="660" y="-319"/>
      <point x="694" y="-291"/>
      <point x="718" y="-255" type="curve" smooth="yes"/>
      <point x="744" y="-219"/>
      <point x="744" y="-199"/>
      <point x="744" y="-169" type="curve" smooth="yes"/>
      <point x="744" y="-161"/>
      <point x="740" y="-125"/>
      <point x="740" y="-88" type="curve" smooth="yes"/>
      <point x="740" y="1018" type="line" smooth="yes"/>
      <point x="740" y="1025"/>
      <point x="744" y="1025"/>
      <point x="749" y="1025" type="curve" smooth="yes"/>
      <point x="763" y="1023"/>
      <point x="826" y="1019"/>
      <point x="833" y="1016" type="curve" smooth="yes"/>
      <point x="837" y="1014"/>
      <point x="841" y="1011"/>
      <point x="841" y="1000" type="curve" smooth="yes"/>
      <point x="841" y="-43" type="line" smooth="yes"/>
      <point x="841" y="-104"/>
      <point x="837" y="-135"/>
      <point x="837" y="-165" type="curve" smooth="yes"/>
      <point x="837" y="-174"/>
      <point x="843" y="-178"/>
      <point x="848" y="-178" type="curve" smooth="yes"/>
      <point x="853" y="-178"/>
      <point x="858" y="-172"/>
      <point x="867" y="-165" type="curve" smooth="yes"/>
      <point x="887" y="-149"/>
      <point x="923" y="-115"/>
      <point x="948" y="-89" type="curve" smooth="yes"/>
      <point x="954" y="-84"/>
      <point x="957" y="-65"/>
      <point x="957" y="-50" type="curve" smooth="yes"/>
      <point x="957" y="-36"/>
      <point x="956" y="43"/>
      <point x="956" y="55" type="curve" smooth="yes"/>
      <point x="956" y="971" type="line" smooth="yes"/>
      <point x="956" y="1041"/>
      <point x="985" y="1093"/>
    </contour>
  </outline>
</glyph>
<glyph name="guillemotright" format="1">
  <advance width="724"/>
  <unicode hex="00BB"/>
  <outline>
    <contour>
      <point x="568" y="330" type="curve" smooth="yes"/>
      <point x="595" y="366"/>
      <point x="648" y="441"/>
      <point x="670" y="486" type="curve" smooth="yes"/>
      <point x="674" y="493"/>
      <point x="677" y="503"/>
      <point x="677" y="513" type="curve" smooth="yes"/>
      <point x="677" y="523"/>
      <point x="674" y="534"/>
      <point x="662" y="554" type="curve" smooth="yes"/>
      <point x="634" y="599"/>
      <point x="554" y="686"/>
      <point x="506" y="727" type="curve" smooth="yes"/>
      <point x="496" y="735"/>
      <point x="491" y="737"/>
      <point x="487" y="737" type="curve" smooth="yes"/>
      <point x="482" y="737"/>
      <point x="475" y="733"/>
      <point x="468" y="724" type="curve" smooth="yes"/>
      <point x="434" y="683"/>
      <point x="416" y="655"/>
      <point x="393" y="617" type="curve" smooth="yes"/>
      <point x="382" y="599"/>
      <point x="383" y="593"/>
      <point x="382" y="590" type="curve"/>
      <point x="382" y="579"/>
      <point x="385" y="573"/>
      <point x="389" y="570" type="curve" smooth="yes"/>
      <point x="472" y="480" type="line" smooth="yes"/>
      <point x="477" y="475"/>
      <point x="480" y="464"/>
      <point x="480" y="459" type="curve" smooth="yes"/>
      <point x="480" y="453"/>
      <point x="479" y="446"/>
      <point x="475" y="438" type="curve" smooth="yes"/>
      <point x="402" y="279" type="line" smooth="yes"/>
      <point x="398" y="272"/>
      <point x="395" y="262"/>
      <point x="395" y="256" type="curve" smooth="yes"/>
      <point x="395" y="249"/>
      <point x="400" y="244"/>
      <point x="409" y="244" type="curve" smooth="yes"/>
      <point x="412" y="244"/>
      <point x="417" y="244"/>
      <point x="424" y="248" type="curve" smooth="yes"/>
      <point x="439" y="253"/>
      <point x="508" y="285"/>
      <point x="516" y="291" type="curve" smooth="yes"/>
      <point x="529" y="298"/>
      <point x="552" y="308"/>
    </contour>
    <contour>
      <point x="229" y="330" type="curve" smooth="yes"/>
      <point x="256" y="366"/>
      <point x="310" y="441"/>
      <point x="332" y="486" type="curve" smooth="yes"/>
      <point x="335" y="493"/>
      <point x="339" y="503"/>
      <point x="339" y="513" type="curve" smooth="yes"/>
      <point x="339" y="523"/>
      <point x="335" y="534"/>
      <point x="323" y="554" type="curve" smooth="yes"/>
      <point x="296" y="599"/>
      <point x="215" y="686"/>
      <point x="166" y="727" type="curve" smooth="yes"/>
      <point x="158" y="735"/>
      <point x="152" y="737"/>
      <point x="149" y="737" type="curve" smooth="yes"/>
      <point x="144" y="737"/>
      <point x="137" y="733"/>
      <point x="129" y="724" type="curve" smooth="yes"/>
      <point x="95" y="683"/>
      <point x="77" y="655"/>
      <point x="53" y="617" type="curve" smooth="yes"/>
      <point x="43" y="599"/>
      <point x="45" y="593"/>
      <point x="43" y="590" type="curve"/>
      <point x="43" y="579"/>
      <point x="46" y="573"/>
      <point x="50" y="570" type="curve" smooth="yes"/>
      <point x="133" y="480" type="line" smooth="yes"/>
      <point x="138" y="475"/>
      <point x="142" y="464"/>
      <point x="142" y="459" type="curve" smooth="yes"/>
      <point x="142" y="453"/>
      <point x="140" y="446"/>
      <point x="137" y="438" type="curve" smooth="yes"/>
      <point x="63" y="279" type="line" smooth="yes"/>
      <point x="60" y="272"/>
      <point x="55" y="262"/>
      <point x="55" y="256" type="curve" smooth="yes"/>
      <point x="55" y="249"/>
      <point x="61" y="244"/>
      <point x="70" y="244" type="curve" smooth="yes"/>
      <point x="74" y="244"/>
      <point x="79" y="244"/>
      <point x="86" y="248" type="curve" smooth="yes"/>
      <point x="101" y="253"/>
      <point x="169" y="285"/>
      <point x="178" y="291" type="curve" smooth="yes"/>
      <point x="190" y="298"/>
      <point x="214" y="308"/>
    </contour>
  </outline>
</glyph>
<glyph name="multiply" format="1">
  <advance width="975"/>
  <unicode hex="00D7"/>
  <outline>
    <contour>
      <point x="111" y="279" type="curve"/>
      <point x="104" y="272"/>
      <point x="101" y="265"/>
      <point x="101" y="260" type="curve" smooth="yes"/>
      <point x="101" y="253"/>
      <point x="104" y="248"/>
      <point x="111" y="240" type="curve" smooth="yes"/>
      <point x="176" y="176" type="line" smooth="yes"/>
      <point x="181" y="171"/>
      <point x="186" y="166"/>
      <point x="193" y="166" type="curve" smooth="yes"/>
      <point x="199" y="166"/>
      <point x="207" y="171"/>
      <point x="215" y="178" type="curve"/>
      <point x="215" y="178"/>
      <point x="412" y="375"/>
      <point x="500" y="466" type="curve"/>
      <point x="579" y="383"/>
      <point x="778" y="185"/>
      <point x="778" y="185" type="curve"/>
      <point x="785" y="176"/>
      <point x="792" y="174"/>
      <point x="797" y="174" type="curve" smooth="yes"/>
      <point x="805" y="174"/>
      <point x="812" y="178"/>
      <point x="819" y="185" type="curve" smooth="yes"/>
      <point x="884" y="248" type="line" smooth="yes"/>
      <point x="891" y="255"/>
      <point x="894" y="262"/>
      <point x="894" y="269" type="curve" smooth="yes"/>
      <point x="894" y="274"/>
      <point x="891" y="279"/>
      <point x="884" y="287" type="curve"/>
      <point x="884" y="287"/>
      <point x="681" y="479"/>
      <point x="597" y="563" type="curve"/>
      <point x="667" y="631"/>
      <point x="872" y="835"/>
      <point x="872" y="835" type="curve"/>
      <point x="880" y="843"/>
      <point x="884" y="850"/>
      <point x="884" y="855" type="curve" smooth="yes"/>
      <point x="884" y="862"/>
      <point x="880" y="867"/>
      <point x="874" y="874" type="curve" smooth="yes"/>
      <point x="810" y="939" type="line" smooth="yes"/>
      <point x="801" y="948"/>
      <point x="794" y="949"/>
      <point x="788" y="949" type="curve" smooth="yes"/>
      <point x="781" y="949"/>
      <point x="776" y="946"/>
      <point x="773" y="941" type="curve"/>
      <point x="773" y="941"/>
      <point x="579" y="739"/>
      <point x="500" y="660" type="curve"/>
      <point x="421" y="740"/>
      <point x="233" y="937"/>
      <point x="233" y="937" type="curve"/>
      <point x="226" y="944"/>
      <point x="219" y="948"/>
      <point x="214" y="948" type="curve" smooth="yes"/>
      <point x="207" y="948"/>
      <point x="199" y="944"/>
      <point x="192" y="937" type="curve" smooth="yes"/>
      <point x="129" y="872" type="line"/>
      <point x="120" y="865"/>
      <point x="118" y="858"/>
      <point x="118" y="851" type="curve" smooth="yes"/>
      <point x="118" y="846"/>
      <point x="122" y="838"/>
      <point x="127" y="833" type="curve"/>
      <point x="127" y="833"/>
      <point x="319" y="645"/>
      <point x="403" y="563" type="curve"/>
      <point x="312" y="473"/>
      <point x="111" y="279"/>
    </contour>
  </outline>
</glyph>
<glyph name="divide" format="1">
  <advance width="975"/>
  <unicode hex="00F7"/>
  <outline>
    <contour>
      <point x="590" y="835" type="curve" smooth="yes"/>
      <point x="590" y="884"/>
      <point x="549" y="923"/>
      <point x="501" y="923" type="curve" smooth="yes"/>
      <point x="452" y="923"/>
      <point x="412" y="884"/>
      <point x="412" y="835" type="curve" smooth="yes"/>
      <point x="412" y="788"/>
      <point x="452" y="749"/>
      <point x="501" y="749" type="curve" smooth="yes"/>
      <point x="549" y="749"/>
      <point x="590" y="788"/>
    </contour>
    <contour>
      <point x="588" y="298" type="curve" smooth="yes"/>
      <point x="588" y="346"/>
      <point x="547" y="385"/>
      <point x="500" y="385" type="curve" smooth="yes"/>
      <point x="450" y="385"/>
      <point x="410" y="346"/>
      <point x="410" y="298" type="curve" smooth="yes"/>
      <point x="410" y="251"/>
      <point x="450" y="212"/>
      <point x="500" y="212" type="curve" smooth="yes"/>
      <point x="547" y="212"/>
      <point x="588" y="251"/>
    </contour>
    <contour>
      <point x="137" y="645" type="curve"/>
      <point x="113" y="645"/>
      <point x="108" y="634"/>
      <point x="108" y="617" type="curve" smooth="yes"/>
      <point x="108" y="525" type="line" smooth="yes"/>
      <point x="108" y="509"/>
      <point x="113" y="498"/>
      <point x="137" y="498" type="curve" smooth="yes"/>
      <point x="137" y="498"/>
      <point x="432" y="503"/>
      <point x="530" y="503" type="curve" smooth="yes"/>
      <point x="613" y="503"/>
      <point x="860" y="498"/>
      <point x="860" y="498" type="curve"/>
      <point x="884" y="498"/>
      <point x="889" y="509"/>
      <point x="889" y="525" type="curve" smooth="yes"/>
      <point x="889" y="617" type="line" smooth="yes"/>
      <point x="889" y="641"/>
      <point x="874" y="645"/>
      <point x="864" y="645" type="curve" smooth="yes"/>
      <point x="865" y="645"/>
      <point x="634" y="640"/>
      <point x="527" y="640" type="curve" smooth="yes"/>
      <point x="410" y="640"/>
      <point x="137" y="645"/>
    </contour>
  </outline>
</glyph>
<glyph name="uni0592" format="1">
  <advance width="0"/>
  <unicode hex="0592"/>
  <outline>
    <contour>
      <point x="219" y="1286" type="curve" smooth="yes"/>
      <point x="219" y="1328"/>
      <point x="186" y="1360"/>
      <point x="147" y="1360" type="curve" smooth="yes"/>
      <point x="106" y="1360"/>
      <point x="74" y="1328"/>
      <point x="74" y="1286" type="curve" smooth="yes"/>
      <point x="74" y="1247"/>
      <point x="106" y="1215"/>
      <point x="147" y="1215" type="curve" smooth="yes"/>
      <point x="186" y="1215"/>
      <point x="219" y="1247"/>
    </contour>
    <contour>
      <point x="472" y="1286" type="curve" smooth="yes"/>
      <point x="472" y="1328"/>
      <point x="439" y="1360"/>
      <point x="398" y="1360" type="curve" smooth="yes"/>
      <point x="359" y="1360"/>
      <point x="325" y="1328"/>
      <point x="325" y="1286" type="curve" smooth="yes"/>
      <point x="325" y="1247"/>
      <point x="359" y="1215"/>
      <point x="398" y="1215" type="curve" smooth="yes"/>
      <point x="439" y="1215"/>
      <point x="472" y="1247"/>
    </contour>
    <contour>
      <point x="344" y="1509" type="curve" smooth="yes"/>
      <point x="344" y="1551"/>
      <point x="310" y="1582"/>
      <point x="270" y="1582" type="curve" smooth="yes"/>
      <point x="229" y="1582"/>
      <point x="197" y="1551"/>
      <point x="197" y="1509" type="curve" smooth="yes"/>
      <point x="197" y="1469"/>
      <point x="229" y="1435"/>
      <point x="270" y="1435" type="curve" smooth="yes"/>
      <point x="310" y="1435"/>
      <point x="344" y="1469"/>
    </contour>
  </outline>
</glyph>
<glyph name="uni0598" format="1">
  <advance width="0"/>
  <unicode hex="0598"/>
  <outline>
    <contour>
      <point x="315" y="1411" type="curve" smooth="yes"/>
      <point x="340" y="1380"/>
      <point x="351" y="1364"/>
      <point x="383" y="1328" type="curve" smooth="yes"/>
      <point x="409" y="1301"/>
      <point x="446" y="1278"/>
      <point x="489" y="1278" type="curve" smooth="yes"/>
      <point x="575" y="1278"/>
      <point x="634" y="1349"/>
      <point x="634" y="1425" type="curve" smooth="yes"/>
      <point x="634" y="1467"/>
      <point x="620" y="1516"/>
      <point x="559" y="1552" type="curve" smooth="yes"/>
      <point x="550" y="1558"/>
      <point x="539" y="1563"/>
      <point x="530" y="1563" type="curve" smooth="yes"/>
      <point x="522" y="1563"/>
      <point x="520" y="1559"/>
      <point x="516" y="1556" type="curve" smooth="yes"/>
      <point x="487" y="1520" type="line"/>
      <point x="484" y="1513"/>
      <point x="482" y="1509"/>
      <point x="482" y="1502" type="curve" smooth="yes"/>
      <point x="482" y="1496"/>
      <point x="487" y="1489"/>
      <point x="493" y="1486" type="curve" smooth="yes"/>
      <point x="529" y="1467"/>
      <point x="541" y="1448"/>
      <point x="541" y="1418" type="curve" smooth="yes"/>
      <point x="541" y="1389"/>
      <point x="520" y="1369"/>
      <point x="493" y="1369" type="curve" smooth="yes"/>
      <point x="460" y="1369"/>
      <point x="443" y="1390"/>
      <point x="424" y="1412" type="curve" smooth="yes"/>
      <point x="393" y="1452"/>
      <point x="385" y="1462"/>
      <point x="353" y="1500" type="curve" smooth="yes"/>
      <point x="326" y="1530"/>
      <point x="287" y="1554"/>
      <point x="248" y="1554" type="curve" smooth="yes"/>
      <point x="161" y="1554"/>
      <point x="102" y="1482"/>
      <point x="102" y="1407" type="curve" smooth="yes"/>
      <point x="102" y="1364"/>
      <point x="116" y="1315"/>
      <point x="178" y="1279" type="curve" smooth="yes"/>
      <point x="186" y="1274"/>
      <point x="197" y="1269"/>
      <point x="207" y="1269" type="curve" smooth="yes"/>
      <point x="215" y="1269"/>
      <point x="217" y="1272"/>
      <point x="221" y="1276" type="curve" smooth="yes"/>
      <point x="249" y="1312" type="line"/>
      <point x="253" y="1319"/>
      <point x="255" y="1322"/>
      <point x="255" y="1330" type="curve" smooth="yes"/>
      <point x="255" y="1335"/>
      <point x="249" y="1342"/>
      <point x="244" y="1346" type="curve" smooth="yes"/>
      <point x="208" y="1364"/>
      <point x="195" y="1383"/>
      <point x="195" y="1414" type="curve" smooth="yes"/>
      <point x="195" y="1443"/>
      <point x="217" y="1462"/>
      <point x="244" y="1462" type="curve" smooth="yes"/>
      <point x="274" y="1462"/>
      <point x="287" y="1446"/>
    </contour>
  </outline>
</glyph>
<glyph name="uni0599" format="1">
  <advance width="0"/>
  <unicode hex="0599"/>
  <outline>
    <contour>
      <point x="197" y="1588" type="curve" smooth="yes"/>
      <point x="190" y="1592"/>
      <point x="185" y="1593"/>
      <point x="179" y="1593" type="curve" smooth="yes"/>
      <point x="171" y="1593"/>
      <point x="163" y="1588"/>
      <point x="158" y="1579" type="curve"/>
      <point x="140" y="1534" type="line"/>
      <point x="137" y="1529"/>
      <point x="133" y="1520"/>
      <point x="133" y="1515" type="curve" smooth="yes"/>
      <point x="133" y="1507"/>
      <point x="138" y="1502"/>
      <point x="149" y="1496" type="curve" smooth="yes"/>
      <point x="262" y="1446"/>
      <point x="294" y="1371"/>
      <point x="294" y="1222" type="curve" smooth="yes"/>
      <point x="294" y="1201"/>
      <point x="303" y="1195"/>
      <point x="319" y="1195" type="curve" smooth="yes"/>
      <point x="362" y="1195" type="line" smooth="yes"/>
      <point x="378" y="1195"/>
      <point x="389" y="1201"/>
      <point x="389" y="1222" type="curve" smooth="yes"/>
      <point x="389" y="1389"/>
      <point x="357" y="1525"/>
    </contour>
  </outline>
</glyph>
<glyph name="uni059A" format="1">
  <advance width="0"/>
  <unicode hex="059A"/>
  <outline>
    <contour>
      <point x="95" y="-279" type="curve" smooth="yes"/>
      <point x="84" y="-285"/>
      <point x="79" y="-296"/>
      <point x="79" y="-305" type="curve" smooth="yes"/>
      <point x="79" y="-349" type="line" smooth="yes"/>
      <point x="79" y="-359"/>
      <point x="84" y="-368"/>
      <point x="95" y="-373" type="curve" smooth="yes"/>
      <point x="161" y="-410"/>
      <point x="325" y="-501"/>
      <point x="389" y="-529" type="curve" smooth="yes"/>
      <point x="396" y="-532"/>
      <point x="402" y="-534"/>
      <point x="407" y="-534" type="curve" smooth="yes"/>
      <point x="412" y="-534"/>
      <point x="417" y="-530"/>
      <point x="421" y="-525" type="curve" smooth="yes"/>
      <point x="446" y="-482" type="line" smooth="yes"/>
      <point x="448" y="-479"/>
      <point x="450" y="-475"/>
      <point x="450" y="-472" type="curve" smooth="yes"/>
      <point x="450" y="-464"/>
      <point x="445" y="-457"/>
      <point x="432" y="-448" type="curve" smooth="yes"/>
      <point x="364" y="-405"/>
      <point x="260" y="-351"/>
      <point x="219" y="-326" type="curve"/>
      <point x="263" y="-296"/>
      <point x="361" y="-249"/>
      <point x="428" y="-204" type="curve" smooth="yes"/>
      <point x="441" y="-195"/>
      <point x="446" y="-188"/>
      <point x="446" y="-181" type="curve" smooth="yes"/>
      <point x="446" y="-178"/>
      <point x="445" y="-174"/>
      <point x="443" y="-171" type="curve" smooth="yes"/>
      <point x="419" y="-127" type="line" smooth="yes"/>
      <point x="416" y="-122"/>
      <point x="410" y="-118"/>
      <point x="405" y="-118" type="curve" smooth="yes"/>
      <point x="400" y="-118"/>
      <point x="395" y="-120"/>
      <point x="387" y="-123" type="curve" smooth="yes"/>
      <point x="323" y="-151"/>
      <point x="166" y="-238"/>
    </contour>
  </outline>
</glyph>
<glyph name="uni05A8" format="1">
  <advance width="0"/>
  <unicode hex="05A8"/>
  <outline>
    <contour>
      <point x="200" y="1568" type="curve" smooth="yes"/>
      <point x="193" y="1570"/>
      <point x="190" y="1573"/>
      <point x="185" y="1573" type="curve" smooth="yes"/>
      <point x="176" y="1573"/>
      <point x="169" y="1568"/>
      <point x="163" y="1559" type="curve"/>
      <point x="145" y="1515" type="line"/>
      <point x="142" y="1509"/>
      <point x="138" y="1500"/>
      <point x="138" y="1495" type="curve" smooth="yes"/>
      <point x="138" y="1488"/>
      <point x="144" y="1481"/>
      <point x="154" y="1477" type="curve" smooth="yes"/>
      <point x="267" y="1441"/>
      <point x="292" y="1387"/>
      <point x="292" y="1238" type="curve" smooth="yes"/>
      <point x="292" y="1217"/>
      <point x="301" y="1211"/>
      <point x="317" y="1211" type="curve" smooth="yes"/>
      <point x="361" y="1211" type="line" smooth="yes"/>
      <point x="376" y="1211"/>
      <point x="387" y="1217"/>
      <point x="387" y="1238" type="curve" smooth="yes"/>
      <point x="387" y="1405"/>
      <point x="359" y="1516"/>
    </contour>
  </outline>
</glyph>
<glyph name="uni05AD" format="1">
  <advance width="0"/>
  <unicode hex="05AD"/>
  <outline>
    <contour>
      <point x="323" y="-527" type="curve" smooth="yes"/>
      <point x="330" y="-530"/>
      <point x="335" y="-532"/>
      <point x="340" y="-532" type="curve" smooth="yes"/>
      <point x="349" y="-532"/>
      <point x="357" y="-527"/>
      <point x="362" y="-518" type="curve"/>
      <point x="380" y="-473" type="line"/>
      <point x="383" y="-468"/>
      <point x="387" y="-459"/>
      <point x="387" y="-453" type="curve" smooth="yes"/>
      <point x="387" y="-446"/>
      <point x="382" y="-441"/>
      <point x="371" y="-436" type="curve" smooth="yes"/>
      <point x="258" y="-385"/>
      <point x="226" y="-310"/>
      <point x="226" y="-161" type="curve" smooth="yes"/>
      <point x="226" y="-140"/>
      <point x="217" y="-135"/>
      <point x="200" y="-135" type="curve" smooth="yes"/>
      <point x="158" y="-135" type="line" smooth="yes"/>
      <point x="142" y="-135"/>
      <point x="131" y="-140"/>
      <point x="131" y="-161" type="curve" smooth="yes"/>
      <point x="131" y="-328"/>
      <point x="163" y="-464"/>
    </contour>
  </outline>
</glyph>
<glyph name="segolhebrew" format="1">
  <advance width="0"/>
  <unicode hex="05B6"/>
  <outline>
    <contour>
      <point x="235" y="-192" type="curve" smooth="yes"/>
      <point x="235" y="-152"/>
      <point x="202" y="-118"/>
      <point x="163" y="-118" type="curve" smooth="yes"/>
      <point x="122" y="-118"/>
      <point x="89" y="-152"/>
      <point x="89" y="-192" type="curve" smooth="yes"/>
      <point x="89" y="-233"/>
      <point x="122" y="-265"/>
      <point x="163" y="-265" type="curve" smooth="yes"/>
      <point x="202" y="-265"/>
      <point x="235" y="-233"/>
    </contour>
    <contour>
      <point x="641" y="-192" type="curve" smooth="yes"/>
      <point x="641" y="-152"/>
      <point x="609" y="-118"/>
      <point x="570" y="-118" type="curve" smooth="yes"/>
      <point x="529" y="-118"/>
      <point x="496" y="-152"/>
      <point x="496" y="-192" type="curve" smooth="yes"/>
      <point x="496" y="-233"/>
      <point x="529" y="-265"/>
      <point x="570" y="-265" type="curve" smooth="yes"/>
      <point x="609" y="-265"/>
      <point x="641" y="-233"/>
    </contour>
    <contour>
      <point x="439" y="-412" type="curve" smooth="yes"/>
      <point x="439" y="-373"/>
      <point x="405" y="-339"/>
      <point x="366" y="-339" type="curve" smooth="yes"/>
      <point x="325" y="-339"/>
      <point x="292" y="-373"/>
      <point x="292" y="-412" type="curve" smooth="yes"/>
      <point x="292" y="-453"/>
      <point x="325" y="-486"/>
      <point x="366" y="-486" type="curve" smooth="yes"/>
      <point x="405" y="-486"/>
      <point x="439" y="-453"/>
    </contour>
  </outline>
</glyph>
<glyph name="rafehebrew" format="1">
  <advance width="732"/>
  <unicode hex="05BF"/>
  <outline>
    <contour>
      <point x="368" y="1151" type="curve" smooth="yes"/>
      <point x="446" y="1151"/>
      <point x="534" y="1156"/>
      <point x="543" y="1158" type="curve" smooth="yes"/>
      <point x="561" y="1161"/>
      <point x="568" y="1173"/>
      <point x="568" y="1188" type="curve" smooth="yes"/>
      <point x="568" y="1228" type="line" smooth="yes"/>
      <point x="568" y="1242"/>
      <point x="561" y="1257"/>
      <point x="541" y="1258" type="curve" smooth="yes"/>
      <point x="482" y="1262"/>
      <point x="421" y="1265"/>
      <point x="362" y="1265" type="curve" smooth="yes"/>
      <point x="296" y="1265"/>
      <point x="217" y="1260"/>
      <point x="190" y="1258" type="curve" smooth="yes"/>
      <point x="166" y="1257"/>
      <point x="163" y="1242"/>
      <point x="163" y="1228" type="curve" smooth="yes"/>
      <point x="163" y="1188" type="line" smooth="yes"/>
      <point x="163" y="1170"/>
      <point x="172" y="1161"/>
      <point x="190" y="1158" type="curve" smooth="yes"/>
      <point x="229" y="1152"/>
      <point x="310" y="1151"/>
    </contour>
  </outline>
</glyph>
<glyph name="afii57803" format="1">
  <advance width="1303"/>
  <unicode hex="05C2"/>
  <outline>
    <contour>
      <point x="439" y="1199" type="curve" smooth="yes"/>
      <point x="439" y="1240"/>
      <point x="405" y="1272"/>
      <point x="366" y="1272" type="curve" smooth="yes"/>
      <point x="325" y="1272"/>
      <point x="292" y="1240"/>
      <point x="292" y="1199" type="curve" smooth="yes"/>
      <point x="292" y="1159"/>
      <point x="325" y="1127"/>
      <point x="366" y="1127" type="curve" smooth="yes"/>
      <point x="405" y="1127"/>
      <point x="439" y="1159"/>
    </contour>
  </outline>
</glyph>
<glyph name="alefhebrew" format="1">
  <advance width="1301"/>
  <unicode hex="05D0"/>
  <outline>
    <contour>
      <point x="199" y="137" type="curve" smooth="yes"/>
      <point x="199" y="113"/>
      <point x="181" y="75"/>
      <point x="169" y="43" type="curve" smooth="yes"/>
      <point x="163" y="31"/>
      <point x="159" y="18"/>
      <point x="159" y="12" type="curve" smooth="yes"/>
      <point x="159" y="5"/>
      <point x="163" y="0"/>
      <point x="176" y="0" type="curve" smooth="yes"/>
      <point x="409" y="0" type="line" smooth="yes"/>
      <point x="428" y="0"/>
      <point x="441" y="9"/>
      <point x="450" y="22" type="curve" smooth="yes"/>
      <point x="477" y="61"/>
      <point x="539" y="197"/>
      <point x="539" y="215" type="curve" smooth="yes"/>
      <point x="539" y="229"/>
      <point x="530" y="235"/>
      <point x="516" y="235" type="curve" smooth="yes"/>
      <point x="441" y="235" type="line" smooth="yes"/>
      <point x="396" y="235"/>
      <point x="373" y="282"/>
      <point x="373" y="347" type="curve" smooth="yes"/>
      <point x="373" y="412"/>
      <point x="403" y="537"/>
      <point x="431" y="590" type="curve" smooth="yes"/>
      <point x="438" y="604"/>
      <point x="445" y="609"/>
      <point x="452" y="609" type="curve" smooth="yes"/>
      <point x="453" y="609"/>
      <point x="464" y="604"/>
      <point x="473" y="597" type="curve" smooth="yes"/>
      <point x="537" y="545"/>
      <point x="617" y="472"/>
      <point x="699" y="390" type="curve" smooth="yes"/>
      <point x="894" y="200"/>
      <point x="984" y="101"/>
      <point x="1098" y="-34" type="curve" smooth="yes"/>
      <point x="1104" y="-39"/>
      <point x="1108" y="-45"/>
      <point x="1115" y="-45" type="curve" smooth="yes"/>
      <point x="1120" y="-45"/>
      <point x="1127" y="-39"/>
      <point x="1134" y="-27" type="curve" smooth="yes"/>
      <point x="1154" y="9"/>
      <point x="1183" y="65"/>
      <point x="1217" y="133" type="curve" smooth="yes"/>
      <point x="1221" y="140"/>
      <point x="1224" y="151"/>
      <point x="1224" y="158" type="curve" smooth="yes"/>
      <point x="1224" y="165"/>
      <point x="1221" y="169"/>
      <point x="1215" y="176" type="curve" smooth="yes"/>
      <point x="1180" y="222"/>
      <point x="1036" y="385"/>
      <point x="989" y="432" type="curve" smooth="yes"/>
      <point x="985" y="436"/>
      <point x="980" y="445"/>
      <point x="980" y="448" type="curve" smooth="yes"/>
      <point x="980" y="455"/>
      <point x="984" y="459"/>
      <point x="991" y="472" type="curve" smooth="yes"/>
      <point x="1061" y="595"/>
      <point x="1140" y="692"/>
      <point x="1140" y="850" type="curve" smooth="yes"/>
      <point x="1140" y="916"/>
      <point x="1113" y="1014"/>
      <point x="1084" y="1057" type="curve" smooth="yes"/>
      <point x="1074" y="1074"/>
      <point x="1067" y="1081"/>
      <point x="1057" y="1081" type="curve" smooth="yes"/>
      <point x="1054" y="1081"/>
      <point x="1047" y="1077"/>
      <point x="1034" y="1062" type="curve" smooth="yes"/>
      <point x="997" y="1019"/>
      <point x="925" y="935"/>
      <point x="903" y="907" type="curve" smooth="yes"/>
      <point x="893" y="893"/>
      <point x="887" y="886"/>
      <point x="887" y="871" type="curve" smooth="yes"/>
      <point x="887" y="858"/>
      <point x="893" y="853"/>
      <point x="900" y="837" type="curve" smooth="yes"/>
      <point x="921" y="787"/>
      <point x="935" y="737"/>
      <point x="935" y="681" type="curve" smooth="yes"/>
      <point x="935" y="638"/>
      <point x="927" y="593"/>
      <point x="908" y="547" type="curve" smooth="yes"/>
      <point x="905" y="537"/>
      <point x="900" y="532"/>
      <point x="894" y="532" type="curve" smooth="yes"/>
      <point x="891" y="532"/>
      <point x="886" y="536"/>
      <point x="876" y="545" type="curve" smooth="yes"/>
      <point x="848" y="570"/>
      <point x="788" y="636"/>
      <point x="683" y="733" type="curve" smooth="yes"/>
      <point x="545" y="858"/>
      <point x="403" y="975"/>
      <point x="279" y="1072" type="curve" smooth="yes"/>
      <point x="276" y="1075"/>
      <point x="265" y="1082"/>
      <point x="260" y="1082" type="curve" smooth="yes"/>
      <point x="255" y="1082"/>
      <point x="248" y="1082"/>
      <point x="236" y="1067" type="curve" smooth="yes"/>
      <point x="204" y="1019"/>
      <point x="151" y="937"/>
      <point x="138" y="914" type="curve" smooth="yes"/>
      <point x="131" y="901"/>
      <point x="131" y="900"/>
      <point x="131" y="893" type="curve" smooth="yes"/>
      <point x="131" y="882"/>
      <point x="140" y="879"/>
      <point x="152" y="865" type="curve" smooth="yes"/>
      <point x="200" y="823"/>
      <point x="282" y="756"/>
      <point x="340" y="704" type="curve" smooth="yes"/>
      <point x="346" y="699"/>
      <point x="353" y="690"/>
      <point x="353" y="684" type="curve" smooth="yes"/>
      <point x="353" y="679"/>
      <point x="349" y="672"/>
      <point x="346" y="667" type="curve" smooth="yes"/>
      <point x="202" y="473"/>
      <point x="197" y="317"/>
      <point x="197" y="215" type="curve" smooth="yes"/>
      <point x="197" y="171"/>
      <point x="199" y="152"/>
    </contour>
  </outline>
</glyph>
<glyph name="bethebrew" format="1">
  <advance width="1016"/>
  <unicode hex="05D1"/>
  <outline>
    <contour>
      <point x="72" y="43" type="curve" smooth="yes"/>
      <point x="67" y="31"/>
      <point x="65" y="24"/>
      <point x="65" y="20" type="curve" smooth="yes"/>
      <point x="65" y="7"/>
      <point x="75" y="0"/>
      <point x="89" y="0" type="curve" smooth="yes"/>
      <point x="814" y="0" type="line" smooth="yes"/>
      <point x="837" y="0"/>
      <point x="855" y="12"/>
      <point x="871" y="41" type="curve" smooth="yes"/>
      <point x="900" y="91"/>
      <point x="934" y="156"/>
      <point x="944" y="185" type="curve" smooth="yes"/>
      <point x="949" y="200"/>
      <point x="951" y="204"/>
      <point x="951" y="214" type="curve" smooth="yes"/>
      <point x="951" y="226"/>
      <point x="942" y="235"/>
      <point x="927" y="235" type="curve" smooth="yes"/>
      <point x="874" y="235" type="line" smooth="yes"/>
      <point x="833" y="235"/>
      <point x="817" y="258"/>
      <point x="814" y="344" type="curve" smooth="yes"/>
      <point x="809" y="479"/>
      <point x="807" y="606"/>
      <point x="807" y="733" type="curve" smooth="yes"/>
      <point x="807" y="865"/>
      <point x="769" y="989"/>
      <point x="583" y="989" type="curve" smooth="yes"/>
      <point x="337" y="989" type="line" smooth="yes"/>
      <point x="306" y="989"/>
      <point x="296" y="1018"/>
      <point x="289" y="1043" type="curve" smooth="yes"/>
      <point x="284" y="1062"/>
      <point x="276" y="1081"/>
      <point x="262" y="1081" type="curve" smooth="yes"/>
      <point x="249" y="1081"/>
      <point x="236" y="1065"/>
      <point x="222" y="1045" type="curve" smooth="yes"/>
      <point x="186" y="995"/>
      <point x="135" y="908"/>
      <point x="101" y="850" type="curve" smooth="yes"/>
      <point x="84" y="821"/>
      <point x="75" y="801"/>
      <point x="75" y="794" type="curve" smooth="yes"/>
      <point x="75" y="760"/>
      <point x="106" y="754"/>
      <point x="135" y="754" type="curve" smooth="yes"/>
      <point x="534" y="754" type="line" smooth="yes"/>
      <point x="590" y="754"/>
      <point x="620" y="724"/>
      <point x="627" y="670" type="curve" smooth="yes"/>
      <point x="633" y="624"/>
      <point x="643" y="344"/>
      <point x="643" y="263" type="curve" smooth="yes"/>
      <point x="643" y="249"/>
      <point x="638" y="235"/>
      <point x="613" y="235" type="curve" smooth="yes"/>
      <point x="200" y="235" type="line" smooth="yes"/>
      <point x="181" y="235"/>
      <point x="165" y="224"/>
      <point x="156" y="210" type="curve" smooth="yes"/>
      <point x="122" y="156"/>
      <point x="108" y="125"/>
    </contour>
  </outline>
</glyph>
<glyph name="hethebrew" format="1">
  <advance width="1301"/>
  <unicode hex="05D7"/>
  <outline>
    <contour>
      <point x="244" y="-25" type="curve" smooth="yes"/>
      <point x="244" y="-34"/>
      <point x="249" y="-45"/>
      <point x="258" y="-45" type="curve" smooth="yes"/>
      <point x="270" y="-45"/>
      <point x="282" y="-38"/>
      <point x="292" y="-24" type="curve" smooth="yes"/>
      <point x="328" y="25"/>
      <point x="364" y="93"/>
      <point x="382" y="137" type="curve" smooth="yes"/>
      <point x="390" y="158"/>
      <point x="398" y="190"/>
      <point x="398" y="217" type="curve" smooth="yes"/>
      <point x="398" y="428"/>
      <point x="383" y="629"/>
      <point x="383" y="718" type="curve" smooth="yes"/>
      <point x="383" y="742"/>
      <point x="390" y="754"/>
      <point x="417" y="754" type="curve" smooth="yes"/>
      <point x="690" y="754" type="line" smooth="yes"/>
      <point x="882" y="754"/>
      <point x="957" y="600"/>
      <point x="973" y="482" type="curve" smooth="yes"/>
      <point x="995" y="323"/>
      <point x="1011" y="74"/>
      <point x="1019" y="-22" type="curve" smooth="yes"/>
      <point x="1021" y="-41"/>
      <point x="1029" y="-46"/>
      <point x="1036" y="-46" type="curve" smooth="yes"/>
      <point x="1045" y="-46"/>
      <point x="1054" y="-41"/>
      <point x="1062" y="-29" type="curve" smooth="yes"/>
      <point x="1091" y="12"/>
      <point x="1120" y="68"/>
      <point x="1145" y="115" type="curve" smooth="yes"/>
      <point x="1159" y="142"/>
      <point x="1163" y="169"/>
      <point x="1163" y="193" type="curve" smooth="yes"/>
      <point x="1163" y="323"/>
      <point x="1154" y="453"/>
      <point x="1142" y="573" type="curve" smooth="yes"/>
      <point x="1117" y="807"/>
      <point x="980" y="989"/>
      <point x="735" y="989" type="curve" smooth="yes"/>
      <point x="452" y="989" type="line" smooth="yes"/>
      <point x="416" y="989"/>
      <point x="387" y="993"/>
      <point x="373" y="1045" type="curve" smooth="yes"/>
      <point x="366" y="1070"/>
      <point x="355" y="1079"/>
      <point x="339" y="1079" type="curve" smooth="yes"/>
      <point x="325" y="1079"/>
      <point x="310" y="1062"/>
      <point x="305" y="1055" type="curve" smooth="yes"/>
      <point x="236" y="964"/>
      <point x="204" y="918"/>
      <point x="171" y="857" type="curve" smooth="yes"/>
      <point x="163" y="846"/>
      <point x="161" y="835"/>
      <point x="161" y="824" type="curve" smooth="yes"/>
      <point x="161" y="812"/>
      <point x="165" y="797"/>
      <point x="169" y="778" type="curve" smooth="yes"/>
      <point x="214" y="566"/>
      <point x="229" y="284"/>
    </contour>
  </outline>
</glyph>
<glyph name="finalmemhebrew" format="1">
  <advance width="1301"/>
  <unicode hex="05DD"/>
  <outline>
    <contour>
      <point x="192" y="200" type="curve" smooth="yes"/>
      <point x="197" y="95"/>
      <point x="242" y="0"/>
      <point x="349" y="0" type="curve" smooth="yes"/>
      <point x="995" y="0" type="line" smooth="yes"/>
      <point x="1019" y="0"/>
      <point x="1033" y="2"/>
      <point x="1043" y="18" type="curve" smooth="yes"/>
      <point x="1077" y="67"/>
      <point x="1118" y="159"/>
      <point x="1142" y="238" type="curve" smooth="yes"/>
      <point x="1152" y="274"/>
      <point x="1159" y="313"/>
      <point x="1159" y="407" type="curve" smooth="yes"/>
      <point x="1158" y="513"/>
      <point x="1149" y="688"/>
      <point x="1140" y="781" type="curve" smooth="yes"/>
      <point x="1127" y="916"/>
      <point x="1045" y="989"/>
      <point x="867" y="989" type="curve" smooth="yes"/>
      <point x="380" y="989" type="line" smooth="yes"/>
      <point x="344" y="989"/>
      <point x="328" y="1000"/>
      <point x="317" y="1052" type="curve" smooth="yes"/>
      <point x="313" y="1070"/>
      <point x="299" y="1081"/>
      <point x="285" y="1081" type="curve" smooth="yes"/>
      <point x="276" y="1081"/>
      <point x="262" y="1074"/>
      <point x="246" y="1052" type="curve" smooth="yes"/>
      <point x="207" y="1000"/>
      <point x="138" y="903"/>
      <point x="89" y="823" type="curve" smooth="yes"/>
      <point x="79" y="805"/>
      <point x="75" y="790"/>
      <point x="75" y="781" type="curve" smooth="yes"/>
      <point x="75" y="765"/>
      <point x="88" y="756"/>
      <point x="102" y="756" type="curve" smooth="yes"/>
      <point x="129" y="756"/>
      <point x="169" y="749"/>
      <point x="171" y="708" type="curve" smooth="yes"/>
      <point x="181" y="541"/>
      <point x="185" y="362"/>
    </contour>
    <contour>
      <point x="452" y="235" type="line" smooth="yes"/>
      <point x="407" y="235"/>
      <point x="375" y="253"/>
      <point x="366" y="312" type="curve" smooth="yes"/>
      <point x="357" y="369"/>
      <point x="347" y="602"/>
      <point x="347" y="694" type="curve" smooth="yes"/>
      <point x="347" y="742"/>
      <point x="357" y="754"/>
      <point x="407" y="754" type="curve" smooth="yes"/>
      <point x="814" y="754" type="line" smooth="yes"/>
      <point x="914" y="754"/>
      <point x="951" y="696"/>
      <point x="961" y="656" type="curve" smooth="yes"/>
      <point x="982" y="561"/>
      <point x="985" y="378"/>
      <point x="985" y="276" type="curve" smooth="yes"/>
      <point x="985" y="256"/>
      <point x="982" y="235"/>
      <point x="954" y="235" type="curve" smooth="yes"/>
    </contour>
  </outline>
</glyph>
<glyph name="pehebrew" format="1">
  <advance width="1016"/>
  <unicode hex="05E4"/>
  <outline>
    <contour>
      <point x="82" y="48" type="curve" smooth="yes"/>
      <point x="79" y="43"/>
      <point x="74" y="24"/>
      <point x="74" y="20" type="curve" smooth="yes"/>
      <point x="74" y="9"/>
      <point x="81" y="0"/>
      <point x="102" y="0" type="curve" smooth="yes"/>
      <point x="718" y="0" type="line" smooth="yes"/>
      <point x="749" y="0"/>
      <point x="756" y="2"/>
      <point x="769" y="20" type="curve" smooth="yes"/>
      <point x="809" y="82"/>
      <point x="835" y="154"/>
      <point x="857" y="214" type="curve" smooth="yes"/>
      <point x="871" y="255"/>
      <point x="884" y="303"/>
      <point x="884" y="362" type="curve" smooth="yes"/>
      <point x="884" y="436"/>
      <point x="879" y="597"/>
      <point x="865" y="694" type="curve" smooth="yes"/>
      <point x="850" y="819"/>
      <point x="788" y="908"/>
      <point x="703" y="957" type="curve" smooth="yes"/>
      <point x="606" y="1012"/>
      <point x="541" y="1038"/>
      <point x="446" y="1072" type="curve" smooth="yes"/>
      <point x="436" y="1075"/>
      <point x="426" y="1079"/>
      <point x="421" y="1079" type="curve" smooth="yes"/>
      <point x="412" y="1079"/>
      <point x="402" y="1075"/>
      <point x="389" y="1065" type="curve" smooth="yes"/>
      <point x="270" y="957"/>
      <point x="123" y="799"/>
      <point x="123" y="640" type="curve" smooth="yes"/>
      <point x="123" y="529"/>
      <point x="210" y="441"/>
      <point x="299" y="407" type="curve" smooth="yes"/>
      <point x="308" y="403"/>
      <point x="319" y="400"/>
      <point x="326" y="400" type="curve" smooth="yes"/>
      <point x="335" y="400"/>
      <point x="346" y="409"/>
      <point x="355" y="423" type="curve" smooth="yes"/>
      <point x="380" y="462"/>
      <point x="405" y="498"/>
      <point x="432" y="543" type="curve" smooth="yes"/>
      <point x="438" y="552"/>
      <point x="443" y="564"/>
      <point x="443" y="571" type="curve" smooth="yes"/>
      <point x="443" y="583"/>
      <point x="434" y="586"/>
      <point x="419" y="592" type="curve" smooth="yes"/>
      <point x="355" y="617"/>
      <point x="299" y="665"/>
      <point x="299" y="727" type="curve" smooth="yes"/>
      <point x="299" y="774"/>
      <point x="337" y="843"/>
      <point x="355" y="843" type="curve" smooth="yes"/>
      <point x="421" y="843"/>
      <point x="588" y="749"/>
      <point x="627" y="711" type="curve" smooth="yes"/>
      <point x="658" y="683"/>
      <point x="681" y="638"/>
      <point x="694" y="592" type="curve" smooth="yes"/>
      <point x="717" y="498"/>
      <point x="724" y="312"/>
      <point x="724" y="272" type="curve" smooth="yes"/>
      <point x="724" y="248"/>
      <point x="706" y="235"/>
      <point x="686" y="235" type="curve" smooth="yes"/>
      <point x="208" y="235" type="line" smooth="yes"/>
      <point x="193" y="235"/>
      <point x="186" y="229"/>
      <point x="172" y="208" type="curve" smooth="yes"/>
      <point x="138" y="156"/>
      <point x="111" y="101"/>
    </contour>
  </outline>
</glyph>
<glyph name="reshhebrew" format="1">
  <advance width="1016"/>
  <unicode hex="05E8"/>
  <outline>
    <contour>
      <point x="679" y="516" type="curve" smooth="yes"/>
      <point x="696" y="371"/>
      <point x="708" y="161"/>
      <point x="715" y="-5" type="curve" smooth="yes"/>
      <point x="717" y="-36"/>
      <point x="730" y="-46"/>
      <point x="740" y="-46" type="curve" smooth="yes"/>
      <point x="751" y="-46"/>
      <point x="761" y="-34"/>
      <point x="773" y="-18" type="curve" smooth="yes"/>
      <point x="797" y="20"/>
      <point x="835" y="86"/>
      <point x="850" y="120" type="curve" smooth="yes"/>
      <point x="867" y="161"/>
      <point x="871" y="197"/>
      <point x="871" y="236" type="curve" smooth="yes"/>
      <point x="871" y="395"/>
      <point x="860" y="534"/>
      <point x="846" y="686" type="curve" smooth="yes"/>
      <point x="831" y="844"/>
      <point x="715" y="989"/>
      <point x="559" y="989" type="curve" smooth="yes"/>
      <point x="340" y="989" type="line" smooth="yes"/>
      <point x="305" y="989"/>
      <point x="292" y="1021"/>
      <point x="287" y="1050" type="curve" smooth="yes"/>
      <point x="284" y="1068"/>
      <point x="274" y="1081"/>
      <point x="258" y="1081" type="curve" smooth="yes"/>
      <point x="249" y="1081"/>
      <point x="229" y="1070"/>
      <point x="210" y="1040" type="curve" smooth="yes"/>
      <point x="171" y="978"/>
      <point x="111" y="874"/>
      <point x="86" y="824" type="curve" smooth="yes"/>
      <point x="75" y="803"/>
      <point x="70" y="790"/>
      <point x="70" y="778" type="curve" smooth="yes"/>
      <point x="70" y="761"/>
      <point x="86" y="754"/>
      <point x="111" y="754" type="curve" smooth="yes"/>
      <point x="434" y="754" type="line" smooth="yes"/>
      <point x="588" y="754"/>
      <point x="663" y="665"/>
    </contour>
  </outline>
</glyph>
<glyph name="afii57716" format="1">
  <advance width="1341"/>
  <unicode hex="05F0"/>
  <outline>
    <contour>
      <point x="985" y="593" type="curve" smooth="yes"/>
      <point x="1005" y="466"/>
      <point x="1019" y="145"/>
      <point x="1019" y="-9" type="curve" smooth="yes"/>
      <point x="1019" y="-27"/>
      <point x="1027" y="-46"/>
      <point x="1041" y="-46" type="curve" smooth="yes"/>
      <point x="1050" y="-46"/>
      <point x="1057" y="-41"/>
      <point x="1067" y="-31" type="curve" smooth="yes"/>
      <point x="1089" y="-2"/>
      <point x="1138" y="65"/>
      <point x="1163" y="111" type="curve" smooth="yes"/>
      <point x="1175" y="135"/>
      <point x="1181" y="158"/>
      <point x="1181" y="181" type="curve" smooth="yes"/>
      <point x="1181" y="472"/>
      <point x="1181" y="588"/>
      <point x="1173" y="706" type="curve" smooth="yes"/>
      <point x="1168" y="801"/>
      <point x="1138" y="860"/>
      <point x="1095" y="901" type="curve" smooth="yes"/>
      <point x="1034" y="963"/>
      <point x="948" y="1029"/>
      <point x="896" y="1067" type="curve" smooth="yes"/>
      <point x="884" y="1075"/>
      <point x="876" y="1079"/>
      <point x="871" y="1079" type="curve" smooth="yes"/>
      <point x="865" y="1079"/>
      <point x="858" y="1075"/>
      <point x="851" y="1068" type="curve" smooth="yes"/>
      <point x="814" y="1031"/>
      <point x="760" y="961"/>
      <point x="718" y="898" type="curve" smooth="yes"/>
      <point x="711" y="887"/>
      <point x="708" y="879"/>
      <point x="708" y="869" type="curve" smooth="yes"/>
      <point x="708" y="858"/>
      <point x="715" y="853"/>
      <point x="725" y="846" type="curve" smooth="yes"/>
      <point x="769" y="817"/>
      <point x="857" y="769"/>
      <point x="921" y="711" type="curve" smooth="yes"/>
      <point x="963" y="674"/>
      <point x="980" y="627"/>
    </contour>
    <contour>
      <point x="373" y="593" type="curve" smooth="yes"/>
      <point x="393" y="466"/>
      <point x="407" y="145"/>
      <point x="407" y="-9" type="curve" smooth="yes"/>
      <point x="407" y="-27"/>
      <point x="414" y="-46"/>
      <point x="428" y="-46" type="curve" smooth="yes"/>
      <point x="438" y="-46"/>
      <point x="445" y="-41"/>
      <point x="453" y="-31" type="curve" smooth="yes"/>
      <point x="477" y="-2"/>
      <point x="525" y="65"/>
      <point x="550" y="111" type="curve" smooth="yes"/>
      <point x="563" y="135"/>
      <point x="568" y="158"/>
      <point x="568" y="181" type="curve" smooth="yes"/>
      <point x="568" y="472"/>
      <point x="568" y="588"/>
      <point x="561" y="706" type="curve" smooth="yes"/>
      <point x="556" y="801"/>
      <point x="525" y="860"/>
      <point x="482" y="901" type="curve" smooth="yes"/>
      <point x="421" y="963"/>
      <point x="335" y="1029"/>
      <point x="284" y="1067" type="curve" smooth="yes"/>
      <point x="270" y="1075"/>
      <point x="263" y="1079"/>
      <point x="258" y="1079" type="curve" smooth="yes"/>
      <point x="253" y="1079"/>
      <point x="246" y="1075"/>
      <point x="238" y="1068" type="curve" smooth="yes"/>
      <point x="200" y="1031"/>
      <point x="147" y="961"/>
      <point x="106" y="898" type="curve" smooth="yes"/>
      <point x="99" y="887"/>
      <point x="95" y="879"/>
      <point x="95" y="869" type="curve" smooth="yes"/>
      <point x="95" y="858"/>
      <point x="102" y="853"/>
      <point x="113" y="846" type="curve" smooth="yes"/>
      <point x="156" y="817"/>
      <point x="244" y="769"/>
      <point x="308" y="711" type="curve" smooth="yes"/>
      <point x="349" y="674"/>
      <point x="368" y="627"/>
    </contour>
  </outline>
</glyph>
<glyph name="uni05F3" format="1">
  <advance width="475"/>
  <unicode hex="05F3"/>
  <outline>
    <contour>
      <point x="272" y="1181" type="curve" smooth="yes"/>
      <point x="169" y="1052"/>
      <point x="63" y="830"/>
      <point x="63" y="830" type="curve"/>
      <point x="63" y="810"/>
      <point x="77" y="799"/>
      <point x="95" y="799" type="curve" smooth="yes"/>
      <point x="135" y="799"/>
      <point x="282" y="925"/>
      <point x="339" y="1002" type="curve" smooth="yes"/>
      <point x="359" y="1029"/>
      <point x="378" y="1072"/>
      <point x="378" y="1132" type="curve" smooth="yes"/>
      <point x="378" y="1166"/>
      <point x="373" y="1197"/>
      <point x="349" y="1197" type="curve" smooth="yes"/>
      <point x="301" y="1197" type="line" smooth="yes"/>
      <point x="291" y="1197"/>
      <point x="279" y="1192"/>
    </contour>
  </outline>
</glyph>
<glyph name="quoteright" format="1">
  <advance width="611"/>
  <unicode hex="2019"/>
  <outline>
    <contour>
      <point x="151" y="534" type="curve" smooth="yes"/>
      <point x="140" y="501"/>
      <point x="135" y="489"/>
      <point x="135" y="475" type="curve" smooth="yes"/>
      <point x="135" y="462"/>
      <point x="142" y="450"/>
      <point x="154" y="450" type="curve" smooth="yes"/>
      <point x="174" y="450"/>
      <point x="192" y="468"/>
      <point x="212" y="487" type="curve" smooth="yes"/>
      <point x="279" y="556"/>
      <point x="330" y="641"/>
      <point x="373" y="718" type="curve" smooth="yes"/>
      <point x="416" y="795"/>
      <point x="446" y="886"/>
      <point x="446" y="944" type="curve" smooth="yes"/>
      <point x="446" y="993"/>
      <point x="436" y="1048"/>
      <point x="417" y="1084" type="curve" smooth="yes"/>
      <point x="407" y="1106"/>
      <point x="395" y="1122"/>
      <point x="383" y="1122" type="curve" smooth="yes"/>
      <point x="368" y="1122"/>
      <point x="359" y="1118"/>
      <point x="344" y="1104" type="curve" smooth="yes"/>
      <point x="294" y="1054"/>
      <point x="260" y="1021"/>
      <point x="235" y="987" type="curve" smooth="yes"/>
      <point x="226" y="975"/>
      <point x="219" y="964"/>
      <point x="219" y="946" type="curve" smooth="yes"/>
      <point x="219" y="925"/>
      <point x="226" y="893"/>
      <point x="226" y="848" type="curve" smooth="yes"/>
      <point x="226" y="740"/>
      <point x="181" y="624"/>
    </contour>
  </outline>
</glyph>
<glyph name="quotedblleft" format="1">
  <advance width="1007"/>
  <unicode hex="201C"/>
  <outline>
    <contour>
      <point x="855" y="1038" type="curve" smooth="yes"/>
      <point x="865" y="1070"/>
      <point x="871" y="1082"/>
      <point x="871" y="1096" type="curve" smooth="yes"/>
      <point x="871" y="1110"/>
      <point x="864" y="1122"/>
      <point x="851" y="1122" type="curve" smooth="yes"/>
      <point x="831" y="1122"/>
      <point x="814" y="1104"/>
      <point x="794" y="1084" type="curve" smooth="yes"/>
      <point x="725" y="1016"/>
      <point x="681" y="930"/>
      <point x="633" y="853" type="curve" smooth="yes"/>
      <point x="586" y="780"/>
      <point x="559" y="686"/>
      <point x="559" y="627" type="curve" smooth="yes"/>
      <point x="559" y="579"/>
      <point x="570" y="523"/>
      <point x="588" y="487" type="curve" smooth="yes"/>
      <point x="599" y="466"/>
      <point x="611" y="450"/>
      <point x="622" y="450" type="curve" smooth="yes"/>
      <point x="638" y="450"/>
      <point x="647" y="453"/>
      <point x="662" y="468" type="curve" smooth="yes"/>
      <point x="711" y="518"/>
      <point x="746" y="550"/>
      <point x="771" y="585" type="curve" smooth="yes"/>
      <point x="780" y="597"/>
      <point x="787" y="607"/>
      <point x="787" y="626" type="curve" smooth="yes"/>
      <point x="787" y="647"/>
      <point x="780" y="679"/>
      <point x="780" y="724" type="curve" smooth="yes"/>
      <point x="780" y="831"/>
      <point x="824" y="948"/>
    </contour>
    <contour>
      <point x="434" y="1038" type="curve" smooth="yes"/>
      <point x="445" y="1070"/>
      <point x="450" y="1082"/>
      <point x="450" y="1096" type="curve" smooth="yes"/>
      <point x="450" y="1110"/>
      <point x="443" y="1122"/>
      <point x="431" y="1122" type="curve" smooth="yes"/>
      <point x="410" y="1122"/>
      <point x="393" y="1104"/>
      <point x="373" y="1084" type="curve" smooth="yes"/>
      <point x="305" y="1016"/>
      <point x="260" y="930"/>
      <point x="212" y="853" type="curve" smooth="yes"/>
      <point x="165" y="780"/>
      <point x="138" y="686"/>
      <point x="138" y="627" type="curve" smooth="yes"/>
      <point x="138" y="579"/>
      <point x="149" y="523"/>
      <point x="166" y="487" type="curve" smooth="yes"/>
      <point x="178" y="466"/>
      <point x="190" y="450"/>
      <point x="200" y="450" type="curve" smooth="yes"/>
      <point x="217" y="450"/>
      <point x="226" y="453"/>
      <point x="240" y="468" type="curve" smooth="yes"/>
      <point x="291" y="518"/>
      <point x="325" y="550"/>
      <point x="349" y="585" type="curve" smooth="yes"/>
      <point x="359" y="597"/>
      <point x="366" y="607"/>
      <point x="366" y="626" type="curve" smooth="yes"/>
      <point x="366" y="647"/>
      <point x="359" y="679"/>
      <point x="359" y="724" type="curve" smooth="yes"/>
      <point x="359" y="831"/>
      <point x="403" y="948"/>
    </contour>
  </outline>
</glyph>
<glyph name="quotedblbase" format="1">
  <advance width="1007"/>
  <unicode hex="201E"/>
  <outline>
    <contour>
      <point x="154" y="-246" type="curve" smooth="yes"/>
      <point x="144" y="-277"/>
      <point x="138" y="-291"/>
      <point x="138" y="-305" type="curve" smooth="yes"/>
      <point x="138" y="-317"/>
      <point x="145" y="-330"/>
      <point x="158" y="-330" type="curve" smooth="yes"/>
      <point x="178" y="-330"/>
      <point x="195" y="-312"/>
      <point x="215" y="-292" type="curve" smooth="yes"/>
      <point x="284" y="-224"/>
      <point x="328" y="-138"/>
      <point x="376" y="-61" type="curve" smooth="yes"/>
      <point x="423" y="12"/>
      <point x="450" y="106"/>
      <point x="450" y="165" type="curve" smooth="yes"/>
      <point x="450" y="214"/>
      <point x="439" y="269"/>
      <point x="421" y="305" type="curve" smooth="yes"/>
      <point x="410" y="326"/>
      <point x="398" y="342"/>
      <point x="387" y="342" type="curve" smooth="yes"/>
      <point x="371" y="342"/>
      <point x="362" y="339"/>
      <point x="347" y="325" type="curve" smooth="yes"/>
      <point x="298" y="274"/>
      <point x="263" y="242"/>
      <point x="238" y="208" type="curve" smooth="yes"/>
      <point x="229" y="195"/>
      <point x="222" y="185"/>
      <point x="222" y="166" type="curve" smooth="yes"/>
      <point x="222" y="145"/>
      <point x="229" y="113"/>
      <point x="229" y="68" type="curve" smooth="yes"/>
      <point x="229" y="-39"/>
      <point x="185" y="-156"/>
    </contour>
    <contour>
      <point x="575" y="-246" type="curve" smooth="yes"/>
      <point x="564" y="-277"/>
      <point x="559" y="-291"/>
      <point x="559" y="-305" type="curve" smooth="yes"/>
      <point x="559" y="-317"/>
      <point x="566" y="-330"/>
      <point x="579" y="-330" type="curve" smooth="yes"/>
      <point x="599" y="-330"/>
      <point x="617" y="-312"/>
      <point x="636" y="-292" type="curve" smooth="yes"/>
      <point x="704" y="-224"/>
      <point x="749" y="-138"/>
      <point x="797" y="-61" type="curve" smooth="yes"/>
      <point x="844" y="12"/>
      <point x="871" y="106"/>
      <point x="871" y="165" type="curve" smooth="yes"/>
      <point x="871" y="214"/>
      <point x="860" y="269"/>
      <point x="843" y="305" type="curve" smooth="yes"/>
      <point x="831" y="326"/>
      <point x="819" y="342"/>
      <point x="809" y="342" type="curve" smooth="yes"/>
      <point x="792" y="342"/>
      <point x="783" y="339"/>
      <point x="769" y="325" type="curve" smooth="yes"/>
      <point x="718" y="274"/>
      <point x="684" y="242"/>
      <point x="660" y="208" type="curve" smooth="yes"/>
      <point x="650" y="195"/>
      <point x="643" y="185"/>
      <point x="643" y="166" type="curve" smooth="yes"/>
      <point x="643" y="145"/>
      <point x="650" y="113"/>
      <point x="650" y="68" type="curve" smooth="yes"/>
      <point x="650" y="-39"/>
      <point x="606" y="-156"/>
    </contour>
  </outline>
</glyph>
<glyph name="ellipsis" format="1">
  <advance width="1819"/>
  <unicode hex="2026"/>
  <outline>
    <contour>
      <point x="761" y="97" type="curve" smooth="yes"/>
      <point x="795" y="52"/>
      <point x="858" y="-2"/>
      <point x="907" y="-31" type="curve" smooth="yes"/>
      <point x="912" y="-34"/>
      <point x="920" y="-36"/>
      <point x="927" y="-36" type="curve" smooth="yes"/>
      <point x="934" y="-36"/>
      <point x="942" y="-32"/>
      <point x="948" y="-27" type="curve" smooth="yes"/>
      <point x="982" y="5"/>
      <point x="1033" y="61"/>
      <point x="1061" y="106" type="curve" smooth="yes"/>
      <point x="1067" y="115"/>
      <point x="1072" y="123"/>
      <point x="1072" y="133" type="curve" smooth="yes"/>
      <point x="1072" y="145"/>
      <point x="1065" y="154"/>
      <point x="1055" y="159" type="curve" smooth="yes"/>
      <point x="1018" y="181"/>
      <point x="957" y="240"/>
      <point x="921" y="272" type="curve" smooth="yes"/>
      <point x="912" y="279"/>
      <point x="907" y="284"/>
      <point x="898" y="284" type="curve" smooth="yes"/>
      <point x="889" y="284"/>
      <point x="880" y="277"/>
      <point x="872" y="270" type="curve" smooth="yes"/>
      <point x="851" y="248"/>
      <point x="787" y="178"/>
      <point x="760" y="145" type="curve" smooth="yes"/>
      <point x="753" y="137"/>
      <point x="751" y="129"/>
      <point x="751" y="122" type="curve" smooth="yes"/>
      <point x="751" y="113"/>
      <point x="756" y="104"/>
    </contour>
    <contour>
      <point x="1286" y="97" type="curve" smooth="yes"/>
      <point x="1320" y="52"/>
      <point x="1383" y="-2"/>
      <point x="1432" y="-31" type="curve" smooth="yes"/>
      <point x="1437" y="-34"/>
      <point x="1445" y="-36"/>
      <point x="1452" y="-36" type="curve" smooth="yes"/>
      <point x="1459" y="-36"/>
      <point x="1467" y="-32"/>
      <point x="1473" y="-27" type="curve" smooth="yes"/>
      <point x="1507" y="5"/>
      <point x="1558" y="61"/>
      <point x="1586" y="106" type="curve" smooth="yes"/>
      <point x="1592" y="115"/>
      <point x="1597" y="123"/>
      <point x="1597" y="133" type="curve" smooth="yes"/>
      <point x="1597" y="145"/>
      <point x="1590" y="154"/>
      <point x="1580" y="159" type="curve" smooth="yes"/>
      <point x="1543" y="181"/>
      <point x="1482" y="240"/>
      <point x="1446" y="272" type="curve" smooth="yes"/>
      <point x="1437" y="279"/>
      <point x="1432" y="284"/>
      <point x="1423" y="284" type="curve" smooth="yes"/>
      <point x="1414" y="284"/>
      <point x="1405" y="277"/>
      <point x="1397" y="270" type="curve" smooth="yes"/>
      <point x="1376" y="248"/>
      <point x="1312" y="178"/>
      <point x="1285" y="145" type="curve" smooth="yes"/>
      <point x="1278" y="137"/>
      <point x="1276" y="129"/>
      <point x="1276" y="122" type="curve" smooth="yes"/>
      <point x="1276" y="113"/>
      <point x="1281" y="104"/>
    </contour>
    <contour>
      <point x="233" y="97" type="curve" smooth="yes"/>
      <point x="267" y="52"/>
      <point x="330" y="-2"/>
      <point x="378" y="-31" type="curve" smooth="yes"/>
      <point x="383" y="-34"/>
      <point x="390" y="-36"/>
      <point x="398" y="-36" type="curve" smooth="yes"/>
      <point x="405" y="-36"/>
      <point x="414" y="-32"/>
      <point x="419" y="-27" type="curve" smooth="yes"/>
      <point x="453" y="5"/>
      <point x="503" y="61"/>
      <point x="532" y="106" type="curve" smooth="yes"/>
      <point x="537" y="115"/>
      <point x="543" y="123"/>
      <point x="543" y="133" type="curve" smooth="yes"/>
      <point x="543" y="145"/>
      <point x="536" y="154"/>
      <point x="527" y="159" type="curve" smooth="yes"/>
      <point x="489" y="181"/>
      <point x="428" y="240"/>
      <point x="393" y="272" type="curve" smooth="yes"/>
      <point x="383" y="279"/>
      <point x="378" y="284"/>
      <point x="369" y="284" type="curve" smooth="yes"/>
      <point x="361" y="284"/>
      <point x="351" y="277"/>
      <point x="344" y="270" type="curve" smooth="yes"/>
      <point x="323" y="248"/>
      <point x="258" y="178"/>
      <point x="231" y="145" type="curve" smooth="yes"/>
      <point x="224" y="137"/>
      <point x="222" y="129"/>
      <point x="222" y="122" type="curve" smooth="yes"/>
      <point x="222" y="113"/>
      <point x="228" y="104"/>
    </contour>
  </outline>
</glyph>
<glyph name="guilsinglleft" format="1">
  <advance width="414"/>
  <unicode hex="2039"/>
  <outline>
    <contour>
      <point x="152" y="650" type="curve" smooth="yes"/>
      <point x="125" y="614"/>
      <point x="72" y="539"/>
      <point x="50" y="494" type="curve" smooth="yes"/>
      <point x="46" y="487"/>
      <point x="43" y="477"/>
      <point x="43" y="468" type="curve" smooth="yes"/>
      <point x="43" y="457"/>
      <point x="46" y="446"/>
      <point x="60" y="426" type="curve" smooth="yes"/>
      <point x="86" y="382"/>
      <point x="166" y="294"/>
      <point x="215" y="253" type="curve" smooth="yes"/>
      <point x="224" y="246"/>
      <point x="229" y="244"/>
      <point x="233" y="244" type="curve" smooth="yes"/>
      <point x="238" y="244"/>
      <point x="246" y="248"/>
      <point x="253" y="256" type="curve" smooth="yes"/>
      <point x="287" y="298"/>
      <point x="305" y="326"/>
      <point x="328" y="364" type="curve" smooth="yes"/>
      <point x="339" y="382"/>
      <point x="337" y="387"/>
      <point x="339" y="390" type="curve"/>
      <point x="339" y="402"/>
      <point x="335" y="407"/>
      <point x="332" y="410" type="curve" smooth="yes"/>
      <point x="249" y="500" type="line" smooth="yes"/>
      <point x="244" y="506"/>
      <point x="240" y="516"/>
      <point x="240" y="522" type="curve" smooth="yes"/>
      <point x="240" y="527"/>
      <point x="242" y="534"/>
      <point x="246" y="543" type="curve" smooth="yes"/>
      <point x="319" y="701" type="line" smooth="yes"/>
      <point x="323" y="708"/>
      <point x="326" y="718"/>
      <point x="326" y="724" type="curve" smooth="yes"/>
      <point x="326" y="732"/>
      <point x="321" y="737"/>
      <point x="312" y="737" type="curve" smooth="yes"/>
      <point x="308" y="737"/>
      <point x="303" y="737"/>
      <point x="296" y="733" type="curve" smooth="yes"/>
      <point x="282" y="727"/>
      <point x="214" y="696"/>
      <point x="204" y="690" type="curve" smooth="yes"/>
      <point x="192" y="683"/>
      <point x="169" y="672"/>
    </contour>
  </outline>
</glyph>
<glyph name="guilsinglright" format="1">
  <advance width="414"/>
  <unicode hex="203A"/>
  <outline>
    <contour>
      <point x="229" y="330" type="curve" smooth="yes"/>
      <point x="256" y="366"/>
      <point x="310" y="441"/>
      <point x="332" y="486" type="curve" smooth="yes"/>
      <point x="335" y="493"/>
      <point x="339" y="503"/>
      <point x="339" y="513" type="curve" smooth="yes"/>
      <point x="339" y="523"/>
      <point x="335" y="534"/>
      <point x="323" y="554" type="curve" smooth="yes"/>
      <point x="296" y="599"/>
      <point x="215" y="686"/>
      <point x="166" y="727" type="curve" smooth="yes"/>
      <point x="158" y="735"/>
      <point x="152" y="737"/>
      <point x="149" y="737" type="curve" smooth="yes"/>
      <point x="144" y="737"/>
      <point x="137" y="733"/>
      <point x="129" y="724" type="curve" smooth="yes"/>
      <point x="95" y="683"/>
      <point x="77" y="655"/>
      <point x="53" y="617" type="curve" smooth="yes"/>
      <point x="43" y="599"/>
      <point x="45" y="593"/>
      <point x="43" y="590" type="curve"/>
      <point x="43" y="579"/>
      <point x="46" y="573"/>
      <point x="50" y="570" type="curve" smooth="yes"/>
      <point x="133" y="480" type="line" smooth="yes"/>
      <point x="138" y="475"/>
      <point x="142" y="464"/>
      <point x="142" y="459" type="curve" smooth="yes"/>
      <point x="142" y="453"/>
      <point x="140" y="446"/>
      <point x="137" y="438" type="curve" smooth="yes"/>
      <point x="63" y="279" type="line" smooth="yes"/>
      <point x="60" y="272"/>
      <point x="55" y="262"/>
      <point x="55" y="256" type="curve" smooth="yes"/>
      <point x="55" y="249"/>
      <point x="61" y="244"/>
      <point x="70" y="244" type="curve" smooth="yes"/>
      <point x="74" y="244"/>
      <point x="79" y="244"/>
      <point x="86" y="248" type="curve" smooth="yes"/>
      <point x="101" y="253"/>
      <point x="169" y="285"/>
      <point x="178" y="291" type="curve" smooth="yes"/>
      <point x="190" y="298"/>
      <point x="214" y="308"/>
    </contour>
  </outline>
</glyph>
<glyph name="Euro" format="1">
  <advance width="1018"/>
  <unicode hex="20AC"/>
  <outline>
    <contour>
      <point x="636" y="-29" type="curve" smooth="yes"/>
      <point x="711" y="-29"/>
      <point x="794" y="-9"/>
      <point x="826" y="20" type="curve" smooth="yes"/>
      <point x="869" y="58"/>
      <point x="907" y="91"/>
      <point x="973" y="166" type="curve" smooth="yes"/>
      <point x="985" y="181"/>
      <point x="998" y="195"/>
      <point x="998" y="210" type="curve" smooth="yes"/>
      <point x="998" y="219"/>
      <point x="991" y="226"/>
      <point x="982" y="226" type="curve" smooth="yes"/>
      <point x="968" y="226"/>
      <point x="805" y="171"/>
      <point x="697" y="171" type="curve" smooth="yes"/>
      <point x="500" y="171"/>
      <point x="359" y="253"/>
      <point x="339" y="522" type="curve"/>
      <point x="480" y="522"/>
      <point x="607" y="523"/>
      <point x="761" y="523" type="curve" smooth="yes"/>
      <point x="803" y="523"/>
      <point x="837" y="525"/>
      <point x="872" y="547" type="curve" smooth="yes"/>
      <point x="891" y="557"/>
      <point x="916" y="571"/>
      <point x="935" y="586" type="curve" smooth="yes"/>
      <point x="944" y="593"/>
      <point x="957" y="609"/>
      <point x="957" y="614" type="curve" smooth="yes"/>
      <point x="957" y="622"/>
      <point x="951" y="626"/>
      <point x="939" y="626" type="curve" smooth="yes"/>
      <point x="332" y="626" type="line"/>
      <point x="332" y="658"/>
      <point x="333" y="692"/>
      <point x="335" y="717" type="curve"/>
      <point x="416" y="718"/>
      <point x="681" y="717"/>
      <point x="790" y="724" type="curve" smooth="yes"/>
      <point x="816" y="725"/>
      <point x="838" y="732"/>
      <point x="860" y="740" type="curve" smooth="yes"/>
      <point x="891" y="753"/>
      <point x="927" y="773"/>
      <point x="948" y="787" type="curve" smooth="yes"/>
      <point x="959" y="794"/>
      <point x="966" y="801"/>
      <point x="966" y="809" type="curve" smooth="yes"/>
      <point x="966" y="816"/>
      <point x="956" y="821"/>
      <point x="942" y="821" type="curve" smooth="yes"/>
      <point x="353" y="821" type="line" smooth="yes"/>
      <point x="347" y="821"/>
      <point x="347" y="824"/>
      <point x="347" y="828" type="curve" smooth="yes"/>
      <point x="347" y="867"/>
      <point x="369" y="944"/>
      <point x="403" y="1000" type="curve" smooth="yes"/>
      <point x="438" y="1054"/>
      <point x="498" y="1089"/>
      <point x="581" y="1089" type="curve" smooth="yes"/>
      <point x="674" y="1089"/>
      <point x="744" y="1050"/>
      <point x="797" y="1025" type="curve" smooth="yes"/>
      <point x="805" y="1021"/>
      <point x="817" y="1014"/>
      <point x="830" y="1014" type="curve" smooth="yes"/>
      <point x="838" y="1014"/>
      <point x="851" y="1021"/>
      <point x="865" y="1041" type="curve" smooth="yes"/>
      <point x="896" y="1082"/>
      <point x="935" y="1142"/>
      <point x="951" y="1168" type="curve" smooth="yes"/>
      <point x="959" y="1181"/>
      <point x="964" y="1192"/>
      <point x="964" y="1201" type="curve" smooth="yes"/>
      <point x="964" y="1209"/>
      <point x="954" y="1217"/>
      <point x="937" y="1224" type="curve" smooth="yes"/>
      <point x="887" y="1247"/>
      <point x="783" y="1267"/>
      <point x="735" y="1267" type="curve" smooth="yes"/>
      <point x="638" y="1267"/>
      <point x="571" y="1253"/>
      <point x="487" y="1208" type="curve" smooth="yes"/>
      <point x="389" y="1154"/>
      <point x="285" y="1093"/>
      <point x="221" y="1021" type="curve" smooth="yes"/>
      <point x="178" y="975"/>
      <point x="145" y="872"/>
      <point x="133" y="826" type="curve" smooth="yes"/>
      <point x="131" y="819"/>
      <point x="129" y="819"/>
      <point x="120" y="819" type="curve" smooth="yes"/>
      <point x="111" y="819"/>
      <point x="88" y="819"/>
      <point x="88" y="819" type="curve"/>
      <point x="89" y="819"/>
      <point x="70" y="817"/>
      <point x="53" y="807" type="curve" smooth="yes"/>
      <point x="36" y="794"/>
      <point x="12" y="773"/>
      <point x="-5" y="756" type="curve" smooth="yes"/>
      <point x="-20" y="744"/>
      <point x="-29" y="735"/>
      <point x="-29" y="727" type="curve" smooth="yes"/>
      <point x="-29" y="720"/>
      <point x="-22" y="717"/>
      <point x="-9" y="717" type="curve" smooth="yes"/>
      <point x="111" y="717" type="line"/>
      <point x="104" y="683"/>
      <point x="101" y="658"/>
      <point x="101" y="624" type="curve"/>
      <point x="75" y="624" type="line" smooth="yes"/>
      <point x="58" y="624"/>
      <point x="45" y="619"/>
      <point x="31" y="607" type="curve"/>
      <point x="-11" y="564" type="line" smooth="yes"/>
      <point x="-24" y="552"/>
      <point x="-34" y="537"/>
      <point x="-34" y="530" type="curve" smooth="yes"/>
      <point x="-34" y="523"/>
      <point x="-27" y="523"/>
      <point x="-14" y="523" type="curve" smooth="yes"/>
      <point x="104" y="523" type="line"/>
      <point x="131" y="208"/>
      <point x="289" y="-29"/>
    </contour>
  </outline>
</glyph>
<glyph name="radical" format="1">
  <advance width="1366"/>
  <unicode hex="221A"/>
  <outline>
    <contour>
      <point x="340" y="52" type="curve" smooth="yes"/>
      <point x="385" y="84"/>
      <point x="446" y="122"/>
      <point x="487" y="178" type="curve" smooth="yes"/>
      <point x="549" y="260"/>
      <point x="586" y="362"/>
      <point x="624" y="473" type="curve" smooth="yes"/>
      <point x="631" y="494"/>
      <point x="633" y="509"/>
      <point x="645" y="509" type="curve" smooth="yes"/>
      <point x="650" y="509"/>
      <point x="665" y="500"/>
      <point x="679" y="487" type="curve" smooth="yes"/>
      <point x="835" y="351"/>
      <point x="971" y="207"/>
      <point x="1161" y="-31" type="curve" smooth="yes"/>
      <point x="1168" y="-39"/>
      <point x="1173" y="-45"/>
      <point x="1181" y="-45" type="curve" smooth="yes"/>
      <point x="1185" y="-45"/>
      <point x="1195" y="-34"/>
      <point x="1204" y="-18" type="curve" smooth="yes"/>
      <point x="1228" y="24"/>
      <point x="1251" y="61"/>
      <point x="1276" y="123" type="curve" smooth="yes"/>
      <point x="1283" y="142"/>
      <point x="1289" y="151"/>
      <point x="1289" y="156" type="curve" smooth="yes"/>
      <point x="1289" y="161"/>
      <point x="1281" y="171"/>
      <point x="1272" y="183" type="curve" smooth="yes"/>
      <point x="1236" y="233"/>
      <point x="1140" y="346"/>
      <point x="1050" y="436" type="curve" smooth="yes"/>
      <point x="1047" y="439"/>
      <point x="1043" y="445"/>
      <point x="1043" y="450" type="curve" smooth="yes"/>
      <point x="1043" y="452"/>
      <point x="1045" y="459"/>
      <point x="1050" y="468" type="curve" smooth="yes"/>
      <point x="1134" y="592"/>
      <point x="1204" y="697"/>
      <point x="1204" y="851" type="curve" smooth="yes"/>
      <point x="1204" y="918"/>
      <point x="1173" y="1009"/>
      <point x="1151" y="1055" type="curve" smooth="yes"/>
      <point x="1142" y="1074"/>
      <point x="1131" y="1081"/>
      <point x="1122" y="1081" type="curve" smooth="yes"/>
      <point x="1115" y="1081"/>
      <point x="1104" y="1072"/>
      <point x="1088" y="1054" type="curve" smooth="yes"/>
      <point x="1050" y="1011"/>
      <point x="991" y="935"/>
      <point x="970" y="905" type="curve" smooth="yes"/>
      <point x="957" y="887"/>
      <point x="951" y="884"/>
      <point x="951" y="872" type="curve" smooth="yes"/>
      <point x="951" y="858"/>
      <point x="957" y="851"/>
      <point x="970" y="824" type="curve" smooth="yes"/>
      <point x="989" y="781"/>
      <point x="998" y="733"/>
      <point x="998" y="686" type="curve" smooth="yes"/>
      <point x="998" y="655"/>
      <point x="991" y="604"/>
      <point x="980" y="570" type="curve" smooth="yes"/>
      <point x="975" y="550"/>
      <point x="968" y="536"/>
      <point x="961" y="536" type="curve" smooth="yes"/>
      <point x="959" y="536"/>
      <point x="942" y="547"/>
      <point x="941" y="549" type="curve" smooth="yes"/>
      <point x="872" y="617"/>
      <point x="788" y="677"/>
      <point x="711" y="744" type="curve" smooth="yes"/>
      <point x="692" y="761"/>
      <point x="694" y="767"/>
      <point x="692" y="792" type="curve" smooth="yes"/>
      <point x="690" y="819"/>
      <point x="669" y="844"/>
      <point x="643" y="857" type="curve" smooth="yes"/>
      <point x="557" y="900"/>
      <point x="494" y="941"/>
      <point x="438" y="978" type="curve" smooth="yes"/>
      <point x="400" y="1004"/>
      <point x="389" y="1074"/>
      <point x="389" y="1154" type="curve" smooth="yes"/>
      <point x="389" y="1229"/>
      <point x="378" y="1301"/>
      <point x="359" y="1348" type="curve" smooth="yes"/>
      <point x="351" y="1366"/>
      <point x="342" y="1376"/>
      <point x="332" y="1376" type="curve" smooth="yes"/>
      <point x="325" y="1376"/>
      <point x="310" y="1362"/>
      <point x="296" y="1344" type="curve" smooth="yes"/>
      <point x="267" y="1308"/>
      <point x="224" y="1255"/>
      <point x="197" y="1217" type="curve" smooth="yes"/>
      <point x="185" y="1199"/>
      <point x="178" y="1188"/>
      <point x="178" y="1183" type="curve" smooth="yes"/>
      <point x="178" y="1168"/>
      <point x="190" y="1149"/>
      <point x="195" y="1127" type="curve" smooth="yes"/>
      <point x="207" y="1089"/>
      <point x="217" y="1041"/>
      <point x="221" y="1002" type="curve" smooth="yes"/>
      <point x="224" y="964"/>
      <point x="224" y="941"/>
      <point x="240" y="871" type="curve" smooth="yes"/>
      <point x="255" y="814"/>
      <point x="276" y="795"/>
      <point x="315" y="773" type="curve" smooth="yes"/>
      <point x="362" y="746"/>
      <point x="424" y="711"/>
      <point x="460" y="688" type="curve" smooth="yes"/>
      <point x="482" y="674"/>
      <point x="489" y="655"/>
      <point x="489" y="626" type="curve" smooth="yes"/>
      <point x="489" y="588"/>
      <point x="473" y="445"/>
      <point x="439" y="369" type="curve" smooth="yes"/>
      <point x="410" y="305"/>
      <point x="369" y="291"/>
      <point x="321" y="265" type="curve" smooth="yes"/>
      <point x="294" y="251"/>
      <point x="270" y="244"/>
      <point x="222" y="224" type="curve" smooth="yes"/>
      <point x="199" y="215"/>
      <point x="181" y="192"/>
      <point x="171" y="163" type="curve" smooth="yes"/>
      <point x="156" y="125"/>
      <point x="116" y="18"/>
      <point x="116" y="-7" type="curve" smooth="yes"/>
      <point x="116" y="-22"/>
      <point x="122" y="-29"/>
      <point x="133" y="-29" type="curve" smooth="yes"/>
      <point x="181" y="-29"/>
      <point x="296" y="20"/>
    </contour>
  </outline>
</glyph>
<glyph name="uniFB1F" format="1">
  <advance width="1368"/>
  <unicode hex="FB1F"/>
  <outline>
    <contour>
      <point x="920" y="306" type="curve" smooth="yes"/>
      <point x="916" y="299"/>
      <point x="905" y="279"/>
      <point x="905" y="272" type="curve" smooth="yes"/>
      <point x="905" y="263"/>
      <point x="912" y="260"/>
      <point x="918" y="260" type="curve" smooth="yes"/>
      <point x="925" y="260"/>
      <point x="939" y="265"/>
      <point x="954" y="272" type="curve" smooth="yes"/>
      <point x="989" y="292"/>
      <point x="1038" y="325"/>
      <point x="1068" y="347" type="curve" smooth="yes"/>
      <point x="1100" y="373"/>
      <point x="1118" y="387"/>
      <point x="1147" y="431" type="curve" smooth="yes"/>
      <point x="1199" y="509"/>
      <point x="1262" y="619"/>
      <point x="1262" y="699" type="curve" smooth="yes"/>
      <point x="1262" y="751"/>
      <point x="1245" y="799"/>
      <point x="1206" y="843" type="curve" smooth="yes"/>
      <point x="1142" y="914"/>
      <point x="997" y="1021"/>
      <point x="903" y="1075" type="curve" smooth="yes"/>
      <point x="900" y="1077"/>
      <point x="896" y="1079"/>
      <point x="889" y="1079" type="curve" smooth="yes"/>
      <point x="884" y="1079"/>
      <point x="876" y="1075"/>
      <point x="864" y="1062" type="curve" smooth="yes"/>
      <point x="831" y="1031"/>
      <point x="754" y="918"/>
      <point x="737" y="889" type="curve" smooth="yes"/>
      <point x="732" y="882"/>
      <point x="727" y="872"/>
      <point x="727" y="867" type="curve" smooth="yes"/>
      <point x="727" y="860"/>
      <point x="732" y="853"/>
      <point x="740" y="846" type="curve" smooth="yes"/>
      <point x="801" y="803"/>
      <point x="934" y="727"/>
      <point x="995" y="665" type="curve" smooth="yes"/>
      <point x="1027" y="631"/>
      <point x="1034" y="593"/>
      <point x="1034" y="563" type="curve" smooth="yes"/>
      <point x="1034" y="500"/>
      <point x="957" y="378"/>
    </contour>
    <contour>
      <point x="285" y="306" type="curve" smooth="yes"/>
      <point x="282" y="299"/>
      <point x="270" y="279"/>
      <point x="270" y="272" type="curve" smooth="yes"/>
      <point x="270" y="263"/>
      <point x="277" y="260"/>
      <point x="284" y="260" type="curve" smooth="yes"/>
      <point x="291" y="260"/>
      <point x="305" y="265"/>
      <point x="319" y="272" type="curve" smooth="yes"/>
      <point x="355" y="292"/>
      <point x="403" y="325"/>
      <point x="434" y="347" type="curve" smooth="yes"/>
      <point x="466" y="373"/>
      <point x="484" y="387"/>
      <point x="513" y="431" type="curve" smooth="yes"/>
      <point x="564" y="509"/>
      <point x="627" y="619"/>
      <point x="627" y="699" type="curve" smooth="yes"/>
      <point x="627" y="751"/>
      <point x="611" y="799"/>
      <point x="571" y="843" type="curve" smooth="yes"/>
      <point x="508" y="914"/>
      <point x="362" y="1021"/>
      <point x="269" y="1075" type="curve" smooth="yes"/>
      <point x="265" y="1077"/>
      <point x="262" y="1079"/>
      <point x="255" y="1079" type="curve" smooth="yes"/>
      <point x="249" y="1079"/>
      <point x="242" y="1075"/>
      <point x="229" y="1062" type="curve" smooth="yes"/>
      <point x="197" y="1031"/>
      <point x="120" y="918"/>
      <point x="102" y="889" type="curve" smooth="yes"/>
      <point x="97" y="882"/>
      <point x="93" y="872"/>
      <point x="93" y="867" type="curve" smooth="yes"/>
      <point x="93" y="860"/>
      <point x="97" y="853"/>
      <point x="106" y="846" type="curve" smooth="yes"/>
      <point x="166" y="803"/>
      <point x="299" y="727"/>
      <point x="361" y="665" type="curve" smooth="yes"/>
      <point x="393" y="631"/>
      <point x="400" y="593"/>
      <point x="400" y="563" type="curve" smooth="yes"/>
      <point x="400" y="500"/>
      <point x="323" y="378"/>
    </contour>
    <contour>
      <point x="398" y="-169" type="line" smooth="yes"/>
      <point x="398" y="-154"/>
      <point x="405" y="-140"/>
      <point x="426" y="-138" type="curve" smooth="yes"/>
      <point x="496" y="-135"/>
      <point x="660" y="-131"/>
      <point x="660" y="-131" type="curve"/>
      <point x="660" y="-131"/>
      <point x="814" y="-135"/>
      <point x="896" y="-138" type="curve" smooth="yes"/>
      <point x="918" y="-140"/>
      <point x="925" y="-154"/>
      <point x="925" y="-169" type="curve" smooth="yes"/>
      <point x="925" y="-215" type="line" smooth="yes"/>
      <point x="925" y="-229"/>
      <point x="916" y="-244"/>
      <point x="896" y="-244" type="curve" smooth="yes"/>
      <point x="886" y="-244"/>
      <point x="732" y="-251"/>
      <point x="662" y="-251" type="curve" smooth="yes"/>
      <point x="592" y="-251"/>
      <point x="453" y="-244"/>
      <point x="426" y="-244" type="curve" smooth="yes"/>
      <point x="409" y="-244"/>
      <point x="398" y="-231"/>
      <point x="398" y="-215" type="curve" smooth="yes"/>
    </contour>
  </outline>
</glyph>
<glyph name="uniFB21" format="1">
  <advance width="1301"/>
  <unicode hex="FB21"/>
  <outline>
    <contour>
      <point x="199" y="138" type="curve" smooth="yes"/>
      <point x="199" y="115"/>
      <point x="181" y="77"/>
      <point x="169" y="45" type="curve" smooth="yes"/>
      <point x="163" y="32"/>
      <point x="159" y="20"/>
      <point x="159" y="14" type="curve" smooth="yes"/>
      <point x="159" y="7"/>
      <point x="163" y="2"/>
      <point x="176" y="2" type="curve" smooth="yes"/>
      <point x="409" y="2" type="line" smooth="yes"/>
      <point x="428" y="2"/>
      <point x="441" y="11"/>
      <point x="450" y="24" type="curve" smooth="yes"/>
      <point x="477" y="63"/>
      <point x="539" y="199"/>
      <point x="539" y="217" type="curve" smooth="yes"/>
      <point x="539" y="231"/>
      <point x="530" y="236"/>
      <point x="516" y="236" type="curve" smooth="yes"/>
      <point x="441" y="236" type="line" smooth="yes"/>
      <point x="396" y="236"/>
      <point x="373" y="284"/>
      <point x="373" y="349" type="curve" smooth="yes"/>
      <point x="373" y="414"/>
      <point x="403" y="539"/>
      <point x="431" y="592" type="curve" smooth="yes"/>
      <point x="438" y="606"/>
      <point x="445" y="611"/>
      <point x="452" y="611" type="curve" smooth="yes"/>
      <point x="453" y="611"/>
      <point x="464" y="606"/>
      <point x="473" y="599" type="curve" smooth="yes"/>
      <point x="537" y="547"/>
      <point x="617" y="473"/>
      <point x="699" y="393" type="curve" smooth="yes"/>
      <point x="894" y="202"/>
      <point x="984" y="102"/>
      <point x="1098" y="-32" type="curve" smooth="yes"/>
      <point x="1104" y="-38"/>
      <point x="1108" y="-43"/>
      <point x="1115" y="-43" type="curve" smooth="yes"/>
      <point x="1120" y="-43"/>
      <point x="1127" y="-38"/>
      <point x="1134" y="-25" type="curve" smooth="yes"/>
      <point x="1154" y="11"/>
      <point x="1183" y="67"/>
      <point x="1217" y="135" type="curve" smooth="yes"/>
      <point x="1221" y="142"/>
      <point x="1224" y="152"/>
      <point x="1224" y="159" type="curve" smooth="yes"/>
      <point x="1224" y="166"/>
      <point x="1221" y="171"/>
      <point x="1215" y="178" type="curve" smooth="yes"/>
      <point x="1180" y="224"/>
      <point x="1036" y="387"/>
      <point x="989" y="434" type="curve" smooth="yes"/>
      <point x="985" y="438"/>
      <point x="980" y="446"/>
      <point x="980" y="450" type="curve" smooth="yes"/>
      <point x="980" y="457"/>
      <point x="984" y="460"/>
      <point x="991" y="473" type="curve" smooth="yes"/>
      <point x="1061" y="597"/>
      <point x="1140" y="694"/>
      <point x="1140" y="851" type="curve" smooth="yes"/>
      <point x="1140" y="918"/>
      <point x="1113" y="1016"/>
      <point x="1084" y="1059" type="curve" smooth="yes"/>
      <point x="1074" y="1075"/>
      <point x="1067" y="1082"/>
      <point x="1057" y="1082" type="curve" smooth="yes"/>
      <point x="1054" y="1082"/>
      <point x="1047" y="1079"/>
      <point x="1034" y="1065" type="curve" smooth="yes"/>
      <point x="997" y="1021"/>
      <point x="925" y="937"/>
      <point x="903" y="908" type="curve" smooth="yes"/>
      <point x="893" y="894"/>
      <point x="887" y="887"/>
      <point x="887" y="872" type="curve" smooth="yes"/>
      <point x="887" y="860"/>
      <point x="893" y="855"/>
      <point x="900" y="838" type="curve" smooth="yes"/>
      <point x="921" y="788"/>
      <point x="935" y="739"/>
      <point x="935" y="683" type="curve" smooth="yes"/>
      <point x="935" y="640"/>
      <point x="927" y="595"/>
      <point x="908" y="549" type="curve" smooth="yes"/>
      <point x="905" y="539"/>
      <point x="900" y="534"/>
      <point x="894" y="534" type="curve" smooth="yes"/>
      <point x="891" y="534"/>
      <point x="886" y="537"/>
      <point x="876" y="547" type="curve" smooth="yes"/>
      <point x="848" y="571"/>
      <point x="788" y="638"/>
      <point x="683" y="735" type="curve" smooth="yes"/>
      <point x="545" y="860"/>
      <point x="403" y="977"/>
      <point x="279" y="1074" type="curve" smooth="yes"/>
      <point x="276" y="1077"/>
      <point x="265" y="1084"/>
      <point x="260" y="1084" type="curve" smooth="yes"/>
      <point x="255" y="1084"/>
      <point x="248" y="1084"/>
      <point x="236" y="1068" type="curve" smooth="yes"/>
      <point x="204" y="1021"/>
      <point x="151" y="939"/>
      <point x="138" y="916" type="curve" smooth="yes"/>
      <point x="131" y="903"/>
      <point x="131" y="901"/>
      <point x="131" y="894" type="curve" smooth="yes"/>
      <point x="131" y="884"/>
      <point x="140" y="880"/>
      <point x="152" y="867" type="curve" smooth="yes"/>
      <point x="200" y="824"/>
      <point x="282" y="758"/>
      <point x="340" y="706" type="curve" smooth="yes"/>
      <point x="346" y="701"/>
      <point x="353" y="692"/>
      <point x="353" y="686" type="curve" smooth="yes"/>
      <point x="353" y="681"/>
      <point x="349" y="674"/>
      <point x="346" y="669" type="curve" smooth="yes"/>
      <point x="202" y="475"/>
      <point x="197" y="319"/>
      <point x="197" y="217" type="curve" smooth="yes"/>
      <point x="197" y="172"/>
      <point x="199" y="154"/>
    </contour>
  </outline>
</glyph>
<glyph name="uniFB22" format="1">
  <advance width="1016"/>
  <unicode hex="FB22"/>
  <outline>
    <contour>
      <point x="563" y="718" type="curve" smooth="yes"/>
      <point x="575" y="511"/>
      <point x="585" y="224"/>
      <point x="602" y="-11" type="curve" smooth="yes"/>
      <point x="604" y="-29"/>
      <point x="609" y="-45"/>
      <point x="624" y="-45" type="curve" smooth="yes"/>
      <point x="636" y="-45"/>
      <point x="652" y="-29"/>
      <point x="667" y="-5" type="curve" smooth="yes"/>
      <point x="696" y="43"/>
      <point x="722" y="91"/>
      <point x="740" y="127" type="curve" smooth="yes"/>
      <point x="758" y="166"/>
      <point x="758" y="185"/>
      <point x="758" y="224" type="curve" smooth="yes"/>
      <point x="756" y="357"/>
      <point x="744" y="487"/>
      <point x="744" y="710" type="curve" smooth="yes"/>
      <point x="744" y="730"/>
      <point x="751" y="754"/>
      <point x="774" y="754" type="curve" smooth="yes"/>
      <point x="805" y="754" type="line" smooth="yes"/>
      <point x="823" y="754"/>
      <point x="830" y="767"/>
      <point x="838" y="785" type="curve" smooth="yes"/>
      <point x="862" y="831"/>
      <point x="887" y="903"/>
      <point x="896" y="937" type="curve" smooth="yes"/>
      <point x="900" y="949"/>
      <point x="903" y="959"/>
      <point x="903" y="970" type="curve" smooth="yes"/>
      <point x="903" y="982"/>
      <point x="882" y="989"/>
      <point x="867" y="989" type="curve" smooth="yes"/>
      <point x="773" y="989" type="line" smooth="yes"/>
      <point x="739" y="989"/>
      <point x="739" y="1029"/>
      <point x="735" y="1054" type="curve" smooth="yes"/>
      <point x="733" y="1070"/>
      <point x="725" y="1081"/>
      <point x="713" y="1081" type="curve" smooth="yes"/>
      <point x="656" y="1081"/>
      <point x="585" y="989"/>
      <point x="568" y="989" type="curve" smooth="yes"/>
      <point x="325" y="989" type="line" smooth="yes"/>
      <point x="276" y="989"/>
      <point x="277" y="1014"/>
      <point x="265" y="1055" type="curve" smooth="yes"/>
      <point x="262" y="1068"/>
      <point x="249" y="1081"/>
      <point x="242" y="1081" type="curve" smooth="yes"/>
      <point x="229" y="1081"/>
      <point x="217" y="1072"/>
      <point x="208" y="1057" type="curve" smooth="yes"/>
      <point x="166" y="993"/>
      <point x="115" y="903"/>
      <point x="79" y="831" type="curve" smooth="yes"/>
      <point x="70" y="814"/>
      <point x="63" y="797"/>
      <point x="63" y="790" type="curve" smooth="yes"/>
      <point x="63" y="765"/>
      <point x="84" y="754"/>
      <point x="106" y="754" type="curve" smooth="yes"/>
      <point x="529" y="754" type="line" smooth="yes"/>
      <point x="545" y="754"/>
      <point x="561" y="744"/>
    </contour>
  </outline>
</glyph>
<glyph name="hedageshhebrew" format="1">
  <advance width="1301"/>
  <unicode hex="FB34"/>
  <outline>
    <contour>
      <point x="918" y="634" type="curve" smooth="yes"/>
      <point x="937" y="484"/>
      <point x="946" y="212"/>
      <point x="954" y="-11" type="curve" smooth="yes"/>
      <point x="954" y="-32"/>
      <point x="961" y="-45"/>
      <point x="973" y="-45" type="curve" smooth="yes"/>
      <point x="984" y="-45"/>
      <point x="993" y="-34"/>
      <point x="1005" y="-18" type="curve" smooth="yes"/>
      <point x="1033" y="18"/>
      <point x="1068" y="77"/>
      <point x="1091" y="118" type="curve" smooth="yes"/>
      <point x="1110" y="147"/>
      <point x="1111" y="178"/>
      <point x="1111" y="207" type="curve" smooth="yes"/>
      <point x="1111" y="376"/>
      <point x="1104" y="523"/>
      <point x="1100" y="641" type="curve" smooth="yes"/>
      <point x="1093" y="858"/>
      <point x="1031" y="989"/>
      <point x="880" y="989" type="curve" smooth="yes"/>
      <point x="402" y="989" type="line" smooth="yes"/>
      <point x="359" y="989"/>
      <point x="337" y="989"/>
      <point x="321" y="1054" type="curve" smooth="yes"/>
      <point x="317" y="1068"/>
      <point x="308" y="1081"/>
      <point x="294" y="1081" type="curve" smooth="yes"/>
      <point x="287" y="1081"/>
      <point x="270" y="1072"/>
      <point x="255" y="1052" type="curve" smooth="yes"/>
      <point x="214" y="1002"/>
      <point x="158" y="907"/>
      <point x="109" y="824" type="curve" smooth="yes"/>
      <point x="99" y="807"/>
      <point x="93" y="794"/>
      <point x="93" y="783" type="curve" smooth="yes"/>
      <point x="93" y="765"/>
      <point x="108" y="754"/>
      <point x="149" y="754" type="curve" smooth="yes"/>
      <point x="788" y="754" type="line" smooth="yes"/>
      <point x="891" y="754"/>
      <point x="912" y="676"/>
    </contour>
    <contour>
      <point x="224" y="412" type="curve" smooth="yes"/>
      <point x="224" y="342"/>
      <point x="240" y="108"/>
      <point x="255" y="-20" type="curve" smooth="yes"/>
      <point x="256" y="-32"/>
      <point x="260" y="-45"/>
      <point x="272" y="-45" type="curve" smooth="yes"/>
      <point x="277" y="-45"/>
      <point x="287" y="-41"/>
      <point x="298" y="-29" type="curve" smooth="yes"/>
      <point x="328" y="7"/>
      <point x="366" y="65"/>
      <point x="395" y="109" type="curve" smooth="yes"/>
      <point x="407" y="129"/>
      <point x="409" y="147"/>
      <point x="409" y="171" type="curve" smooth="yes"/>
      <point x="409" y="291"/>
      <point x="390" y="543"/>
      <point x="383" y="600" type="curve" smooth="yes"/>
      <point x="382" y="614"/>
      <point x="376" y="626"/>
      <point x="364" y="626" type="curve" smooth="yes"/>
      <point x="355" y="626"/>
      <point x="340" y="611"/>
      <point x="326" y="593" type="curve" smooth="yes"/>
      <point x="296" y="554"/>
      <point x="253" y="493"/>
      <point x="236" y="462" type="curve" smooth="yes"/>
      <point x="226" y="443"/>
      <point x="224" y="431"/>
    </contour>
    <contour>
      <point x="724" y="498" type="curve" smooth="yes"/>
      <point x="724" y="539"/>
      <point x="692" y="571"/>
      <point x="652" y="571" type="curve" smooth="yes"/>
      <point x="611" y="571"/>
      <point x="579" y="539"/>
      <point x="579" y="498" type="curve" smooth="yes"/>
      <point x="579" y="459"/>
      <point x="611" y="426"/>
      <point x="652" y="426" type="curve" smooth="yes"/>
      <point x="692" y="426"/>
      <point x="724" y="459"/>
    </contour>
  </outline>
</glyph>
<glyph name="vavdageshhebrew" format="1">
  <advance width="730"/>
  <unicode hex="FB35"/>
  <outline>
    <contour>
      <point x="373" y="593" type="curve" smooth="yes"/>
      <point x="393" y="466"/>
      <point x="407" y="145"/>
      <point x="407" y="-9" type="curve" smooth="yes"/>
      <point x="407" y="-27"/>
      <point x="414" y="-46"/>
      <point x="428" y="-46" type="curve" smooth="yes"/>
      <point x="438" y="-46"/>
      <point x="445" y="-41"/>
      <point x="453" y="-31" type="curve" smooth="yes"/>
      <point x="477" y="-2"/>
      <point x="525" y="65"/>
      <point x="550" y="111" type="curve" smooth="yes"/>
      <point x="563" y="135"/>
      <point x="568" y="158"/>
      <point x="568" y="181" type="curve" smooth="yes"/>
      <point x="568" y="472"/>
      <point x="568" y="588"/>
      <point x="561" y="706" type="curve" smooth="yes"/>
      <point x="556" y="801"/>
      <point x="525" y="860"/>
      <point x="482" y="901" type="curve" smooth="yes"/>
      <point x="421" y="963"/>
      <point x="335" y="1029"/>
      <point x="284" y="1067" type="curve" smooth="yes"/>
      <point x="270" y="1075"/>
      <point x="263" y="1079"/>
      <point x="258" y="1079" type="curve" smooth="yes"/>
      <point x="253" y="1079"/>
      <point x="246" y="1075"/>
      <point x="238" y="1068" type="curve" smooth="yes"/>
      <point x="200" y="1031"/>
      <point x="147" y="961"/>
      <point x="106" y="898" type="curve" smooth="yes"/>
      <point x="99" y="887"/>
      <point x="95" y="879"/>
      <point x="95" y="869" type="curve" smooth="yes"/>
      <point x="95" y="858"/>
      <point x="102" y="853"/>
      <point x="113" y="846" type="curve" smooth="yes"/>
      <point x="156" y="817"/>
      <point x="244" y="769"/>
      <point x="308" y="711" type="curve" smooth="yes"/>
      <point x="349" y="674"/>
      <point x="368" y="627"/>
    </contour>
    <contour>
      <point x="287" y="498" type="curve" smooth="yes"/>
      <point x="287" y="539"/>
      <point x="255" y="571"/>
      <point x="215" y="571" type="curve" smooth="yes"/>
      <point x="174" y="571"/>
      <point x="142" y="539"/>
      <point x="142" y="498" type="curve" smooth="yes"/>
      <point x="142" y="459"/>
      <point x="174" y="426"/>
      <point x="215" y="426" type="curve" smooth="yes"/>
      <point x="255" y="426"/>
      <point x="287" y="459"/>
    </contour>
  </outline>
</glyph>
<glyph name="zayindageshhebrew" format="1">
  <advance width="730"/>
  <unicode hex="FB36"/>
  <outline>
    <contour>
      <point x="212" y="457" type="curve" smooth="yes"/>
      <point x="249" y="353"/>
      <point x="319" y="171"/>
      <point x="417" y="-27" type="curve" smooth="yes"/>
      <point x="423" y="-38"/>
      <point x="431" y="-45"/>
      <point x="438" y="-45" type="curve" smooth="yes"/>
      <point x="443" y="-45"/>
      <point x="450" y="-38"/>
      <point x="455" y="-27" type="curve" smooth="yes"/>
      <point x="473" y="9"/>
      <point x="506" y="82"/>
      <point x="523" y="133" type="curve" smooth="yes"/>
      <point x="529" y="147"/>
      <point x="530" y="154"/>
      <point x="530" y="163" type="curve" smooth="yes"/>
      <point x="530" y="171"/>
      <point x="523" y="185"/>
      <point x="518" y="197" type="curve" smooth="yes"/>
      <point x="445" y="371"/>
      <point x="344" y="541"/>
      <point x="344" y="652" type="curve" smooth="yes"/>
      <point x="344" y="683"/>
      <point x="357" y="697"/>
      <point x="387" y="697" type="curve" smooth="yes"/>
      <point x="431" y="697"/>
      <point x="482" y="658"/>
      <point x="511" y="629" type="curve" smooth="yes"/>
      <point x="518" y="622"/>
      <point x="527" y="617"/>
      <point x="534" y="617" type="curve" smooth="yes"/>
      <point x="543" y="617"/>
      <point x="550" y="626"/>
      <point x="559" y="640" type="curve" smooth="yes"/>
      <point x="586" y="681"/>
      <point x="620" y="765"/>
      <point x="629" y="792" type="curve" smooth="yes"/>
      <point x="631" y="799"/>
      <point x="633" y="805"/>
      <point x="633" y="810" type="curve" smooth="yes"/>
      <point x="633" y="819"/>
      <point x="633" y="828"/>
      <point x="622" y="837" type="curve" smooth="yes"/>
      <point x="509" y="932"/>
      <point x="395" y="1007"/>
      <point x="265" y="1072" type="curve" smooth="yes"/>
      <point x="258" y="1075"/>
      <point x="246" y="1079"/>
      <point x="240" y="1079" type="curve" smooth="yes"/>
      <point x="233" y="1079"/>
      <point x="228" y="1077"/>
      <point x="215" y="1062" type="curve" smooth="yes"/>
      <point x="186" y="1029"/>
      <point x="135" y="957"/>
      <point x="106" y="907" type="curve" smooth="yes"/>
      <point x="101" y="898"/>
      <point x="97" y="891"/>
      <point x="97" y="884" type="curve" smooth="yes"/>
      <point x="97" y="869"/>
      <point x="108" y="864"/>
      <point x="120" y="858" type="curve" smooth="yes"/>
      <point x="169" y="837"/>
      <point x="258" y="805"/>
      <point x="258" y="769" type="curve" smooth="yes"/>
      <point x="258" y="747"/>
      <point x="226" y="647"/>
      <point x="204" y="577" type="curve" smooth="yes"/>
      <point x="199" y="559"/>
      <point x="197" y="545"/>
      <point x="197" y="529" type="curve" smooth="yes"/>
      <point x="197" y="509"/>
      <point x="202" y="482"/>
    </contour>
    <contour>
      <point x="161" y="498" type="curve" smooth="yes"/>
      <point x="161" y="539"/>
      <point x="129" y="571"/>
      <point x="89" y="571" type="curve" smooth="yes"/>
      <point x="48" y="571"/>
      <point x="16" y="539"/>
      <point x="16" y="498" type="curve" smooth="yes"/>
      <point x="16" y="459"/>
      <point x="48" y="426"/>
      <point x="89" y="426" type="curve" smooth="yes"/>
      <point x="129" y="426"/>
      <point x="161" y="459"/>
    </contour>
  </outline>
</glyph>
<glyph name="finalkafdageshhebrew" format="1">
  <advance width="1016"/>
  <unicode hex="FB3A"/>
  <outline>
    <contour>
      <point x="417" y="498" type="curve" smooth="yes"/>
      <point x="417" y="539"/>
      <point x="385" y="571"/>
      <point x="346" y="571" type="curve" smooth="yes"/>
      <point x="305" y="571"/>
      <point x="272" y="539"/>
      <point x="272" y="498" type="curve" smooth="yes"/>
      <point x="272" y="459"/>
      <point x="305" y="426"/>
      <point x="346" y="426" type="curve" smooth="yes"/>
      <point x="385" y="426"/>
      <point x="417" y="459"/>
    </contour>
    <contour>
      <point x="563" y="708" type="curve" smooth="yes"/>
      <point x="583" y="530"/>
      <point x="593" y="-147"/>
      <point x="609" y="-387" type="curve" smooth="yes"/>
      <point x="611" y="-402"/>
      <point x="617" y="-410"/>
      <point x="627" y="-410" type="curve" smooth="yes"/>
      <point x="636" y="-410"/>
      <point x="645" y="-402"/>
      <point x="658" y="-387" type="curve" smooth="yes"/>
      <point x="690" y="-351"/>
      <point x="737" y="-277"/>
      <point x="751" y="-248" type="curve" smooth="yes"/>
      <point x="763" y="-221"/>
      <point x="763" y="-199"/>
      <point x="763" y="-169" type="curve" smooth="yes"/>
      <point x="763" y="185"/>
      <point x="747" y="460"/>
      <point x="747" y="692" type="curve" smooth="yes"/>
      <point x="747" y="732"/>
      <point x="780" y="747"/>
      <point x="809" y="751" type="curve" smooth="yes"/>
      <point x="826" y="753"/>
      <point x="843" y="761"/>
      <point x="850" y="778" type="curve" smooth="yes"/>
      <point x="874" y="826"/>
      <point x="900" y="891"/>
      <point x="912" y="932" type="curve" smooth="yes"/>
      <point x="918" y="948"/>
      <point x="921" y="961"/>
      <point x="921" y="968" type="curve" smooth="yes"/>
      <point x="921" y="985"/>
      <point x="907" y="989"/>
      <point x="874" y="989" type="curve" smooth="yes"/>
      <point x="362" y="989" type="line" smooth="yes"/>
      <point x="313" y="989"/>
      <point x="301" y="1021"/>
      <point x="292" y="1047" type="curve" smooth="yes"/>
      <point x="285" y="1068"/>
      <point x="279" y="1081"/>
      <point x="263" y="1081" type="curve" smooth="yes"/>
      <point x="256" y="1081"/>
      <point x="248" y="1075"/>
      <point x="233" y="1055" type="curve" smooth="yes"/>
      <point x="193" y="1000"/>
      <point x="138" y="903"/>
      <point x="102" y="844" type="curve" smooth="yes"/>
      <point x="91" y="826"/>
      <point x="79" y="801"/>
      <point x="79" y="794" type="curve" smooth="yes"/>
      <point x="79" y="760"/>
      <point x="109" y="754"/>
      <point x="137" y="754" type="curve" smooth="yes"/>
      <point x="508" y="754" type="line" smooth="yes"/>
      <point x="547" y="754"/>
      <point x="559" y="740"/>
    </contour>
  </outline>
</glyph>
<glyph name="kafdageshhebrew" format="1">
  <advance width="1016"/>
  <unicode hex="FB3B"/>
  <outline>
    <contour>
      <point x="79" y="52" type="curve" smooth="yes"/>
      <point x="74" y="39"/>
      <point x="70" y="29"/>
      <point x="70" y="22" type="curve" smooth="yes"/>
      <point x="70" y="14"/>
      <point x="74" y="0"/>
      <point x="91" y="0" type="curve" smooth="yes"/>
      <point x="604" y="0" type="line" smooth="yes"/>
      <point x="633" y="0"/>
      <point x="665" y="20"/>
      <point x="697" y="60" type="curve" smooth="yes"/>
      <point x="756" y="131"/>
      <point x="823" y="221"/>
      <point x="876" y="380" type="curve" smooth="yes"/>
      <point x="894" y="432"/>
      <point x="908" y="487"/>
      <point x="908" y="547" type="curve" smooth="yes"/>
      <point x="908" y="792"/>
      <point x="794" y="989"/>
      <point x="568" y="989" type="curve" smooth="yes"/>
      <point x="355" y="989" type="line" smooth="yes"/>
      <point x="315" y="989"/>
      <point x="301" y="1009"/>
      <point x="291" y="1055" type="curve" smooth="yes"/>
      <point x="287" y="1072"/>
      <point x="276" y="1081"/>
      <point x="263" y="1081" type="curve" smooth="yes"/>
      <point x="255" y="1081"/>
      <point x="242" y="1072"/>
      <point x="233" y="1061" type="curve" smooth="yes"/>
      <point x="195" y="1016"/>
      <point x="127" y="907"/>
      <point x="86" y="830" type="curve" smooth="yes"/>
      <point x="75" y="810"/>
      <point x="70" y="799"/>
      <point x="70" y="788" type="curve" smooth="yes"/>
      <point x="70" y="761"/>
      <point x="102" y="754"/>
      <point x="144" y="754" type="curve" smooth="yes"/>
      <point x="464" y="754" type="line" smooth="yes"/>
      <point x="626" y="754"/>
      <point x="718" y="626"/>
      <point x="718" y="460" type="curve" smooth="yes"/>
      <point x="718" y="351"/>
      <point x="697" y="235"/>
      <point x="600" y="235" type="curve" smooth="yes"/>
      <point x="207" y="235" type="line" smooth="yes"/>
      <point x="190" y="235"/>
      <point x="178" y="233"/>
      <point x="165" y="215" type="curve" smooth="yes"/>
      <point x="149" y="192"/>
      <point x="108" y="116"/>
    </contour>
    <contour>
      <point x="498" y="498" type="curve" smooth="yes"/>
      <point x="498" y="539"/>
      <point x="466" y="571"/>
      <point x="426" y="571" type="curve" smooth="yes"/>
      <point x="385" y="571"/>
      <point x="353" y="539"/>
      <point x="353" y="498" type="curve" smooth="yes"/>
      <point x="353" y="459"/>
      <point x="385" y="426"/>
      <point x="426" y="426" type="curve" smooth="yes"/>
      <point x="466" y="426"/>
      <point x="498" y="459"/>
    </contour>
  </outline>
</glyph>
<glyph name="samekhdageshhebrew" format="1">
  <advance width="1301"/>
  <unicode hex="FB41"/>
  <outline>
    <contour>
      <point x="795" y="498" type="curve" smooth="yes"/>
      <point x="795" y="539"/>
      <point x="763" y="571"/>
      <point x="724" y="571" type="curve" smooth="yes"/>
      <point x="683" y="571"/>
      <point x="650" y="539"/>
      <point x="650" y="498" type="curve" smooth="yes"/>
      <point x="650" y="459"/>
      <point x="683" y="426"/>
      <point x="724" y="426" type="curve" smooth="yes"/>
      <point x="763" y="426"/>
      <point x="795" y="459"/>
    </contour>
    <contour>
      <point x="248" y="629" type="curve" smooth="yes"/>
      <point x="298" y="460"/>
      <point x="346" y="238"/>
      <point x="393" y="104" type="curve" smooth="yes"/>
      <point x="419" y="25"/>
      <point x="477" y="-27"/>
      <point x="541" y="-27" type="curve" smooth="yes"/>
      <point x="679" y="-27"/>
      <point x="801" y="36"/>
      <point x="921" y="135" type="curve" smooth="yes"/>
      <point x="984" y="186"/>
      <point x="1052" y="282"/>
      <point x="1081" y="337" type="curve" smooth="yes"/>
      <point x="1161" y="491"/>
      <point x="1194" y="638"/>
      <point x="1194" y="792" type="curve" smooth="yes"/>
      <point x="1194" y="916"/>
      <point x="1145" y="989"/>
      <point x="1034" y="989" type="curve" smooth="yes"/>
      <point x="403" y="989" type="line" smooth="yes"/>
      <point x="375" y="989"/>
      <point x="344" y="991"/>
      <point x="333" y="1052" type="curve" smooth="yes"/>
      <point x="330" y="1070"/>
      <point x="319" y="1079"/>
      <point x="303" y="1079" type="curve" smooth="yes"/>
      <point x="292" y="1079"/>
      <point x="277" y="1068"/>
      <point x="258" y="1045" type="curve" smooth="yes"/>
      <point x="215" y="993"/>
      <point x="152" y="900"/>
      <point x="108" y="821" type="curve" smooth="yes"/>
      <point x="101" y="809"/>
      <point x="93" y="790"/>
      <point x="93" y="781" type="curve" smooth="yes"/>
      <point x="93" y="760"/>
      <point x="109" y="754"/>
      <point x="131" y="753" type="curve" smooth="yes"/>
      <point x="149" y="751"/>
      <point x="176" y="751"/>
      <point x="190" y="740" type="curve" smooth="yes"/>
      <point x="215" y="722"/>
      <point x="229" y="690"/>
    </contour>
    <contour>
      <point x="617" y="212" type="curve" smooth="yes"/>
      <point x="583" y="212"/>
      <point x="552" y="226"/>
      <point x="532" y="272" type="curve" smooth="yes"/>
      <point x="480" y="395"/>
      <point x="417" y="715"/>
      <point x="417" y="733" type="curve" smooth="yes"/>
      <point x="417" y="746"/>
      <point x="424" y="754"/>
      <point x="443" y="754" type="curve" smooth="yes"/>
      <point x="882" y="754" type="line" smooth="yes"/>
      <point x="987" y="754"/>
      <point x="1007" y="713"/>
      <point x="1007" y="588" type="curve" smooth="yes"/>
      <point x="1007" y="459"/>
      <point x="948" y="349"/>
      <point x="851" y="289" type="curve" smooth="yes"/>
      <point x="785" y="248"/>
      <point x="699" y="212"/>
    </contour>
  </outline>
</glyph>
<glyph name="qofdageshhebrew" format="1">
  <advance width="1301"/>
  <unicode hex="FB47"/>
  <outline>
    <contour>
      <point x="242" y="667" type="curve" smooth="yes"/>
      <point x="265" y="355"/>
      <point x="263" y="-58"/>
      <point x="282" y="-375" type="curve" smooth="yes"/>
      <point x="284" y="-405"/>
      <point x="291" y="-410"/>
      <point x="303" y="-410" type="curve" smooth="yes"/>
      <point x="313" y="-410"/>
      <point x="325" y="-403"/>
      <point x="339" y="-382" type="curve" smooth="yes"/>
      <point x="369" y="-335"/>
      <point x="400" y="-289"/>
      <point x="423" y="-235" type="curve" smooth="yes"/>
      <point x="441" y="-192"/>
      <point x="441" y="-125"/>
      <point x="441" y="-88" type="curve" smooth="yes"/>
      <point x="441" y="248"/>
      <point x="438" y="539"/>
      <point x="438" y="710" type="curve" smooth="yes"/>
      <point x="438" y="733"/>
      <point x="450" y="754"/>
      <point x="475" y="754" type="curve" smooth="yes"/>
      <point x="900" y="754" type="line" smooth="yes"/>
      <point x="968" y="754"/>
      <point x="991" y="708"/>
      <point x="991" y="636" type="curve" smooth="yes"/>
      <point x="991" y="579"/>
      <point x="985" y="516"/>
      <point x="964" y="445" type="curve" smooth="yes"/>
      <point x="942" y="375"/>
      <point x="916" y="340"/>
      <point x="860" y="310" type="curve" smooth="yes"/>
      <point x="795" y="274"/>
      <point x="710" y="242"/>
      <point x="656" y="222" type="curve" smooth="yes"/>
      <point x="634" y="215"/>
      <point x="624" y="207"/>
      <point x="613" y="181" type="curve" smooth="yes"/>
      <point x="592" y="137"/>
      <point x="545" y="7"/>
      <point x="545" y="-14" type="curve" smooth="yes"/>
      <point x="545" y="-29"/>
      <point x="552" y="-36"/>
      <point x="568" y="-36" type="curve" smooth="yes"/>
      <point x="579" y="-36"/>
      <point x="593" y="-31"/>
      <point x="611" y="-25" type="curve" smooth="yes"/>
      <point x="697" y="2"/>
      <point x="843" y="84"/>
      <point x="876" y="109" type="curve" smooth="yes"/>
      <point x="934" y="152"/>
      <point x="993" y="221"/>
      <point x="1036" y="299" type="curve" smooth="yes"/>
      <point x="1077" y="375"/>
      <point x="1108" y="445"/>
      <point x="1138" y="522" type="curve" smooth="yes"/>
      <point x="1173" y="613"/>
      <point x="1194" y="706"/>
      <point x="1194" y="785" type="curve" smooth="yes"/>
      <point x="1194" y="886"/>
      <point x="1158" y="991"/>
      <point x="1038" y="991" type="curve" smooth="yes"/>
      <point x="416" y="991" type="line" smooth="yes"/>
      <point x="385" y="991"/>
      <point x="371" y="1014"/>
      <point x="366" y="1040" type="curve" smooth="yes"/>
      <point x="361" y="1061"/>
      <point x="353" y="1081"/>
      <point x="332" y="1081" type="curve" smooth="yes"/>
      <point x="323" y="1081"/>
      <point x="305" y="1070"/>
      <point x="285" y="1045" type="curve" smooth="yes"/>
      <point x="248" y="997"/>
      <point x="188" y="916"/>
      <point x="138" y="833" type="curve" smooth="yes"/>
      <point x="123" y="810"/>
      <point x="111" y="794"/>
      <point x="111" y="778" type="curve" smooth="yes"/>
      <point x="111" y="746"/>
      <point x="156" y="753"/>
      <point x="197" y="744" type="curve" smooth="yes"/>
      <point x="231" y="737"/>
      <point x="238" y="713"/>
    </contour>
    <contour>
      <point x="780" y="498" type="curve" smooth="yes"/>
      <point x="780" y="539"/>
      <point x="747" y="571"/>
      <point x="708" y="571" type="curve" smooth="yes"/>
      <point x="667" y="571"/>
      <point x="634" y="539"/>
      <point x="634" y="498" type="curve" smooth="yes"/>
      <point x="634" y="459"/>
      <point x="667" y="426"/>
      <point x="708" y="426" type="curve" smooth="yes"/>
      <point x="747" y="426"/>
      <point x="780" y="459"/>
    </contour>
  </outline>
</glyph>
<glyph name="tavdageshhebrew" format="1">
  <advance width="1301"/>
  <unicode hex="FB4A"/>
  <outline>
    <contour>
      <point x="88" y="60" type="curve" smooth="yes"/>
      <point x="79" y="39"/>
      <point x="75" y="20"/>
      <point x="75" y="20" type="curve"/>
      <point x="75" y="7"/>
      <point x="82" y="-2"/>
      <point x="101" y="-2" type="curve" smooth="yes"/>
      <point x="416" y="-2" type="line" smooth="yes"/>
      <point x="438" y="-2"/>
      <point x="450" y="9"/>
      <point x="457" y="25" type="curve" smooth="yes"/>
      <point x="486" y="88"/>
      <point x="523" y="202"/>
      <point x="537" y="262" type="curve" smooth="yes"/>
      <point x="543" y="284"/>
      <point x="547" y="305"/>
      <point x="547" y="333" type="curve" smooth="yes"/>
      <point x="547" y="373"/>
      <point x="500" y="586"/>
      <point x="475" y="704" type="curve" smooth="yes"/>
      <point x="473" y="715"/>
      <point x="470" y="730"/>
      <point x="470" y="740" type="curve" smooth="yes"/>
      <point x="470" y="754"/>
      <point x="479" y="754"/>
      <point x="494" y="754" type="curve" smooth="yes"/>
      <point x="816" y="754" type="line" smooth="yes"/>
      <point x="879" y="754"/>
      <point x="910" y="725"/>
      <point x="927" y="658" type="curve" smooth="yes"/>
      <point x="956" y="530"/>
      <point x="968" y="84"/>
      <point x="973" y="-18" type="curve" smooth="yes"/>
      <point x="975" y="-36"/>
      <point x="980" y="-48"/>
      <point x="993" y="-48" type="curve" smooth="yes"/>
      <point x="1004" y="-48"/>
      <point x="1012" y="-39"/>
      <point x="1018" y="-32" type="curve" smooth="yes"/>
      <point x="1059" y="24"/>
      <point x="1095" y="89"/>
      <point x="1115" y="137" type="curve" smooth="yes"/>
      <point x="1124" y="158"/>
      <point x="1127" y="181"/>
      <point x="1127" y="238" type="curve" smooth="yes"/>
      <point x="1125" y="330"/>
      <point x="1120" y="491"/>
      <point x="1113" y="638" type="curve" smooth="yes"/>
      <point x="1104" y="809"/>
      <point x="1075" y="987"/>
      <point x="889" y="987" type="curve" smooth="yes"/>
      <point x="378" y="987" type="line" smooth="yes"/>
      <point x="349" y="987"/>
      <point x="339" y="1007"/>
      <point x="323" y="1050" type="curve" smooth="yes"/>
      <point x="317" y="1065"/>
      <point x="306" y="1079"/>
      <point x="291" y="1079" type="curve" smooth="yes"/>
      <point x="276" y="1079"/>
      <point x="263" y="1070"/>
      <point x="256" y="1061" type="curve" smooth="yes"/>
      <point x="208" y="1004"/>
      <point x="137" y="891"/>
      <point x="102" y="814" type="curve" smooth="yes"/>
      <point x="97" y="801"/>
      <point x="93" y="785"/>
      <point x="93" y="780" type="curve" smooth="yes"/>
      <point x="93" y="758"/>
      <point x="111" y="754"/>
      <point x="125" y="754" type="curve" smooth="yes"/>
      <point x="226" y="754" type="line" smooth="yes"/>
      <point x="244" y="754"/>
      <point x="262" y="753"/>
      <point x="270" y="727" type="curve" smooth="yes"/>
      <point x="321" y="595"/>
      <point x="395" y="279"/>
      <point x="395" y="256" type="curve" smooth="yes"/>
      <point x="395" y="246"/>
      <point x="387" y="235"/>
      <point x="369" y="235" type="curve" smooth="yes"/>
      <point x="207" y="235" type="line" smooth="yes"/>
      <point x="188" y="235"/>
      <point x="172" y="221"/>
      <point x="161" y="202" type="curve" smooth="yes"/>
      <point x="137" y="159"/>
      <point x="115" y="118"/>
    </contour>
    <contour>
      <point x="803" y="498" type="curve" smooth="yes"/>
      <point x="803" y="539"/>
      <point x="771" y="571"/>
      <point x="732" y="571" type="curve" smooth="yes"/>
      <point x="690" y="571"/>
      <point x="658" y="539"/>
      <point x="658" y="498" type="curve" smooth="yes"/>
      <point x="658" y="459"/>
      <point x="690" y="426"/>
      <point x="732" y="426" type="curve" smooth="yes"/>
      <point x="771" y="426"/>
      <point x="803" y="459"/>
    </contour>
  </outline>
</glyph>
